Lohit-AL3.ufo
<glyph name="exclam" format="1">
  <advance width="339"/>
  <unicode hex="0021"/>
  <outline>
    <contour>
      <point x="146" y="233" type="line"/>
      <point x="100" y="739" type="line"/>
      <point x="240" y="739" type="line"/>
      <point x="193" y="233" type="line"/>
    </contour>
    <contour>
      <point x="107" y="0" type="line"/>
      <point x="107" y="120" type="line"/>
      <point x="233" y="120" type="line"/>
      <point x="233" y="0" type="line"/>
    </contour>
  </outline>
</glyph>
<glyph name="quotedbl" format="1">
  <advance width="460"/>
  <unicode hex="0022"/>
  <outline>
    <contour>
      <point x="361" y="664" type="line"/>
      <point x="312" y="664" type="line"/>
      <point x="273" y="875" type="line"/>
      <point x="353" y="875" type="line"/>
    </contour>
    <contour>
      <point x="188" y="664" type="line"/>
      <point x="138" y="664" type="line"/>
      <point x="100" y="875" type="line"/>
      <point x="180" y="875" type="line"/>
    </contour>
  </outline>
</glyph>
<glyph name="numbersign" format="1">
  <advance width="934"/>
  <unicode hex="0023"/>
  <outline>
    <contour>
      <point x="606" y="450" type="line"/>
      <point x="401" y="450" type="line"/>
      <point x="333" y="245" type="line"/>
      <point x="539" y="245" type="line"/>
    </contour>
    <contour>
      <point x="166" y="450" type="line"/>
      <point x="166" y="511" type="line"/>
      <point x="360" y="511" type="line"/>
      <point x="409" y="668" type="line"/>
      <point x="470" y="668" type="line"/>
      <point x="421" y="511" type="line"/>
      <point x="626" y="511" type="line"/>
      <point x="675" y="668" type="line"/>
      <point x="738" y="668" type="line"/>
      <point x="688" y="511" type="line"/>
      <point x="835" y="511" type="line"/>
      <point x="835" y="450" type="line"/>
      <point x="667" y="450" type="line"/>
      <point x="601" y="245" type="line"/>
      <point x="768" y="245" type="line"/>
      <point x="768" y="181" type="line"/>
      <point x="581" y="181" type="line"/>
      <point x="523" y="-1" type="line"/>
      <point x="461" y="-1" type="line"/>
      <point x="519" y="181" type="line"/>
      <point x="314" y="181" type="line"/>
      <point x="256" y="-1" type="line"/>
      <point x="194" y="-1" type="line"/>
      <point x="253" y="181" type="line"/>
      <point x="100" y="181" type="line"/>
      <point x="100" y="245" type="line"/>
      <point x="272" y="245" type="line"/>
      <point x="338" y="450" type="line"/>
    </contour>
  </outline>
</glyph>
<glyph name="dollar" format="1">
  <advance width="712"/>
  <unicode hex="0024"/>
  <outline>
    <contour>
      <point x="320" y="666" type="line"/>
      <point x="258" y="654"/>
      <point x="178" y="581"/>
      <point x="178" y="535" type="qcurve" smooth="yes"/>
      <point x="178" y="486"/>
      <point x="258" y="407"/>
      <point x="320" y="398" type="qcurve"/>
    </contour>
    <contour>
      <point x="385" y="49" type="line"/>
      <point x="457" y="57"/>
      <point x="554" y="140"/>
      <point x="554" y="194" type="qcurve" smooth="yes"/>
      <point x="554" y="248"/>
      <point x="457" y="326"/>
      <point x="385" y="332" type="qcurve"/>
    </contour>
    <contour>
      <point x="100" y="225" type="qcurve"/>
      <point x="161" y="225" type="line"/>
      <point x="161" y="165"/>
      <point x="250" y="67"/>
      <point x="320" y="49" type="qcurve"/>
      <point x="320" y="341" type="line"/>
      <point x="233" y="350"/>
      <point x="116" y="462"/>
      <point x="116" y="535" type="qcurve" smooth="yes"/>
      <point x="116" y="606"/>
      <point x="232" y="714"/>
      <point x="320" y="724" type="qcurve"/>
      <point x="320" y="839" type="line"/>
      <point x="385" y="839" type="line"/>
      <point x="385" y="724" type="line"/>
      <point x="474" y="714"/>
      <point x="593" y="597"/>
      <point x="593" y="519" type="qcurve"/>
      <point x="529" y="519" type="line"/>
      <point x="529" y="574"/>
      <point x="446" y="656"/>
      <point x="385" y="666" type="qcurve"/>
      <point x="385" y="389" type="line"/>
      <point x="483" y="376"/>
      <point x="613" y="264"/>
      <point x="613" y="194" type="qcurve" smooth="yes"/>
      <point x="613" y="117"/>
      <point x="482" y="1"/>
      <point x="385" y="-9" type="qcurve"/>
      <point x="385" y="-101" type="line"/>
      <point x="320" y="-101" type="line"/>
      <point x="320" y="-9" type="line"/>
      <point x="225" y="4"/>
      <point x="100" y="137"/>
    </contour>
  </outline>
</glyph>
<glyph name="percent" format="1">
  <advance width="885"/>
  <unicode hex="0025"/>
  <outline>
    <contour>
      <point x="526" y="166" type="qcurve"/>
      <point x="526" y="125"/>
      <point x="582" y="67"/>
      <point x="622" y="67" type="qcurve" smooth="yes"/>
      <point x="662" y="67"/>
      <point x="719" y="125"/>
      <point x="719" y="166" type="qcurve" smooth="yes"/>
      <point x="719" y="208"/>
      <point x="662" y="266"/>
      <point x="622" y="266" type="qcurve" smooth="yes"/>
      <point x="582" y="266"/>
      <point x="526" y="208"/>
    </contour>
    <contour>
      <point x="459" y="169" type="qcurve"/>
      <point x="459" y="237"/>
      <point x="554" y="333"/>
      <point x="622" y="333" type="qcurve" smooth="yes"/>
      <point x="690" y="333"/>
      <point x="786" y="237"/>
      <point x="786" y="169" type="qcurve" smooth="yes"/>
      <point x="786" y="101"/>
      <point x="690" y="7"/>
      <point x="622" y="7" type="qcurve" smooth="yes"/>
      <point x="554" y="7"/>
      <point x="459" y="101"/>
    </contour>
    <contour>
      <point x="360" y="555" type="qcurve"/>
      <point x="360" y="595"/>
      <point x="302" y="652"/>
      <point x="262" y="652" type="qcurve" smooth="yes"/>
      <point x="222" y="652"/>
      <point x="166" y="595"/>
      <point x="166" y="555" type="qcurve" smooth="yes"/>
      <point x="166" y="515"/>
      <point x="222" y="459"/>
      <point x="262" y="459" type="qcurve" smooth="yes"/>
      <point x="302" y="459"/>
      <point x="360" y="515"/>
    </contour>
    <contour>
      <point x="100" y="555" type="qcurve"/>
      <point x="100" y="623"/>
      <point x="194" y="719"/>
      <point x="262" y="719" type="qcurve" smooth="yes"/>
      <point x="330" y="719"/>
      <point x="426" y="623"/>
      <point x="426" y="555" type="qcurve" smooth="yes"/>
      <point x="426" y="487"/>
      <point x="330" y="393"/>
      <point x="262" y="393" type="qcurve" smooth="yes"/>
      <point x="194" y="393"/>
      <point x="100" y="487"/>
    </contour>
    <contour>
      <point x="146" y="0" type="line"/>
      <point x="666" y="726" type="line"/>
      <point x="739" y="726" type="line"/>
      <point x="220" y="0" type="line"/>
    </contour>
  </outline>
</glyph>
<glyph name="ampersand" format="1">
  <advance width="761"/>
  <unicode hex="0026"/>
  <outline>
    <contour>
      <point x="244" y="587" type="qcurve"/>
      <point x="244" y="562"/>
      <point x="284" y="483"/>
      <point x="322" y="434" type="qcurve"/>
      <point x="370" y="462"/>
      <point x="426" y="539"/>
      <point x="426" y="578" type="qcurve" smooth="yes"/>
      <point x="426" y="621"/>
      <point x="378" y="682"/>
      <point x="345" y="682" type="qcurve" smooth="yes"/>
      <point x="304" y="682"/>
      <point x="244" y="626"/>
    </contour>
    <contour>
      <point x="166" y="184" type="qcurve"/>
      <point x="166" y="127"/>
      <point x="254" y="45"/>
      <point x="316" y="45" type="qcurve" smooth="yes"/>
      <point x="360" y="45"/>
      <point x="443" y="96"/>
      <point x="474" y="140" type="qcurve"/>
      <point x="304" y="352" type="line"/>
      <point x="240" y="314"/>
      <point x="166" y="225"/>
    </contour>
    <contour>
      <point x="100" y="174" type="qcurve"/>
      <point x="100" y="232"/>
      <point x="192" y="352"/>
      <point x="272" y="398" type="qcurve"/>
      <point x="225" y="457"/>
      <point x="177" y="559"/>
      <point x="177" y="598" type="qcurve" smooth="yes"/>
      <point x="177" y="655"/>
      <point x="272" y="738"/>
      <point x="338" y="738" type="qcurve" smooth="yes"/>
      <point x="402" y="738"/>
      <point x="494" y="644"/>
      <point x="494" y="578" type="qcurve" smooth="yes"/>
      <point x="494" y="526"/>
      <point x="422" y="425"/>
      <point x="360" y="389" type="qcurve"/>
      <point x="505" y="200" type="line"/>
      <point x="513" y="232"/>
      <point x="522" y="289"/>
      <point x="522" y="314" type="qcurve"/>
      <point x="579" y="314" type="line"/>
      <point x="579" y="262"/>
      <point x="562" y="178"/>
      <point x="545" y="149" type="qcurve"/>
      <point x="662" y="-5" type="line"/>
      <point x="582" y="-5" type="line"/>
      <point x="502" y="89" type="line"/>
      <point x="469" y="41"/>
      <point x="364" y="-13"/>
      <point x="305" y="-13" type="qcurve" smooth="yes"/>
      <point x="220" y="-13"/>
      <point x="100" y="97"/>
    </contour>
  </outline>
</glyph>
<glyph name="quotesingle" format="1">
  <advance width="287"/>
  <unicode hex="0027"/>
  <outline>
    <contour>
      <point x="188" y="664" type="line"/>
      <point x="138" y="664" type="line"/>
      <point x="100" y="875" type="line"/>
      <point x="180" y="875" type="line"/>
    </contour>
  </outline>
</glyph>
<glyph name="parenleft" format="1">
  <advance width="486"/>
  <unicode hex="0028"/>
  <outline>
    <contour>
      <point x="306" y="-220" type="line"/>
      <point x="206" y="-101"/>
      <point x="100" y="201"/>
      <point x="100" y="366" type="qcurve" smooth="yes"/>
      <point x="100" y="505"/>
      <point x="206" y="780"/>
      <point x="306" y="899" type="qcurve"/>
      <point x="386" y="899" type="line"/>
      <point x="280" y="772"/>
      <point x="166" y="498"/>
      <point x="166" y="366" type="qcurve" smooth="yes"/>
      <point x="166" y="209"/>
      <point x="280" y="-93"/>
      <point x="386" y="-220" type="qcurve"/>
    </contour>
  </outline>
</glyph>
<glyph name="parenright" format="1">
  <advance width="466"/>
  <unicode hex="0029"/>
  <outline>
    <contour>
      <point x="100" y="-220" type="line"/>
      <point x="197" y="-104"/>
      <point x="300" y="184"/>
      <point x="300" y="340" type="qcurve" smooth="yes"/>
      <point x="300" y="495"/>
      <point x="197" y="783"/>
      <point x="100" y="899" type="qcurve"/>
      <point x="166" y="899" type="line"/>
      <point x="264" y="783"/>
      <point x="366" y="495"/>
      <point x="366" y="340" type="qcurve" smooth="yes"/>
      <point x="366" y="184"/>
      <point x="264" y="-104"/>
      <point x="166" y="-220" type="qcurve"/>
    </contour>
  </outline>
</glyph>
<glyph name="asterisk" format="1">
  <advance width="559"/>
  <unicode hex="002A"/>
  <outline>
    <contour>
      <point x="210" y="400" type="line"/>
      <point x="150" y="439" type="line"/>
      <point x="250" y="559" type="line"/>
      <point x="97" y="533" type="line"/>
      <point x="90" y="613" type="line"/>
      <point x="243" y="599" type="line"/>
      <point x="157" y="706" type="line"/>
      <point x="230" y="739" type="line"/>
      <point x="276" y="626" type="line"/>
      <point x="330" y="739" type="line"/>
      <point x="396" y="706" type="line"/>
      <point x="316" y="599" type="line"/>
      <point x="470" y="619" type="line"/>
      <point x="470" y="546" type="line"/>
      <point x="316" y="559" type="line"/>
      <point x="430" y="439" type="line"/>
      <point x="356" y="400" type="line"/>
      <point x="290" y="546" type="line"/>
    </contour>
  </outline>
</glyph>
<glyph name="plus" format="1">
  <advance width="872"/>
  <unicode hex="002B"/>
  <outline>
    <contour>
      <point x="393" y="20" type="line"/>
      <point x="393" y="300" type="line"/>
      <point x="100" y="300" type="line"/>
      <point x="100" y="386" type="line"/>
      <point x="393" y="386" type="line"/>
      <point x="393" y="659" type="line"/>
      <point x="479" y="659" type="line"/>
      <point x="479" y="386" type="line"/>
      <point x="772" y="386" type="line"/>
      <point x="772" y="300" type="line"/>
      <point x="479" y="300" type="line"/>
      <point x="479" y="20" type="line"/>
    </contour>
  </outline>
</glyph>
<glyph name="comma" format="1">
  <advance width="359"/>
  <unicode hex="002C"/>
  <outline>
    <contour>
      <point x="100" y="-133" type="line"/>
      <point x="153" y="100" type="line"/>
      <point x="260" y="100" type="line"/>
      <point x="160" y="-133" type="line"/>
    </contour>
  </outline>
</glyph>
<glyph name="period" format="1">
  <advance width="279"/>
  <unicode hex="002E"/>
  <outline>
    <contour>
      <point x="100" y="0" type="line"/>
      <point x="100" y="100" type="line"/>
      <point x="180" y="100" type="line"/>
      <point x="180" y="0" type="line"/>
    </contour>
  </outline>
</glyph>
<glyph name="slash" format="1">
  <advance width="672"/>
  <unicode hex="002F"/>
  <outline>
    <contour>
      <point x="100" y="-180" type="line"/>
      <point x="493" y="886" type="line"/>
      <point x="573" y="886" type="line"/>
      <point x="180" y="-180" type="line"/>
    </contour>
  </outline>
</glyph>
<glyph name="zero" format="1">
  <advance width="633"/>
  <unicode hex="0030"/>
  <outline>
    <contour>
      <point x="136" y="350" type="qcurve"/>
      <point x="136" y="237"/>
      <point x="228" y="71"/>
      <point x="317" y="71" type="qcurve" smooth="yes"/>
      <point x="406" y="71"/>
      <point x="499" y="237"/>
      <point x="499" y="350" type="qcurve" smooth="yes"/>
      <point x="499" y="459"/>
      <point x="405" y="622"/>
      <point x="317" y="622" type="qcurve" smooth="yes"/>
      <point x="229" y="622"/>
      <point x="136" y="459"/>
    </contour>
    <contour>
      <point x="65" y="350" type="qcurve"/>
      <point x="65" y="487"/>
      <point x="201" y="692"/>
      <point x="317" y="692" type="qcurve" smooth="yes"/>
      <point x="433" y="692"/>
      <point x="569" y="487"/>
      <point x="569" y="350" type="qcurve" smooth="yes"/>
      <point x="569" y="209"/>
      <point x="434" y="0"/>
      <point x="317" y="0" type="qcurve" smooth="yes"/>
      <point x="200" y="0"/>
      <point x="65" y="209"/>
    </contour>
  </outline>
</glyph>
<glyph name="one" format="1">
  <advance width="413"/>
  <unicode hex="0031"/>
  <outline>
    <contour>
      <point x="80" y="507" type="line"/>
      <point x="80" y="574" type="line"/>
      <point x="156" y="574"/>
      <point x="273" y="648"/>
      <point x="278" y="714" type="qcurve"/>
      <point x="329" y="714" type="line"/>
      <point x="329" y="0" type="line"/>
      <point x="249" y="0" type="line"/>
      <point x="249" y="507" type="line"/>
    </contour>
  </outline>
</glyph>
<glyph name="two" format="1">
  <advance width="633"/>
  <unicode hex="0032"/>
  <outline>
    <contour>
      <point x="79" y="7" type="line"/>
      <point x="79" y="58"/>
      <point x="113" y="150"/>
      <point x="146" y="192" type="qcurve" smooth="yes"/>
      <point x="179" y="234"/>
      <point x="267" y="307"/>
      <point x="321" y="338" type="qcurve" smooth="yes"/>
      <point x="390" y="378"/>
      <point x="474" y="470"/>
      <point x="474" y="529" type="qcurve" smooth="yes"/>
      <point x="474" y="583"/>
      <point x="382" y="652"/>
      <point x="321" y="652" type="qcurve" smooth="yes"/>
      <point x="257" y="652"/>
      <point x="166" y="563"/>
      <point x="166" y="499" type="qcurve"/>
      <point x="166" y="455" type="line"/>
      <point x="85" y="455" type="line"/>
      <point x="85" y="499" type="line" smooth="yes"/>
      <point x="85" y="594"/>
      <point x="224" y="727"/>
      <point x="321" y="727" type="qcurve" smooth="yes"/>
      <point x="415" y="727"/>
      <point x="555" y="615"/>
      <point x="555" y="529" type="qcurve" smooth="yes"/>
      <point x="555" y="491"/>
      <point x="530" y="422"/>
      <point x="504" y="390" type="qcurve" smooth="yes"/>
      <point x="479" y="359"/>
      <point x="414" y="304"/>
      <point x="373" y="280" type="qcurve"/>
      <point x="277" y="225" type="line" smooth="yes"/>
      <point x="233" y="200"/>
      <point x="181" y="131"/>
      <point x="173" y="88" type="qcurve"/>
      <point x="555" y="88" type="line"/>
      <point x="555" y="7" type="line"/>
    </contour>
  </outline>
</glyph>
<glyph name="three" format="1">
  <advance width="635"/>
  <unicode hex="0033"/>
  <outline>
    <contour>
      <point x="68" y="221" type="qcurve"/>
      <point x="140" y="221" type="line"/>
      <point x="140" y="154"/>
      <point x="245" y="67"/>
      <point x="317" y="67" type="qcurve" smooth="yes"/>
      <point x="385" y="67"/>
      <point x="486" y="150"/>
      <point x="486" y="214" type="qcurve" smooth="yes"/>
      <point x="486" y="270"/>
      <point x="385" y="332"/>
      <point x="317" y="332" type="qcurve"/>
      <point x="250" y="332" type="line"/>
      <point x="250" y="413" type="line"/>
      <point x="317" y="413" type="line" smooth="yes"/>
      <point x="370" y="413"/>
      <point x="449" y="479"/>
      <point x="449" y="530" type="qcurve" smooth="yes"/>
      <point x="449" y="578"/>
      <point x="370" y="639"/>
      <point x="317" y="639" type="qcurve" smooth="yes"/>
      <point x="252" y="639"/>
      <point x="156" y="561"/>
      <point x="156" y="501" type="qcurve"/>
      <point x="75" y="501" type="line"/>
      <point x="75" y="591"/>
      <point x="213" y="714"/>
      <point x="309" y="714" type="qcurve" smooth="yes"/>
      <point x="397" y="714"/>
      <point x="529" y="610"/>
      <point x="529" y="530" type="qcurve" smooth="yes"/>
      <point x="529" y="481"/>
      <point x="487" y="397"/>
      <point x="449" y="374" type="qcurve"/>
      <point x="502" y="360"/>
      <point x="567" y="270"/>
      <point x="567" y="214" type="qcurve" smooth="yes"/>
      <point x="567" y="117"/>
      <point x="419" y="-15"/>
      <point x="317" y="-15" type="qcurve" smooth="yes"/>
      <point x="214" y="-15"/>
      <point x="68" y="123"/>
    </contour>
  </outline>
</glyph>
<glyph name="four" format="1">
  <advance width="635"/>
  <unicode hex="0034"/>
  <outline>
    <contour>
      <point x="164" y="257" type="line"/>
      <point x="384" y="257" type="line"/>
      <point x="384" y="574" type="line"/>
    </contour>
    <contour>
      <point x="76" y="185" type="line"/>
      <point x="76" y="257" type="line"/>
      <point x="384" y="714" type="line"/>
      <point x="465" y="714" type="line"/>
      <point x="465" y="257" type="line"/>
      <point x="559" y="257" type="line"/>
      <point x="559" y="185" type="line"/>
      <point x="465" y="185" type="line"/>
      <point x="465" y="0" type="line"/>
      <point x="384" y="0" type="line"/>
      <point x="384" y="185" type="line"/>
    </contour>
  </outline>
</glyph>
<glyph name="five" format="1">
  <advance width="635"/>
  <unicode hex="0035"/>
  <outline>
    <contour>
      <point x="68" y="221" type="qcurve"/>
      <point x="140" y="221" type="line"/>
      <point x="140" y="160"/>
      <point x="241" y="81"/>
      <point x="309" y="81" type="qcurve" smooth="yes"/>
      <point x="381" y="81"/>
      <point x="486" y="175"/>
      <point x="486" y="244" type="qcurve" smooth="yes"/>
      <point x="486" y="314"/>
      <point x="381" y="412"/>
      <point x="309" y="412" type="qcurve" smooth="yes"/>
      <point x="262" y="412"/>
      <point x="177" y="373"/>
      <point x="148" y="338" type="qcurve"/>
      <point x="68" y="338" type="line"/>
      <point x="140" y="704" type="line"/>
      <point x="515" y="704" type="line"/>
      <point x="515" y="633" type="line"/>
      <point x="206" y="633" type="line"/>
      <point x="177" y="449" type="line"/>
      <point x="198" y="474"/>
      <point x="265" y="493"/>
      <point x="309" y="493" type="qcurve" smooth="yes"/>
      <point x="415" y="493"/>
      <point x="567" y="348"/>
      <point x="567" y="244" type="qcurve" smooth="yes"/>
      <point x="567" y="141"/>
      <point x="414" y="0"/>
      <point x="309" y="0" type="qcurve" smooth="yes"/>
      <point x="210" y="0"/>
      <point x="68" y="128"/>
    </contour>
  </outline>
</glyph>
<glyph name="six" format="1">
  <advance width="635"/>
  <unicode hex="0036"/>
  <outline>
    <contour>
      <point x="162" y="221" type="qcurve"/>
      <point x="162" y="157"/>
      <point x="253" y="67"/>
      <point x="317" y="67" type="qcurve" smooth="yes"/>
      <point x="386" y="67"/>
      <point x="486" y="160"/>
      <point x="486" y="228" type="qcurve" smooth="yes"/>
      <point x="486" y="294"/>
      <point x="386" y="384"/>
      <point x="317" y="384" type="qcurve" smooth="yes"/>
      <point x="252" y="384"/>
      <point x="162" y="288"/>
    </contour>
    <contour>
      <point x="68" y="266" type="qcurve"/>
      <point x="68" y="354" type="line" smooth="yes"/>
      <point x="68" y="498"/>
      <point x="214" y="714"/>
      <point x="338" y="714" type="qcurve" smooth="yes"/>
      <point x="425" y="714"/>
      <point x="551" y="598"/>
      <point x="551" y="514" type="qcurve"/>
      <point x="478" y="514" type="line"/>
      <point x="478" y="567"/>
      <point x="395" y="639"/>
      <point x="338" y="639" type="qcurve" smooth="yes"/>
      <point x="248" y="639"/>
      <point x="148" y="473"/>
      <point x="148" y="361" type="qcurve"/>
      <point x="169" y="406"/>
      <point x="261" y="455"/>
      <point x="317" y="455" type="qcurve" smooth="yes"/>
      <point x="418" y="455"/>
      <point x="567" y="325"/>
      <point x="567" y="228" type="qcurve" smooth="yes"/>
      <point x="567" y="127"/>
      <point x="419" y="-15"/>
      <point x="317" y="-15" type="qcurve" smooth="yes"/>
      <point x="210" y="-15"/>
      <point x="68" y="153"/>
    </contour>
  </outline>
</glyph>
<glyph name="seven" format="1">
  <advance width="635"/>
  <unicode hex="0037"/>
  <outline>
    <contour>
      <point x="53" y="633" type="line"/>
      <point x="53" y="704" type="line"/>
      <point x="582" y="704" type="line"/>
      <point x="582" y="633" type="line"/>
      <point x="442" y="534"/>
      <point x="310" y="198"/>
      <point x="310" y="0" type="qcurve"/>
      <point x="216" y="0" type="line"/>
      <point x="216" y="190"/>
      <point x="341" y="523"/>
      <point x="471" y="633" type="qcurve"/>
    </contour>
  </outline>
</glyph>
<glyph name="eight" format="1">
  <advance width="635"/>
  <unicode hex="0038"/>
  <outline>
    <contour>
      <point x="310" y="639" type="qcurve"/>
      <point x="252" y="639"/>
      <point x="164" y="581"/>
      <point x="164" y="530" type="qcurve" smooth="yes"/>
      <point x="164" y="479"/>
      <point x="252" y="419"/>
      <point x="310" y="419" type="qcurve" smooth="yes"/>
      <point x="373" y="419"/>
      <point x="465" y="478"/>
      <point x="465" y="530" type="qcurve" smooth="yes"/>
      <point x="465" y="582"/>
      <point x="373" y="639"/>
    </contour>
    <contour>
      <point x="128" y="214" type="qcurve"/>
      <point x="128" y="149"/>
      <point x="237" y="67"/>
      <point x="310" y="67" type="qcurve" smooth="yes"/>
      <point x="386" y="67"/>
      <point x="501" y="148"/>
      <point x="501" y="214" type="qcurve" smooth="yes"/>
      <point x="501" y="277"/>
      <point x="387" y="345"/>
      <point x="310" y="345" type="qcurve" smooth="yes"/>
      <point x="237" y="345"/>
      <point x="128" y="276"/>
    </contour>
    <contour>
      <point x="53" y="214" type="qcurve"/>
      <point x="53" y="272"/>
      <point x="130" y="362"/>
      <point x="190" y="384" type="qcurve"/>
      <point x="142" y="411"/>
      <point x="83" y="485"/>
      <point x="83" y="530" type="qcurve" smooth="yes"/>
      <point x="83" y="611"/>
      <point x="218" y="714"/>
      <point x="310" y="714" type="qcurve" smooth="yes"/>
      <point x="405" y="714"/>
      <point x="546" y="613"/>
      <point x="546" y="530" type="qcurve" smooth="yes"/>
      <point x="546" y="485"/>
      <point x="490" y="410"/>
      <point x="445" y="384" type="qcurve"/>
      <point x="505" y="362"/>
      <point x="582" y="272"/>
      <point x="582" y="214" type="qcurve" smooth="yes"/>
      <point x="582" y="115"/>
      <point x="419" y="-15"/>
      <point x="310" y="-15" type="qcurve" smooth="yes"/>
      <point x="206" y="-15"/>
      <point x="53" y="116"/>
    </contour>
  </outline>
</glyph>
<glyph name="nine" format="1">
  <advance width="635"/>
  <unicode hex="0039"/>
  <outline>
    <contour>
      <point x="310" y="639" type="qcurve"/>
      <point x="246" y="639"/>
      <point x="157" y="549"/>
      <point x="157" y="485" type="qcurve" smooth="yes"/>
      <point x="157" y="421"/>
      <point x="246" y="332"/>
      <point x="310" y="332" type="qcurve" smooth="yes"/>
      <point x="377" y="332"/>
      <point x="471" y="421"/>
      <point x="471" y="485" type="qcurve" smooth="yes"/>
      <point x="471" y="550"/>
      <point x="377" y="639"/>
    </contour>
    <contour>
      <point x="76" y="485" type="qcurve"/>
      <point x="76" y="581"/>
      <point x="213" y="714"/>
      <point x="310" y="714" type="qcurve" smooth="yes"/>
      <point x="415" y="714"/>
      <point x="559" y="553"/>
      <point x="559" y="442" type="qcurve"/>
      <point x="559" y="354" type="line" smooth="yes"/>
      <point x="559" y="186"/>
      <point x="419" y="-15"/>
      <point x="304" y="-15" type="qcurve" smooth="yes"/>
      <point x="218" y="-15"/>
      <point x="99" y="107"/>
      <point x="99" y="192" type="qcurve"/>
      <point x="178" y="192" type="line"/>
      <point x="178" y="140"/>
      <point x="252" y="67"/>
      <point x="304" y="67" type="qcurve" smooth="yes"/>
      <point x="380" y="67"/>
      <point x="471" y="212"/>
      <point x="471" y="332" type="qcurve"/>
      <point x="439" y="300"/>
      <point x="356" y="266"/>
      <point x="310" y="266" type="qcurve" smooth="yes"/>
      <point x="214" y="266"/>
      <point x="76" y="393"/>
    </contour>
  </outline>
</glyph>
<glyph name="colon" format="1">
  <advance width="279"/>
  <unicode hex="003A"/>
  <outline>
    <contour>
      <point x="100" y="386" type="line"/>
      <point x="100" y="486" type="line"/>
      <point x="180" y="486" type="line"/>
      <point x="180" y="386" type="line"/>
    </contour>
    <contour>
      <point x="100" y="0" type="line"/>
      <point x="100" y="100" type="line"/>
      <point x="180" y="100" type="line"/>
      <point x="180" y="0" type="line"/>
    </contour>
  </outline>
</glyph>
<glyph name="semicolon" format="1">
  <advance width="366"/>
  <unicode hex="003B"/>
  <outline>
    <contour>
      <point x="160" y="353" type="line"/>
      <point x="160" y="426" type="line"/>
      <point x="253" y="426" type="line"/>
      <point x="253" y="353" type="line"/>
    </contour>
    <contour>
      <point x="100" y="-133" type="line"/>
      <point x="160" y="100" type="line"/>
      <point x="266" y="100" type="line"/>
      <point x="160" y="-133" type="line"/>
    </contour>
  </outline>
</glyph>
<glyph name="less" format="1">
  <advance width="661"/>
  <unicode hex="003C"/>
  <outline>
    <contour>
      <point x="100" y="290" type="line"/>
      <point x="100" y="369" type="line"/>
      <point x="562" y="644" type="line"/>
      <point x="562" y="573" type="line"/>
      <point x="165" y="333" type="line"/>
      <point x="562" y="93" type="line"/>
      <point x="562" y="19" type="line"/>
    </contour>
  </outline>
</glyph>
<glyph name="equal" format="1">
  <advance width="798"/>
  <unicode hex="003D"/>
  <outline>
    <contour>
      <point x="100" y="366" type="line"/>
      <point x="100" y="433" type="line"/>
      <point x="699" y="433" type="line"/>
      <point x="699" y="366" type="line"/>
    </contour>
    <contour>
      <point x="100" y="153" type="line"/>
      <point x="100" y="220" type="line"/>
      <point x="699" y="220" type="line"/>
      <point x="699" y="153" type="line"/>
    </contour>
  </outline>
</glyph>
<glyph name="greater" format="1">
  <advance width="661"/>
  <unicode hex="003E"/>
  <outline>
    <contour>
      <point x="562" y="290" type="line"/>
      <point x="100" y="19" type="line"/>
      <point x="100" y="93" type="line"/>
      <point x="497" y="333" type="line"/>
      <point x="100" y="573" type="line"/>
      <point x="100" y="644" type="line"/>
      <point x="562" y="369" type="line"/>
    </contour>
  </outline>
</glyph>
<glyph name="question" format="1">
  <advance width="665"/>
  <unicode hex="003F"/>
  <outline>
    <contour>
      <point x="246" y="166" type="line"/>
      <point x="246" y="373" type="line"/>
      <point x="358" y="403"/>
      <point x="499" y="522"/>
      <point x="499" y="586" type="qcurve" smooth="yes"/>
      <point x="499" y="643"/>
      <point x="394" y="726"/>
      <point x="320" y="726" type="qcurve" smooth="yes"/>
      <point x="274" y="726"/>
      <point x="181" y="680"/>
      <point x="140" y="639" type="qcurve"/>
      <point x="100" y="692" type="line"/>
      <point x="148" y="740"/>
      <point x="262" y="792"/>
      <point x="320" y="792" type="qcurve" smooth="yes"/>
      <point x="422" y="792"/>
      <point x="566" y="671"/>
      <point x="566" y="586" type="qcurve" smooth="yes"/>
      <point x="566" y="510"/>
      <point x="427" y="368"/>
      <point x="313" y="326" type="qcurve"/>
      <point x="313" y="166" type="line"/>
    </contour>
    <contour>
      <point x="233" y="0" type="line"/>
      <point x="233" y="87" type="line"/>
      <point x="326" y="87" type="line"/>
      <point x="326" y="0" type="line"/>
    </contour>
  </outline>
</glyph>
<glyph name="at" format="1">
  <advance width="1043"/>
  <unicode hex="0040"/>
  <outline>
    <contour>
      <point x="382" y="320" type="qcurve"/>
      <point x="382" y="265"/>
      <point x="451" y="185"/>
      <point x="502" y="185" type="qcurve" smooth="yes"/>
      <point x="553" y="185"/>
      <point x="622" y="265"/>
      <point x="622" y="320" type="qcurve" smooth="yes"/>
      <point x="622" y="374"/>
      <point x="553" y="453"/>
      <point x="502" y="453" type="qcurve" smooth="yes"/>
      <point x="451" y="453"/>
      <point x="382" y="374"/>
    </contour>
    <contour>
      <point x="317" y="320" type="qcurve"/>
      <point x="317" y="398"/>
      <point x="425" y="511"/>
      <point x="502" y="511" type="qcurve" smooth="yes"/>
      <point x="537" y="511"/>
      <point x="599" y="483"/>
      <point x="622" y="457" type="qcurve"/>
      <point x="622" y="505" type="line"/>
      <point x="688" y="505" type="line"/>
      <point x="688" y="208" type="line" smooth="yes"/>
      <point x="688" y="188"/>
      <point x="723" y="158"/>
      <point x="748" y="158" type="qcurve" smooth="yes"/>
      <point x="803" y="158"/>
      <point x="880" y="266"/>
      <point x="880" y="344" type="qcurve" smooth="yes"/>
      <point x="880" y="475"/>
      <point x="678" y="662"/>
      <point x="535" y="662" type="qcurve" smooth="yes"/>
      <point x="381" y="662"/>
      <point x="162" y="458"/>
      <point x="162" y="314" type="qcurve" smooth="yes"/>
      <point x="162" y="184"/>
      <point x="381" y="0"/>
      <point x="535" y="0" type="qcurve" smooth="yes"/>
      <point x="595" y="0"/>
      <point x="700" y="32"/>
      <point x="740" y="63" type="qcurve"/>
      <point x="772" y="8" type="line"/>
      <point x="722" y="-27"/>
      <point x="601" y="-64"/>
      <point x="535" y="-64" type="qcurve" smooth="yes"/>
      <point x="356" y="-64"/>
      <point x="100" y="157"/>
      <point x="100" y="314" type="qcurve" smooth="yes"/>
      <point x="100" y="483"/>
      <point x="356" y="723"/>
      <point x="535" y="723" type="qcurve" smooth="yes"/>
      <point x="704" y="723"/>
      <point x="944" y="501"/>
      <point x="944" y="344" type="qcurve" smooth="yes"/>
      <point x="944" y="241"/>
      <point x="830" y="95"/>
      <point x="748" y="95" type="qcurve" smooth="yes"/>
      <point x="702" y="95"/>
      <point x="631" y="144"/>
      <point x="625" y="182" type="qcurve"/>
      <point x="607" y="152"/>
      <point x="541" y="119"/>
      <point x="502" y="119" type="qcurve" smooth="yes"/>
      <point x="423" y="119"/>
      <point x="317" y="237"/>
    </contour>
  </outline>
</glyph>
<glyph name="A" format="1">
  <advance width="519"/>
  <unicode hex="0041"/>
  <outline>
    <contour>
      <point x="403" y="256" type="line"/>
      <point x="116" y="256" type="line"/>
      <point x="116" y="196" type="line"/>
      <point x="403" y="196" type="line"/>
    </contour>
    <contour>
      <point x="210" y="666" type="line"/>
      <point x="10" y="0" type="line"/>
      <point x="76" y="0" type="line"/>
      <point x="269" y="645" type="line"/>
      <point x="250" y="645" type="line"/>
      <point x="443" y="0" type="line"/>
      <point x="509" y="0" type="line"/>
      <point x="309" y="666" type="line"/>
    </contour>
  </outline>
</glyph>
<glyph name="B" format="1">
  <advance width="585"/>
  <unicode hex="0042"/>
  <outline>
    <contour>
      <point x="100" y="666" type="line"/>
      <point x="100" y="0" type="line"/>
      <point x="166" y="0" type="line"/>
      <point x="166" y="666" type="line"/>
    </contour>
    <contour>
      <point x="515" y="188" type="curve" smooth="yes"/>
      <point x="515" y="293"/>
      <point x="434" y="361"/>
      <point x="307" y="361" type="curve" smooth="yes"/>
      <point x="166" y="361" type="line"/>
      <point x="166" y="316" type="line"/>
      <point x="307" y="316" type="line" smooth="yes"/>
      <point x="393" y="316"/>
      <point x="447" y="265"/>
      <point x="447" y="188" type="curve" smooth="yes"/>
      <point x="447" y="111"/>
      <point x="393" y="60"/>
      <point x="307" y="60" type="curve" smooth="yes"/>
      <point x="166" y="60" type="line"/>
      <point x="166" y="0" type="line"/>
      <point x="307" y="0" type="line" smooth="yes"/>
      <point x="434" y="0"/>
      <point x="515" y="74"/>
    </contour>
    <contour>
      <point x="495" y="491" type="curve" smooth="yes"/>
      <point x="495" y="597"/>
      <point x="414" y="666"/>
      <point x="287" y="666" type="curve" smooth="yes"/>
      <point x="166" y="666" type="line"/>
      <point x="166" y="606" type="line"/>
      <point x="287" y="606" type="line" smooth="yes"/>
      <point x="373" y="606"/>
      <point x="427" y="560"/>
      <point x="427" y="491" type="curve" smooth="yes"/>
      <point x="427" y="422"/>
      <point x="373" y="376"/>
      <point x="287" y="376" type="curve" smooth="yes"/>
      <point x="166" y="376" type="line"/>
      <point x="166" y="331" type="line"/>
      <point x="287" y="331" type="line" smooth="yes"/>
      <point x="414" y="331"/>
      <point x="495" y="394"/>
    </contour>
  </outline>
</glyph>
<glyph name="C" format="1">
  <advance width="536"/>
  <unicode hex="0043"/>
  <outline>
    <contour>
      <point x="306" y="617" type="curve" smooth="yes"/>
      <point x="370" y="617"/>
      <point x="422" y="590"/>
      <point x="455" y="541" type="curve"/>
      <point x="506" y="577" type="line"/>
      <point x="460" y="643"/>
      <point x="391" y="679"/>
      <point x="305" y="679" type="curve" smooth="yes"/>
      <point x="155" y="679"/>
      <point x="60" y="543"/>
      <point x="60" y="333" type="curve" smooth="yes"/>
      <point x="60" y="123"/>
      <point x="155" y="-13"/>
      <point x="305" y="-13" type="curve" smooth="yes"/>
      <point x="395" y="-13"/>
      <point x="468" y="28"/>
      <point x="516" y="102" type="curve"/>
      <point x="465" y="138" type="line"/>
      <point x="430" y="81"/>
      <point x="374" y="49"/>
      <point x="306" y="49" type="curve" smooth="yes"/>
      <point x="198" y="49"/>
      <point x="128" y="161"/>
      <point x="128" y="333" type="curve" smooth="yes"/>
      <point x="128" y="505"/>
      <point x="198" y="617"/>
    </contour>
  </outline>
</glyph>
<glyph name="D" format="1">
  <advance width="625"/>
  <unicode hex="0044"/>
  <outline>
    <contour>
      <point x="166" y="0" type="line"/>
      <point x="166" y="666" type="line"/>
      <point x="100" y="666" type="line"/>
      <point x="100" y="0" type="line"/>
    </contour>
    <contour>
      <point x="565" y="333" type="curve" smooth="yes"/>
      <point x="565" y="535"/>
      <point x="464" y="666"/>
      <point x="307" y="666" type="curve" smooth="yes"/>
      <point x="166" y="666" type="line"/>
      <point x="166" y="606" type="line"/>
      <point x="307" y="606" type="line" smooth="yes"/>
      <point x="423" y="606"/>
      <point x="497" y="498"/>
      <point x="497" y="333" type="curve" smooth="yes"/>
      <point x="497" y="168"/>
      <point x="423" y="60"/>
      <point x="307" y="60" type="curve" smooth="yes"/>
      <point x="166" y="60" type="line"/>
      <point x="166" y="0" type="line"/>
      <point x="307" y="0" type="line" smooth="yes"/>
      <point x="464" y="0"/>
      <point x="565" y="131"/>
    </contour>
  </outline>
</glyph>
<glyph name="E" format="1">
  <advance width="514"/>
  <unicode hex="0045"/>
  <outline>
    <contour>
      <point x="166" y="0" type="line"/>
      <point x="166" y="316" type="line"/>
      <point x="433" y="316" type="line"/>
      <point x="433" y="376" type="line"/>
      <point x="166" y="376" type="line"/>
      <point x="166" y="666" type="line"/>
      <point x="100" y="666" type="line"/>
      <point x="100" y="0" type="line"/>
    </contour>
    <contour>
      <point x="166" y="606" type="line"/>
      <point x="454" y="606" type="line"/>
      <point x="454" y="666" type="line"/>
      <point x="166" y="666" type="line"/>
    </contour>
    <contour>
      <point x="166" y="0" type="line"/>
      <point x="464" y="0" type="line"/>
      <point x="464" y="60" type="line"/>
      <point x="166" y="60" type="line"/>
    </contour>
  </outline>
</glyph>
<glyph name="F" format="1">
  <advance width="474"/>
  <unicode hex="0046"/>
  <outline>
    <contour>
      <point x="166" y="0" type="line"/>
      <point x="166" y="316" type="line"/>
      <point x="413" y="316" type="line"/>
      <point x="413" y="376" type="line"/>
      <point x="166" y="376" type="line"/>
      <point x="166" y="666" type="line"/>
      <point x="100" y="666" type="line"/>
      <point x="100" y="0" type="line"/>
    </contour>
    <contour>
      <point x="166" y="606" type="line"/>
      <point x="434" y="606" type="line"/>
      <point x="434" y="666" type="line"/>
      <point x="166" y="666" type="line"/>
    </contour>
  </outline>
</glyph>
<glyph name="G" format="1">
  <advance width="602"/>
  <unicode hex="0047"/>
  <outline>
    <contour>
      <point x="305" y="-13" type="curve" smooth="yes"/>
      <point x="407" y="-13"/>
      <point x="458" y="42"/>
      <point x="503" y="144" type="curve"/>
      <point x="459" y="160" type="line"/>
      <point x="429" y="94"/>
      <point x="380" y="49"/>
      <point x="306" y="49" type="curve" smooth="yes"/>
      <point x="198" y="49"/>
      <point x="128" y="161"/>
      <point x="128" y="333" type="curve" smooth="yes"/>
      <point x="128" y="505"/>
      <point x="202" y="617"/>
      <point x="317" y="617" type="curve" smooth="yes"/>
      <point x="379" y="617"/>
      <point x="429" y="595"/>
      <point x="462" y="555" type="curve"/>
      <point x="513" y="591" type="line"/>
      <point x="468" y="648"/>
      <point x="400" y="679"/>
      <point x="316" y="679" type="curve" smooth="yes"/>
      <point x="159" y="679"/>
      <point x="60" y="543"/>
      <point x="60" y="333" type="curve" smooth="yes"/>
      <point x="60" y="123"/>
      <point x="155" y="-13"/>
    </contour>
    <contour>
      <point x="517" y="325" type="line"/>
      <point x="298" y="325" type="line"/>
      <point x="298" y="265" type="line"/>
      <point x="451" y="265" type="line"/>
      <point x="451" y="103" type="line"/>
      <point x="456" y="92" type="line"/>
      <point x="456" y="0" type="line"/>
      <point x="517" y="0" type="line"/>
    </contour>
  </outline>
</glyph>
<glyph name="H" format="1">
  <advance width="619"/>
  <unicode hex="0048"/>
  <outline>
    <contour>
      <point x="166" y="0" type="line"/>
      <point x="166" y="303" type="line"/>
      <point x="453" y="303" type="line"/>
      <point x="453" y="0" type="line"/>
      <point x="519" y="0" type="line"/>
      <point x="519" y="666" type="line"/>
      <point x="453" y="666" type="line"/>
      <point x="453" y="363" type="line"/>
      <point x="166" y="363" type="line"/>
      <point x="166" y="666" type="line"/>
      <point x="100" y="666" type="line"/>
      <point x="100" y="0" type="line"/>
    </contour>
  </outline>
</glyph>
<glyph name="J" format="1">
  <advance width="401"/>
  <unicode hex="004A"/>
  <outline>
    <contour>
      <point x="161" y="-13" type="curve" smooth="yes"/>
      <point x="260" y="-13"/>
      <point x="316" y="55"/>
      <point x="316" y="167" type="curve" smooth="yes"/>
      <point x="316" y="666" type="line"/>
      <point x="250" y="666" type="line"/>
      <point x="250" y="167" type="line" smooth="yes"/>
      <point x="250" y="95"/>
      <point x="221" y="49"/>
      <point x="161" y="49" type="curve" smooth="yes"/>
      <point x="105" y="49"/>
      <point x="72" y="89"/>
      <point x="54" y="132" type="curve"/>
      <point x="0" y="98" type="line"/>
      <point x="35" y="27"/>
      <point x="87" y="-13"/>
    </contour>
  </outline>
</glyph>
<glyph name="K" format="1">
  <advance width="521"/>
  <unicode hex="004B"/>
  <outline>
    <contour>
      <point x="166" y="0" type="line"/>
      <point x="166" y="666" type="line"/>
      <point x="100" y="666" type="line"/>
      <point x="100" y="0" type="line"/>
    </contour>
    <contour>
      <point x="210" y="320" type="line"/>
      <point x="444" y="0" type="line"/>
      <point x="521" y="0" type="line"/>
      <point x="244" y="381" type="line"/>
    </contour>
    <contour>
      <point x="162" y="257" type="line"/>
      <point x="505" y="666" type="line"/>
      <point x="425" y="666" type="line"/>
      <point x="112" y="290" type="line"/>
    </contour>
  </outline>
</glyph>
<glyph name="L" format="1">
  <advance width="419"/>
  <unicode hex="004C"/>
  <outline>
    <contour>
      <point x="166" y="0" type="line"/>
      <point x="166" y="666" type="line"/>
      <point x="100" y="666" type="line"/>
      <point x="100" y="0" type="line"/>
    </contour>
    <contour>
      <point x="166" y="0" type="line"/>
      <point x="414" y="0" type="line"/>
      <point x="414" y="60" type="line"/>
      <point x="166" y="60" type="line"/>
    </contour>
  </outline>
</glyph>
<glyph name="M" format="1">
  <advance width="776"/>
  <unicode hex="004D"/>
  <outline>
    <contour>
      <point x="427" y="50" type="line"/>
      <point x="625" y="643" type="line"/>
      <point x="610" y="643" type="line"/>
      <point x="610" y="0" type="line"/>
      <point x="676" y="0" type="line"/>
      <point x="676" y="666" type="line"/>
      <point x="571" y="666" type="line"/>
      <point x="373" y="73" type="line"/>
      <point x="403" y="73" type="line"/>
      <point x="205" y="666" type="line"/>
      <point x="100" y="666" type="line"/>
      <point x="100" y="0" type="line"/>
      <point x="166" y="0" type="line"/>
      <point x="166" y="643" type="line"/>
      <point x="151" y="643" type="line"/>
      <point x="349" y="50" type="line"/>
    </contour>
  </outline>
</glyph>
<glyph name="N" format="1">
  <advance width="639"/>
  <unicode hex="004E"/>
  <outline>
    <contour>
      <point x="200" y="666" type="line"/>
      <point x="100" y="666" type="line"/>
      <point x="100" y="0" type="line"/>
      <point x="166" y="0" type="line"/>
      <point x="166" y="643" type="line"/>
      <point x="146" y="643" type="line"/>
      <point x="439" y="0" type="line"/>
      <point x="539" y="0" type="line"/>
      <point x="539" y="666" type="line"/>
      <point x="473" y="666" type="line"/>
      <point x="473" y="23" type="line"/>
      <point x="493" y="23" type="line"/>
    </contour>
  </outline>
</glyph>
<glyph name="O" format="1">
  <advance width="635"/>
  <unicode hex="004F"/>
  <outline>
    <contour>
      <point x="60" y="333" type="curve" smooth="yes"/>
      <point x="60" y="123"/>
      <point x="152" y="-13"/>
      <point x="317" y="-13" type="curve" smooth="yes"/>
      <point x="482" y="-13"/>
      <point x="575" y="123"/>
      <point x="575" y="333" type="curve" smooth="yes"/>
      <point x="575" y="543"/>
      <point x="482" y="679"/>
      <point x="317" y="679" type="curve" smooth="yes"/>
      <point x="152" y="679"/>
      <point x="60" y="543"/>
    </contour>
    <contour>
      <point x="128" y="333" type="curve" smooth="yes"/>
      <point x="128" y="505"/>
      <point x="196" y="617"/>
      <point x="317" y="617" type="curve" smooth="yes"/>
      <point x="439" y="617"/>
      <point x="507" y="505"/>
      <point x="507" y="333" type="curve" smooth="yes"/>
      <point x="507" y="161"/>
      <point x="439" y="49"/>
      <point x="317" y="49" type="curve" smooth="yes"/>
      <point x="196" y="49"/>
      <point x="128" y="161"/>
    </contour>
  </outline>
</glyph>
<glyph name="P" format="1">
  <advance width="530"/>
  <unicode hex="0050"/>
  <outline>
    <contour>
      <point x="166" y="0" type="line"/>
      <point x="166" y="666" type="line"/>
      <point x="100" y="666" type="line"/>
      <point x="100" y="0" type="line"/>
    </contour>
    <contour>
      <point x="500" y="458" type="curve" smooth="yes"/>
      <point x="500" y="584"/>
      <point x="413" y="666"/>
      <point x="277" y="666" type="curve" smooth="yes"/>
      <point x="166" y="666" type="line"/>
      <point x="166" y="606" type="line"/>
      <point x="277" y="606" type="line" smooth="yes"/>
      <point x="372" y="606"/>
      <point x="432" y="547"/>
      <point x="432" y="458" type="curve" smooth="yes"/>
      <point x="432" y="369"/>
      <point x="372" y="310"/>
      <point x="277" y="310" type="curve" smooth="yes"/>
      <point x="166" y="310" type="line"/>
      <point x="166" y="250" type="line"/>
      <point x="277" y="250" type="line" smooth="yes"/>
      <point x="413" y="250"/>
      <point x="500" y="332"/>
    </contour>
  </outline>
</glyph>
<glyph name="Q" format="1">
  <advance width="635"/>
  <unicode hex="0051"/>
  <outline>
    <contour>
      <point x="290" y="-9" type="line"/>
      <point x="576" y="-158" type="line"/>
      <point x="604" y="-105" type="line"/>
      <point x="318" y="44" type="line"/>
    </contour>
    <component base="O"/>
  </outline>
</glyph>
<glyph name="R" format="1">
  <advance width="580"/>
  <unicode hex="0052"/>
  <outline>
    <contour>
      <point x="166" y="0" type="line"/>
      <point x="166" y="666" type="line"/>
      <point x="100" y="666" type="line"/>
      <point x="100" y="0" type="line"/>
    </contour>
    <contour>
      <point x="500" y="468" type="curve" smooth="yes"/>
      <point x="500" y="588"/>
      <point x="413" y="666"/>
      <point x="277" y="666" type="curve" smooth="yes"/>
      <point x="166" y="666" type="line"/>
      <point x="166" y="606" type="line"/>
      <point x="277" y="606" type="line" smooth="yes"/>
      <point x="372" y="606"/>
      <point x="432" y="551"/>
      <point x="432" y="468" type="curve" smooth="yes"/>
      <point x="432" y="385"/>
      <point x="372" y="330"/>
      <point x="277" y="330" type="curve" smooth="yes"/>
      <point x="166" y="330" type="line"/>
      <point x="166" y="270" type="line"/>
      <point x="277" y="270" type="line" smooth="yes"/>
      <point x="413" y="270"/>
      <point x="500" y="348"/>
    </contour>
    <contour>
      <point x="270" y="297" type="line"/>
      <point x="437" y="0" type="line"/>
      <point x="510" y="0" type="line"/>
      <point x="343" y="297" type="line"/>
    </contour>
  </outline>
</glyph>
<glyph name="S" format="1">
  <advance width="518"/>
  <unicode hex="0053"/>
  <outline>
    <contour>
      <point x="400" y="157" type="curve" smooth="yes"/>
      <point x="400" y="91"/>
      <point x="345" y="47"/>
      <point x="259" y="47" type="curve" smooth="yes"/>
      <point x="191" y="47"/>
      <point x="136" y="81"/>
      <point x="101" y="138" type="curve"/>
      <point x="50" y="102" type="line"/>
      <point x="96" y="28"/>
      <point x="168" y="-13"/>
      <point x="259" y="-13" type="curve" smooth="yes"/>
      <point x="387" y="-13"/>
      <point x="468" y="54"/>
      <point x="468" y="157" type="curve" smooth="yes"/>
      <point x="468" y="394"/>
      <point x="130" y="331"/>
      <point x="130" y="498" type="curve" smooth="yes"/>
      <point x="130" y="571"/>
      <point x="182" y="619"/>
      <point x="264" y="619" type="curve" smooth="yes"/>
      <point x="325" y="619"/>
      <point x="374" y="592"/>
      <point x="406" y="546" type="curve"/>
      <point x="457" y="582" type="line"/>
      <point x="414" y="644"/>
      <point x="348" y="679"/>
      <point x="264" y="679" type="curve" smooth="yes"/>
      <point x="140" y="679"/>
      <point x="62" y="608"/>
      <point x="62" y="498" type="curve" smooth="yes"/>
      <point x="62" y="278"/>
      <point x="400" y="330"/>
    </contour>
  </outline>
</glyph>
<glyph name="T" format="1">
  <advance width="407"/>
  <unicode hex="0054"/>
  <outline>
    <contour>
      <point x="236" y="666" type="line"/>
      <point x="170" y="666" type="line"/>
      <point x="170" y="0" type="line"/>
      <point x="236" y="0" type="line"/>
    </contour>
    <contour>
      <point x="397" y="666" type="line"/>
      <point x="10" y="666" type="line"/>
      <point x="10" y="606" type="line"/>
      <point x="397" y="606" type="line"/>
    </contour>
  </outline>
</glyph>
<glyph name="U" format="1">
  <advance width="614"/>
  <unicode hex="0055"/>
  <outline>
    <contour>
      <point x="307" y="49" type="curve" smooth="yes"/>
      <point x="213" y="49"/>
      <point x="151" y="115"/>
      <point x="151" y="216" type="curve" smooth="yes"/>
      <point x="151" y="666" type="line"/>
      <point x="85" y="666" type="line"/>
      <point x="85" y="216" type="line" smooth="yes"/>
      <point x="85" y="74"/>
      <point x="174" y="-13"/>
      <point x="307" y="-13" type="curve" smooth="yes"/>
      <point x="440" y="-13"/>
      <point x="529" y="74"/>
      <point x="529" y="216" type="curve" smooth="yes"/>
      <point x="529" y="666" type="line"/>
      <point x="463" y="666" type="line"/>
      <point x="463" y="216" type="line" smooth="yes"/>
      <point x="463" y="115"/>
      <point x="401" y="49"/>
    </contour>
  </outline>
</glyph>
<glyph name="V" format="1">
  <advance width="509"/>
  <unicode hex="0056"/>
  <outline>
    <contour>
      <point x="304" y="0" type="line"/>
      <point x="499" y="666" type="line"/>
      <point x="433" y="666" type="line"/>
      <point x="245" y="21" type="line"/>
      <point x="264" y="21" type="line"/>
      <point x="76" y="666" type="line"/>
      <point x="10" y="666" type="line"/>
      <point x="205" y="0" type="line"/>
    </contour>
  </outline>
</glyph>
<glyph name="W" format="1">
  <advance width="809"/>
  <unicode hex="0057"/>
  <outline>
    <contour>
      <point x="371" y="666" type="line"/>
      <point x="225" y="21" type="line"/>
      <point x="244" y="21" type="line"/>
      <point x="76" y="666" type="line"/>
      <point x="10" y="666" type="line"/>
      <point x="185" y="0" type="line"/>
      <point x="279" y="0" type="line"/>
      <point x="419" y="636" type="line"/>
      <point x="390" y="636" type="line"/>
      <point x="530" y="0" type="line"/>
      <point x="624" y="0" type="line"/>
      <point x="799" y="666" type="line"/>
      <point x="733" y="666" type="line"/>
      <point x="565" y="21" type="line"/>
      <point x="584" y="21" type="line"/>
      <point x="438" y="666" type="line"/>
    </contour>
  </outline>
</glyph>
<glyph name="X" format="1">
  <advance width="507"/>
  <unicode hex="0058"/>
  <outline>
    <contour>
      <point x="30" y="666" type="line"/>
      <point x="409" y="0" type="line"/>
      <point x="482" y="0" type="line"/>
      <point x="103" y="666" type="line"/>
    </contour>
    <contour>
      <point x="229" y="363" type="line"/>
      <point x="25" y="0" type="line"/>
      <point x="98" y="0" type="line"/>
      <point x="265" y="297" type="line"/>
    </contour>
    <contour>
      <point x="270" y="297" type="line"/>
      <point x="477" y="666" type="line"/>
      <point x="404" y="666" type="line"/>
      <point x="234" y="363" type="line"/>
    </contour>
  </outline>
</glyph>
<glyph name="Y" format="1">
  <advance width="449"/>
  <unicode hex="0059"/>
  <outline>
    <contour>
      <point x="258" y="302" type="line"/>
      <point x="192" y="302" type="line"/>
      <point x="192" y="0" type="line"/>
      <point x="258" y="0" type="line"/>
    </contour>
    <contour>
      <point x="250" y="232" type="line"/>
      <point x="444" y="666" type="line"/>
      <point x="375" y="666" type="line"/>
      <point x="215" y="302" type="line"/>
      <point x="234" y="302" type="line"/>
      <point x="74" y="666" type="line"/>
      <point x="5" y="666" type="line"/>
      <point x="199" y="232" type="line"/>
    </contour>
  </outline>
</glyph>
<glyph name="Z" format="1">
  <advance width="505"/>
  <unicode hex="005A"/>
  <outline>
    <contour>
      <point x="118" y="40" type="line"/>
      <point x="463" y="626" type="line"/>
      <point x="390" y="626" type="line"/>
      <point x="45" y="40" type="line"/>
    </contour>
    <contour>
      <point x="463" y="666" type="line"/>
      <point x="65" y="666" type="line"/>
      <point x="65" y="606" type="line"/>
      <point x="431" y="606" type="line"/>
      <point x="463" y="626" type="line"/>
    </contour>
    <contour>
      <point x="452" y="60" type="line"/>
      <point x="75" y="60" type="line"/>
      <point x="45" y="40" type="line"/>
      <point x="45" y="0" type="line"/>
      <point x="452" y="0" type="line"/>
    </contour>
  </outline>
</glyph>
<glyph name="bracketleft" format="1">
  <advance width="392"/>
  <unicode hex="005B"/>
  <outline>
    <contour>
      <point x="100" y="-266" type="line"/>
      <point x="100" y="945" type="line"/>
      <point x="293" y="945" type="line"/>
      <point x="293" y="872" type="line"/>
      <point x="166" y="872" type="line"/>
      <point x="166" y="-193" type="line"/>
      <point x="293" y="-193" type="line"/>
      <point x="293" y="-266" type="line"/>
    </contour>
  </outline>
</glyph>
<glyph name="backslash" format="1">
  <advance width="605"/>
  <unicode hex="005C"/>
  <outline>
    <contour>
      <point x="506" y="-129" type="line"/>
      <point x="438" y="-129" type="line"/>
      <point x="100" y="812" type="line"/>
      <point x="168" y="812" type="line"/>
    </contour>
  </outline>
</glyph>
<glyph name="bracketright" format="1">
  <advance width="392"/>
  <unicode hex="005D"/>
  <outline>
    <contour>
      <point x="100" y="-266" type="line"/>
      <point x="100" y="-193" type="line"/>
      <point x="220" y="-193" type="line"/>
      <point x="220" y="872" type="line"/>
      <point x="100" y="872" type="line"/>
      <point x="100" y="945" type="line"/>
      <point x="293" y="945" type="line"/>
      <point x="293" y="-266" type="line"/>
    </contour>
  </outline>
</glyph>
<glyph name="asciicircum" format="1">
  <advance width="671"/>
  <unicode hex="005E"/>
  <outline>
    <contour>
      <point x="290" y="481" type="line"/>
      <point x="377" y="481" type="line"/>
      <point x="571" y="138" type="line"/>
      <point x="493" y="138" type="line"/>
      <point x="336" y="423" type="line"/>
      <point x="178" y="138" type="line"/>
      <point x="100" y="138" type="line"/>
    </contour>
  </outline>
</glyph>
<glyph name="underscore" format="1">
  <advance width="912"/>
  <unicode hex="005F"/>
  <outline>
    <contour>
      <point x="100" y="-330" type="line"/>
      <point x="100" y="-262" type="line"/>
      <point x="812" y="-262" type="line"/>
      <point x="812" y="-330" type="line"/>
    </contour>
  </outline>
</glyph>
<glyph name="grave" format="1">
  <advance width="0"/>
  <unicode hex="0060"/>
  <outline>
    <contour>
      <point x="141" y="664" type="line"/>
      <point x="92" y="664" type="line"/>
      <point x="0" y="875" type="line"/>
      <point x="87" y="875" type="line"/>
    </contour>
  </outline>
</glyph>
<glyph name="a" format="1">
  <advance width="516"/>
  <unicode hex="0061"/>
  <outline>
    <contour>
      <point x="370" y="134" type="line"/>
      <point x="339" y="78"/>
      <point x="294" y="47"/>
      <point x="238" y="47" type="curve" smooth="yes"/>
      <point x="168" y="47"/>
      <point x="126" y="88"/>
      <point x="126" y="150" type="curve" smooth="yes"/>
      <point x="126" y="212"/>
      <point x="168" y="253"/>
      <point x="238" y="253" type="curve" smooth="yes"/>
      <point x="296" y="253"/>
      <point x="345" y="232"/>
      <point x="377" y="189" type="curve"/>
      <point x="423" y="220" type="line"/>
      <point x="380" y="281"/>
      <point x="316" y="313"/>
      <point x="239" y="313" type="curve" smooth="yes"/>
      <point x="128" y="313"/>
      <point x="60" y="249"/>
      <point x="60" y="150" type="curve" smooth="yes"/>
      <point x="60" y="51"/>
      <point x="130" y="-13"/>
      <point x="239" y="-13" type="curve" smooth="yes"/>
      <point x="315" y="-13"/>
      <point x="375" y="33"/>
      <point x="417" y="117" type="curve"/>
    </contour>
    <contour>
      <point x="436" y="337" type="line" smooth="yes"/>
      <point x="436" y="444"/>
      <point x="365" y="513"/>
      <point x="255" y="513" type="curve" smooth="yes"/>
      <point x="178" y="513"/>
      <point x="118" y="480"/>
      <point x="78" y="420" type="curve"/>
      <point x="129" y="387" type="line"/>
      <point x="157" y="425"/>
      <point x="195" y="453"/>
      <point x="255" y="453" type="curve" smooth="yes"/>
      <point x="325" y="453"/>
      <point x="370" y="407"/>
      <point x="370" y="337" type="curve" smooth="yes"/>
      <point x="370" y="103" type="line"/>
      <point x="375" y="92" type="line"/>
      <point x="375" y="0" type="line"/>
      <point x="436" y="0" type="line"/>
    </contour>
  </outline>
</glyph>
<glyph name="b" format="1">
  <advance width="536"/>
  <unicode hex="0062"/>
  <outline>
    <contour>
      <point x="156" y="366" type="line"/>
      <point x="189" y="422"/>
      <point x="236" y="453"/>
      <point x="296" y="453" type="curve" smooth="yes"/>
      <point x="372" y="453"/>
      <point x="420" y="373"/>
      <point x="420" y="250" type="curve" smooth="yes"/>
      <point x="420" y="127"/>
      <point x="368" y="47"/>
      <point x="285" y="47" type="curve" smooth="yes"/>
      <point x="230" y="47"/>
      <point x="180" y="78"/>
      <point x="156" y="137" type="curve"/>
      <point x="110" y="106" type="line"/>
      <point x="149" y="28"/>
      <point x="209" y="-13"/>
      <point x="284" y="-13" type="curve" smooth="yes"/>
      <point x="408" y="-13"/>
      <point x="486" y="90"/>
      <point x="486" y="250" type="curve" smooth="yes"/>
      <point x="486" y="410"/>
      <point x="412" y="513"/>
      <point x="295" y="513" type="curve" smooth="yes"/>
      <point x="215" y="513"/>
      <point x="151" y="467"/>
      <point x="109" y="383" type="curve"/>
    </contour>
    <contour>
      <point x="90" y="0" type="line"/>
      <point x="151" y="0" type="line"/>
      <point x="151" y="92" type="line"/>
      <point x="156" y="103" type="line"/>
      <point x="156" y="700" type="line"/>
      <point x="90" y="700" type="line"/>
    </contour>
  </outline>
</glyph>
<glyph name="c" format="1">
  <advance width="425"/>
  <unicode hex="0063"/>
  <outline>
    <contour>
      <point x="362" y="109" type="line"/>
      <point x="335" y="69"/>
      <point x="295" y="47"/>
      <point x="246" y="47" type="curve" smooth="yes"/>
      <point x="166" y="47"/>
      <point x="116" y="127"/>
      <point x="116" y="250" type="curve" smooth="yes"/>
      <point x="116" y="373"/>
      <point x="166" y="453"/>
      <point x="246" y="453" type="curve" smooth="yes"/>
      <point x="292" y="453"/>
      <point x="329" y="435"/>
      <point x="354" y="400" type="curve"/>
      <point x="407" y="435" type="line"/>
      <point x="370" y="486"/>
      <point x="315" y="513"/>
      <point x="246" y="513" type="curve" smooth="yes"/>
      <point x="126" y="513"/>
      <point x="50" y="410"/>
      <point x="50" y="250" type="curve" smooth="yes"/>
      <point x="50" y="90"/>
      <point x="126" y="-13"/>
      <point x="246" y="-13" type="curve" smooth="yes"/>
      <point x="318" y="-13"/>
      <point x="376" y="18"/>
      <point x="415" y="74" type="curve"/>
    </contour>
  </outline>
</glyph>
<glyph name="d" format="1">
  <advance width="536"/>
  <unicode hex="0064"/>
  <outline>
    <contour>
      <point x="380" y="134" type="line"/>
      <point x="347" y="78"/>
      <point x="300" y="47"/>
      <point x="240" y="47" type="curve" smooth="yes"/>
      <point x="164" y="47"/>
      <point x="116" y="127"/>
      <point x="116" y="250" type="curve" smooth="yes"/>
      <point x="116" y="373"/>
      <point x="168" y="453"/>
      <point x="251" y="453" type="curve" smooth="yes"/>
      <point x="306" y="453"/>
      <point x="350" y="430"/>
      <point x="380" y="384" type="curve"/>
      <point x="426" y="415" type="line"/>
      <point x="387" y="479"/>
      <point x="327" y="513"/>
      <point x="252" y="513" type="curve" smooth="yes"/>
      <point x="128" y="513"/>
      <point x="50" y="410"/>
      <point x="50" y="250" type="curve" smooth="yes"/>
      <point x="50" y="90"/>
      <point x="124" y="-13"/>
      <point x="241" y="-13" type="curve" smooth="yes"/>
      <point x="321" y="-13"/>
      <point x="385" y="33"/>
      <point x="427" y="117" type="curve"/>
    </contour>
    <contour>
      <point x="446" y="700" type="line"/>
      <point x="380" y="700" type="line"/>
      <point x="380" y="103" type="line"/>
      <point x="385" y="92" type="line"/>
      <point x="385" y="0" type="line"/>
      <point x="446" y="0" type="line"/>
    </contour>
  </outline>
</glyph>
<glyph name="e" format="1">
  <advance width="508"/>
  <unicode hex="0065"/>
  <outline>
    <contour>
      <point x="255" y="-13" type="curve" smooth="yes"/>
      <point x="331" y="-13"/>
      <point x="393" y="20"/>
      <point x="434" y="80" type="curve"/>
      <point x="381" y="115" type="line"/>
      <point x="352" y="71"/>
      <point x="308" y="47"/>
      <point x="255" y="47" type="curve" smooth="yes"/>
      <point x="170" y="47"/>
      <point x="116" y="127"/>
      <point x="116" y="250" type="curve" smooth="yes"/>
      <point x="116" y="373"/>
      <point x="170" y="453"/>
      <point x="255" y="453" type="curve" smooth="yes"/>
      <point x="336" y="453"/>
      <point x="387" y="381"/>
      <point x="387" y="271" type="curve" smooth="yes"/>
      <point x="387" y="255" type="line"/>
      <point x="453" y="251" type="line"/>
      <point x="453" y="271" type="line" smooth="yes"/>
      <point x="453" y="418"/>
      <point x="376" y="513"/>
      <point x="255" y="513" type="curve" smooth="yes"/>
      <point x="130" y="513"/>
      <point x="50" y="410"/>
      <point x="50" y="250" type="curve" smooth="yes"/>
      <point x="50" y="90"/>
      <point x="130" y="-13"/>
    </contour>
    <contour>
      <point x="80" y="233" type="line"/>
      <point x="453" y="233" type="line"/>
      <point x="453" y="271" type="line"/>
      <point x="397" y="293" type="line"/>
      <point x="390" y="293" type="line"/>
      <point x="80" y="293" type="line"/>
    </contour>
  </outline>
</glyph>
<glyph name="f" format="1">
  <advance width="291"/>
  <unicode hex="0066"/>
  <outline>
    <contour>
      <point x="103" y="0" type="line"/>
      <point x="169" y="0" type="line"/>
      <point x="169" y="590" type="line" smooth="yes"/>
      <point x="169" y="628"/>
      <point x="190" y="653"/>
      <point x="222" y="653" type="curve" smooth="yes"/>
      <point x="253" y="653"/>
      <point x="274" y="640"/>
      <point x="289" y="621" type="curve"/>
      <point x="331" y="657" type="line"/>
      <point x="306" y="693"/>
      <point x="269" y="713"/>
      <point x="222" y="713" type="curve" smooth="yes"/>
      <point x="150" y="713"/>
      <point x="103" y="668"/>
      <point x="103" y="590" type="curve" smooth="yes"/>
    </contour>
    <contour>
      <point x="35" y="439" type="line"/>
      <point x="297" y="439" type="line"/>
      <point x="297" y="499" type="line"/>
      <point x="35" y="499" type="line"/>
    </contour>
  </outline>
</glyph>
<glyph name="g" format="1">
  <advance width="536"/>
  <unicode hex="0067"/>
  <outline>
    <contour>
      <point x="380" y="147" type="line"/>
      <point x="347" y="91"/>
      <point x="300" y="60"/>
      <point x="240" y="60" type="curve" smooth="yes"/>
      <point x="164" y="60"/>
      <point x="116" y="134"/>
      <point x="116" y="249" type="curve" smooth="yes"/>
      <point x="116" y="372"/>
      <point x="168" y="452"/>
      <point x="251" y="452" type="curve" smooth="yes"/>
      <point x="306" y="452"/>
      <point x="356" y="421"/>
      <point x="380" y="362" type="curve"/>
      <point x="426" y="393" type="line"/>
      <point x="387" y="471"/>
      <point x="327" y="512"/>
      <point x="252" y="512" type="curve" smooth="yes"/>
      <point x="128" y="512"/>
      <point x="50" y="409"/>
      <point x="50" y="249" type="curve" smooth="yes"/>
      <point x="50" y="98"/>
      <point x="124" y="0"/>
      <point x="241" y="0" type="curve" smooth="yes"/>
      <point x="321" y="0"/>
      <point x="385" y="46"/>
      <point x="427" y="130" type="curve"/>
    </contour>
    <contour>
      <point x="446" y="499" type="line"/>
      <point x="385" y="499" type="line"/>
      <point x="385" y="407" type="line"/>
      <point x="380" y="396" type="line"/>
      <point x="380" y="-38" type="line" smooth="yes"/>
      <point x="380" y="-110"/>
      <point x="342" y="-156"/>
      <point x="263" y="-156" type="curve" smooth="yes"/>
      <point x="194" y="-156"/>
      <point x="153" y="-117"/>
      <point x="131" y="-75" type="curve"/>
      <point x="77" y="-109" type="line"/>
      <point x="116" y="-179"/>
      <point x="177" y="-218"/>
      <point x="263" y="-218" type="curve" smooth="yes"/>
      <point x="380" y="-218"/>
      <point x="446" y="-150"/>
      <point x="446" y="-38" type="curve" smooth="yes"/>
    </contour>
  </outline>
</glyph>
<glyph name="h" format="1">
  <advance width="546"/>
  <unicode hex="0068"/>
  <outline>
    <contour>
      <point x="90" y="0" type="line"/>
      <point x="156" y="0" type="line"/>
      <point x="156" y="700" type="line"/>
      <point x="90" y="700" type="line"/>
    </contour>
    <contour>
      <point x="466" y="344" type="line" smooth="yes"/>
      <point x="466" y="447"/>
      <point x="415" y="513"/>
      <point x="297" y="513" type="curve" smooth="yes"/>
      <point x="209" y="513"/>
      <point x="141" y="458"/>
      <point x="95" y="356" type="curve"/>
      <point x="139" y="340" type="line"/>
      <point x="175" y="416"/>
      <point x="221" y="453"/>
      <point x="297" y="453" type="curve" smooth="yes"/>
      <point x="370" y="453"/>
      <point x="400" y="410"/>
      <point x="400" y="344" type="curve" smooth="yes"/>
      <point x="400" y="0" type="line"/>
      <point x="466" y="0" type="line"/>
    </contour>
  </outline>
</glyph>
<glyph name="i" format="1">
  <advance width="246"/>
  <unicode hex="0069"/>
  <outline>
    <contour>
      <point x="156" y="500" type="line"/>
      <point x="90" y="500" type="line"/>
      <point x="90" y="0" type="line"/>
      <point x="156" y="0" type="line"/>
    </contour>
    <contour>
      <point x="77" y="633" type="curve" smooth="yes"/>
      <point x="77" y="608"/>
      <point x="98" y="588"/>
      <point x="123" y="588" type="curve" smooth="yes"/>
      <point x="148" y="588"/>
      <point x="169" y="608"/>
      <point x="169" y="633" type="curve" smooth="yes"/>
      <point x="169" y="658"/>
      <point x="148" y="679"/>
      <point x="123" y="679" type="curve" smooth="yes"/>
      <point x="98" y="679"/>
      <point x="77" y="658"/>
    </contour>
  </outline>
</glyph>
<glyph name="j" format="1">
  <advance width="246"/>
  <unicode hex="006A"/>
  <outline>
    <contour>
      <point x="77" y="633" type="curve" smooth="yes"/>
      <point x="77" y="608"/>
      <point x="98" y="588"/>
      <point x="123" y="588" type="curve" smooth="yes"/>
      <point x="148" y="588"/>
      <point x="169" y="608"/>
      <point x="169" y="633" type="curve" smooth="yes"/>
      <point x="169" y="658"/>
      <point x="148" y="679"/>
      <point x="123" y="679" type="curve" smooth="yes"/>
      <point x="98" y="679"/>
      <point x="77" y="658"/>
    </contour>
    <contour>
      <point x="156" y="500" type="line"/>
      <point x="90" y="500" type="line"/>
      <point x="90" y="-94" type="line" smooth="yes"/>
      <point x="90" y="-132"/>
      <point x="69" y="-157"/>
      <point x="37" y="-157" type="curve" smooth="yes"/>
      <point x="6" y="-157"/>
      <point x="-15" y="-144"/>
      <point x="-30" y="-125" type="curve"/>
      <point x="-72" y="-161" type="line"/>
      <point x="-47" y="-197"/>
      <point x="-10" y="-217"/>
      <point x="37" y="-217" type="curve" smooth="yes"/>
      <point x="109" y="-217"/>
      <point x="156" y="-172"/>
      <point x="156" y="-94" type="curve" smooth="yes"/>
    </contour>
  </outline>
</glyph>
<glyph name="k" format="1">
  <advance width="467"/>
  <unicode hex="006B"/>
  <outline>
    <contour>
      <point x="166" y="0" type="line"/>
      <point x="166" y="700" type="line"/>
      <point x="100" y="700" type="line"/>
      <point x="100" y="0" type="line"/>
    </contour>
    <contour>
      <point x="207" y="257" type="line"/>
      <point x="385" y="0" type="line"/>
      <point x="462" y="0" type="line"/>
      <point x="241" y="318" type="line"/>
    </contour>
    <contour>
      <point x="160" y="171" type="line"/>
      <point x="447" y="500" type="line"/>
      <point x="367" y="500" type="line"/>
      <point x="109" y="204" type="line"/>
    </contour>
  </outline>
</glyph>
<glyph name="m" format="1">
  <advance width="816"/>
  <unicode hex="006D"/>
  <outline>
    <contour>
      <point x="90" y="0" type="line"/>
      <point x="156" y="0" type="line"/>
      <point x="156" y="397" type="line"/>
      <point x="151" y="408" type="line"/>
      <point x="151" y="500" type="line"/>
      <point x="90" y="500" type="line"/>
    </contour>
    <contour>
      <point x="446" y="344" type="line" smooth="yes"/>
      <point x="446" y="447"/>
      <point x="395" y="513"/>
      <point x="284" y="513" type="curve" smooth="yes"/>
      <point x="202" y="513"/>
      <point x="138" y="458"/>
      <point x="95" y="356" type="curve"/>
      <point x="139" y="340" type="line"/>
      <point x="172" y="416"/>
      <point x="215" y="453"/>
      <point x="285" y="453" type="curve" smooth="yes"/>
      <point x="352" y="453"/>
      <point x="380" y="410"/>
      <point x="380" y="344" type="curve" smooth="yes"/>
      <point x="380" y="0" type="line"/>
      <point x="446" y="0" type="line"/>
    </contour>
    <contour>
      <point x="736" y="344" type="line" smooth="yes"/>
      <point x="736" y="447"/>
      <point x="685" y="513"/>
      <point x="574" y="513" type="curve" smooth="yes"/>
      <point x="492" y="513"/>
      <point x="428" y="458"/>
      <point x="385" y="356" type="curve"/>
      <point x="429" y="340" type="line"/>
      <point x="462" y="416"/>
      <point x="505" y="453"/>
      <point x="575" y="453" type="curve" smooth="yes"/>
      <point x="642" y="453"/>
      <point x="670" y="410"/>
      <point x="670" y="344" type="curve" smooth="yes"/>
      <point x="670" y="0" type="line"/>
      <point x="736" y="0" type="line"/>
    </contour>
  </outline>
</glyph>
<glyph name="n" format="1">
  <advance width="546"/>
  <unicode hex="006E"/>
  <outline>
    <contour>
      <point x="90" y="0" type="line"/>
      <point x="156" y="0" type="line"/>
      <point x="156" y="397" type="line"/>
      <point x="151" y="408" type="line"/>
      <point x="151" y="500" type="line"/>
      <point x="90" y="500" type="line"/>
    </contour>
    <contour>
      <point x="466" y="344" type="line" smooth="yes"/>
      <point x="466" y="447"/>
      <point x="415" y="513"/>
      <point x="297" y="513" type="curve" smooth="yes"/>
      <point x="209" y="513"/>
      <point x="141" y="458"/>
      <point x="95" y="356" type="curve"/>
      <point x="139" y="340" type="line"/>
      <point x="175" y="416"/>
      <point x="221" y="453"/>
      <point x="297" y="453" type="curve" smooth="yes"/>
      <point x="370" y="453"/>
      <point x="400" y="410"/>
      <point x="400" y="344" type="curve" smooth="yes"/>
      <point x="400" y="0" type="line"/>
      <point x="466" y="0" type="line"/>
    </contour>
  </outline>
</glyph>
<glyph name="o" format="1">
  <advance width="512"/>
  <unicode hex="006F"/>
  <outline>
    <contour>
      <point x="50" y="250" type="curve" smooth="yes"/>
      <point x="50" y="90"/>
      <point x="124" y="-13"/>
      <point x="255" y="-13" type="curve" smooth="yes"/>
      <point x="387" y="-13"/>
      <point x="462" y="90"/>
      <point x="462" y="250" type="curve" smooth="yes"/>
      <point x="462" y="410"/>
      <point x="387" y="513"/>
      <point x="255" y="513" type="curve" smooth="yes"/>
      <point x="124" y="513"/>
      <point x="50" y="410"/>
    </contour>
    <contour>
      <point x="116" y="250" type="curve" smooth="yes"/>
      <point x="116" y="373"/>
      <point x="166" y="453"/>
      <point x="255" y="453" type="curve" smooth="yes"/>
      <point x="345" y="453"/>
      <point x="396" y="373"/>
      <point x="396" y="250" type="curve" smooth="yes"/>
      <point x="396" y="127"/>
      <point x="345" y="47"/>
      <point x="255" y="47" type="curve" smooth="yes"/>
      <point x="166" y="47"/>
      <point x="116" y="127"/>
    </contour>
  </outline>
</glyph>
<glyph name="p" format="1">
  <advance width="536"/>
  <unicode hex="0070"/>
  <outline>
    <contour>
      <point x="156" y="365" type="line"/>
      <point x="189" y="421"/>
      <point x="236" y="452"/>
      <point x="296" y="452" type="curve" smooth="yes"/>
      <point x="372" y="452"/>
      <point x="420" y="372"/>
      <point x="420" y="249" type="curve" smooth="yes"/>
      <point x="420" y="126"/>
      <point x="368" y="46"/>
      <point x="285" y="46" type="curve" smooth="yes"/>
      <point x="230" y="46"/>
      <point x="186" y="69"/>
      <point x="156" y="115" type="curve"/>
      <point x="110" y="84" type="line"/>
      <point x="149" y="20"/>
      <point x="209" y="-14"/>
      <point x="284" y="-14" type="curve" smooth="yes"/>
      <point x="408" y="-14"/>
      <point x="486" y="89"/>
      <point x="486" y="249" type="curve" smooth="yes"/>
      <point x="486" y="409"/>
      <point x="412" y="512"/>
      <point x="295" y="512" type="curve" smooth="yes"/>
      <point x="215" y="512"/>
      <point x="151" y="466"/>
      <point x="109" y="382" type="curve"/>
    </contour>
    <contour>
      <point x="90" y="-205" type="line"/>
      <point x="156" y="-205" type="line"/>
      <point x="156" y="396" type="line"/>
      <point x="151" y="407" type="line"/>
      <point x="151" y="499" type="line"/>
      <point x="90" y="499" type="line"/>
    </contour>
  </outline>
</glyph>
<glyph name="q" format="1">
  <advance width="536"/>
  <unicode hex="0071"/>
  <outline>
    <contour>
      <point x="380" y="133" type="line"/>
      <point x="347" y="77"/>
      <point x="300" y="46"/>
      <point x="240" y="46" type="curve" smooth="yes"/>
      <point x="164" y="46"/>
      <point x="116" y="126"/>
      <point x="116" y="249" type="curve" smooth="yes"/>
      <point x="116" y="372"/>
      <point x="168" y="452"/>
      <point x="251" y="452" type="curve" smooth="yes"/>
      <point x="306" y="452"/>
      <point x="356" y="421"/>
      <point x="380" y="362" type="curve"/>
      <point x="426" y="393" type="line"/>
      <point x="387" y="471"/>
      <point x="327" y="512"/>
      <point x="252" y="512" type="curve" smooth="yes"/>
      <point x="128" y="512"/>
      <point x="50" y="409"/>
      <point x="50" y="249" type="curve" smooth="yes"/>
      <point x="50" y="89"/>
      <point x="124" y="-14"/>
      <point x="241" y="-14" type="curve" smooth="yes"/>
      <point x="321" y="-14"/>
      <point x="385" y="32"/>
      <point x="427" y="116" type="curve"/>
    </contour>
    <contour>
      <point x="446" y="499" type="line"/>
      <point x="385" y="499" type="line"/>
      <point x="385" y="407" type="line"/>
      <point x="380" y="396" type="line"/>
      <point x="380" y="-205" type="line"/>
      <point x="446" y="-205" type="line"/>
    </contour>
  </outline>
</glyph>
<glyph name="r" format="1">
  <advance width="331"/>
  <unicode hex="0072"/>
  <outline>
    <contour>
      <point x="90" y="0" type="line"/>
      <point x="156" y="0" type="line"/>
      <point x="156" y="397" type="line"/>
      <point x="151" y="408" type="line"/>
      <point x="151" y="500" type="line"/>
      <point x="90" y="500" type="line"/>
    </contour>
    <contour>
      <point x="331" y="510" type="line"/>
      <point x="320" y="512"/>
      <point x="306" y="513"/>
      <point x="292" y="513" type="curve" smooth="yes"/>
      <point x="208" y="513"/>
      <point x="143" y="447"/>
      <point x="99" y="325" type="curve"/>
      <point x="143" y="309" type="line"/>
      <point x="172" y="404"/>
      <point x="219" y="448"/>
      <point x="291" y="448" type="curve" smooth="yes"/>
      <point x="301" y="448"/>
      <point x="311" y="446"/>
      <point x="320" y="445" type="curve"/>
    </contour>
  </outline>
</glyph>
<glyph name="s" format="1">
  <advance width="428"/>
  <unicode hex="0073"/>
  <outline>
    <contour>
      <point x="317" y="120" type="curve" smooth="yes"/>
      <point x="317" y="77"/>
      <point x="279" y="47"/>
      <point x="216" y="47" type="curve" smooth="yes"/>
      <point x="164" y="47"/>
      <point x="123" y="73"/>
      <point x="95" y="116" type="curve"/>
      <point x="45" y="82" type="line"/>
      <point x="86" y="21"/>
      <point x="144" y="-13"/>
      <point x="216" y="-13" type="curve" smooth="yes"/>
      <point x="319" y="-13"/>
      <point x="383" y="40"/>
      <point x="383" y="120" type="curve" smooth="yes"/>
      <point x="383" y="300"/>
      <point x="124" y="255"/>
      <point x="124" y="371" type="curve" smooth="yes"/>
      <point x="124" y="421"/>
      <point x="160" y="453"/>
      <point x="220" y="453" type="curve" smooth="yes"/>
      <point x="266" y="453"/>
      <point x="304" y="432"/>
      <point x="329" y="397" type="curve"/>
      <point x="379" y="431" type="line"/>
      <point x="342" y="483"/>
      <point x="287" y="513"/>
      <point x="220" y="513" type="curve" smooth="yes"/>
      <point x="121" y="513"/>
      <point x="58" y="457"/>
      <point x="58" y="371" type="curve" smooth="yes"/>
      <point x="58" y="201"/>
      <point x="317" y="240"/>
    </contour>
  </outline>
</glyph>
<glyph name="t" format="1">
  <advance width="321"/>
  <unicode hex="0074"/>
  <outline>
    <contour>
      <point x="103" y="110" type="line" smooth="yes"/>
      <point x="103" y="32"/>
      <point x="150" y="-13"/>
      <point x="222" y="-13" type="curve" smooth="yes"/>
      <point x="269" y="-13"/>
      <point x="306" y="7"/>
      <point x="331" y="43" type="curve"/>
      <point x="289" y="79" type="line"/>
      <point x="274" y="60"/>
      <point x="253" y="47"/>
      <point x="222" y="47" type="curve" smooth="yes"/>
      <point x="190" y="47"/>
      <point x="169" y="72"/>
      <point x="169" y="110" type="curve" smooth="yes"/>
      <point x="169" y="600" type="line"/>
      <point x="103" y="600" type="line"/>
    </contour>
    <contour>
      <point x="35" y="440" type="line"/>
      <point x="297" y="440" type="line"/>
      <point x="297" y="500" type="line"/>
      <point x="35" y="500" type="line"/>
    </contour>
  </outline>
</glyph>
<glyph name="u" format="1">
  <advance width="546"/>
  <unicode hex="0075"/>
  <outline>
    <contour>
      <point x="456" y="500" type="line"/>
      <point x="390" y="500" type="line"/>
      <point x="390" y="103" type="line"/>
      <point x="395" y="92" type="line"/>
      <point x="395" y="0" type="line"/>
      <point x="456" y="0" type="line"/>
    </contour>
    <contour>
      <point x="80" y="156" type="line" smooth="yes"/>
      <point x="80" y="53"/>
      <point x="131" y="-13"/>
      <point x="249" y="-13" type="curve" smooth="yes"/>
      <point x="333" y="-13"/>
      <point x="398" y="42"/>
      <point x="442" y="144" type="curve"/>
      <point x="398" y="160" type="line"/>
      <point x="369" y="93"/>
      <point x="321" y="47"/>
      <point x="249" y="47" type="curve" smooth="yes"/>
      <point x="176" y="47"/>
      <point x="146" y="90"/>
      <point x="146" y="156" type="curve" smooth="yes"/>
      <point x="146" y="500" type="line"/>
      <point x="80" y="500" type="line"/>
    </contour>
  </outline>
</glyph>
<glyph name="v" format="1">
  <advance width="473"/>
  <unicode hex="0076"/>
  <outline>
    <contour>
      <point x="284" y="0" type="line"/>
      <point x="448" y="500" type="line"/>
      <point x="381" y="500" type="line"/>
      <point x="230" y="37" type="line"/>
      <point x="243" y="37" type="line"/>
      <point x="92" y="500" type="line"/>
      <point x="25" y="500" type="line"/>
      <point x="189" y="0" type="line"/>
    </contour>
  </outline>
</glyph>
<glyph name="w" format="1">
  <advance width="703"/>
  <unicode hex="0077"/>
  <outline>
    <contour>
      <point x="321" y="500" type="line"/>
      <point x="210" y="37" type="line"/>
      <point x="223" y="37" type="line"/>
      <point x="92" y="500" type="line"/>
      <point x="25" y="500" type="line"/>
      <point x="169" y="0" type="line"/>
      <point x="262" y="0" type="line"/>
      <point x="367" y="430" type="line"/>
      <point x="336" y="430" type="line"/>
      <point x="441" y="0" type="line"/>
      <point x="534" y="0" type="line"/>
      <point x="678" y="500" type="line"/>
      <point x="611" y="500" type="line"/>
      <point x="480" y="37" type="line"/>
      <point x="493" y="37" type="line"/>
      <point x="382" y="500" type="line"/>
    </contour>
  </outline>
</glyph>
<glyph name="x" format="1">
  <advance width="439"/>
  <unicode hex="0078"/>
  <outline>
    <contour>
      <point x="29" y="500" type="line"/>
      <point x="342" y="0" type="line"/>
      <point x="414" y="0" type="line"/>
      <point x="100" y="500" type="line"/>
    </contour>
    <contour>
      <point x="195" y="276" type="line"/>
      <point x="25" y="0" type="line"/>
      <point x="96" y="0" type="line"/>
      <point x="236" y="226" type="line"/>
    </contour>
    <contour>
      <point x="240" y="224" type="line"/>
      <point x="410" y="500" type="line"/>
      <point x="339" y="500" type="line"/>
      <point x="199" y="274" type="line"/>
    </contour>
  </outline>
</glyph>
<glyph name="y" format="1">
  <advance width="473"/>
  <unicode hex="0079"/>
  <outline>
    <contour>
      <point x="201" y="-16" type="line"/>
      <point x="159" y="-91"/>
      <point x="110" y="-132"/>
      <point x="39" y="-166" type="curve"/>
      <point x="66" y="-218" type="line"/>
      <point x="143" y="-183"/>
      <point x="235" y="-117"/>
      <point x="284" y="25" type="curve" smooth="yes"/>
      <point x="448" y="500" type="line"/>
      <point x="381" y="500" type="line"/>
      <point x="231" y="48" type="line"/>
      <point x="244" y="48" type="line"/>
      <point x="92" y="500" type="line"/>
      <point x="25" y="500" type="line"/>
    </contour>
  </outline>
</glyph>
<glyph name="z" format="1">
  <advance width="428"/>
  <unicode hex="007A"/>
  <outline>
    <contour>
      <point x="111" y="40" type="line"/>
      <point x="393" y="459" type="line"/>
      <point x="317" y="459" type="line"/>
      <point x="35" y="40" type="line"/>
    </contour>
    <contour>
      <point x="393" y="499" type="line"/>
      <point x="55" y="499" type="line"/>
      <point x="55" y="439" type="line"/>
      <point x="361" y="439" type="line"/>
      <point x="393" y="459" type="line"/>
    </contour>
    <contour>
      <point x="382" y="60" type="line"/>
      <point x="65" y="60" type="line"/>
      <point x="35" y="40" type="line"/>
      <point x="35" y="0" type="line"/>
      <point x="382" y="0" type="line"/>
    </contour>
  </outline>
</glyph>
<glyph name="braceleft" format="1">
  <advance width="484"/>
  <unicode hex="007B"/>
  <outline>
    <contour>
      <point x="100" y="310" type="line"/>
      <point x="141" y="310"/>
      <point x="201" y="378"/>
      <point x="201" y="426" type="qcurve"/>
      <point x="201" y="558" type="line" smooth="yes"/>
      <point x="201" y="651"/>
      <point x="309" y="783"/>
      <point x="385" y="783" type="qcurve"/>
      <point x="385" y="731" type="line"/>
      <point x="336" y="731"/>
      <point x="265" y="630"/>
      <point x="265" y="558" type="qcurve"/>
      <point x="265" y="426" type="line" smooth="yes"/>
      <point x="265" y="381"/>
      <point x="220" y="309"/>
      <point x="182" y="296" type="qcurve"/>
      <point x="220" y="282"/>
      <point x="265" y="209"/>
      <point x="265" y="162" type="qcurve"/>
      <point x="265" y="32" type="line" smooth="yes"/>
      <point x="265" y="-40"/>
      <point x="336" y="-141"/>
      <point x="385" y="-141" type="qcurve"/>
      <point x="385" y="-194" type="line"/>
      <point x="309" y="-194"/>
      <point x="201" y="-61"/>
      <point x="201" y="32" type="qcurve"/>
      <point x="201" y="162" type="line" smooth="yes"/>
      <point x="201" y="209"/>
      <point x="141" y="274"/>
      <point x="100" y="274" type="qcurve"/>
    </contour>
  </outline>
</glyph>
<glyph name="bar" format="1">
  <advance width="266"/>
  <unicode hex="007C"/>
  <outline>
    <contour>
      <point x="100" y="-326" type="line"/>
      <point x="100" y="999" type="line"/>
      <point x="166" y="999" type="line"/>
      <point x="166" y="-326" type="line"/>
    </contour>
  </outline>
</glyph>
<glyph name="braceright" format="1">
  <advance width="486"/>
  <unicode hex="007D"/>
  <outline>
    <contour>
      <point x="386" y="345" type="qcurve"/>
      <point x="386" y="309" type="line"/>
      <point x="345" y="309"/>
      <point x="285" y="244"/>
      <point x="285" y="197" type="qcurve"/>
      <point x="285" y="67" type="line" smooth="yes"/>
      <point x="285" y="-27"/>
      <point x="177" y="-160"/>
      <point x="100" y="-160" type="qcurve"/>
      <point x="100" y="-107" type="line"/>
      <point x="150" y="-107"/>
      <point x="221" y="-5"/>
      <point x="221" y="67" type="qcurve"/>
      <point x="221" y="197" type="line" smooth="yes"/>
      <point x="221" y="241"/>
      <point x="268" y="313"/>
      <point x="306" y="326" type="qcurve"/>
      <point x="268" y="340"/>
      <point x="221" y="414"/>
      <point x="221" y="461" type="qcurve"/>
      <point x="221" y="593" type="line" smooth="yes"/>
      <point x="221" y="664"/>
      <point x="150" y="766"/>
      <point x="100" y="766" type="qcurve"/>
      <point x="100" y="818" type="line"/>
      <point x="177" y="818"/>
      <point x="285" y="686"/>
      <point x="285" y="593" type="qcurve"/>
      <point x="285" y="461" type="line" smooth="yes"/>
      <point x="285" y="413"/>
      <point x="345" y="345"/>
    </contour>
  </outline>
</glyph>
<glyph name="asciitilde" format="1">
  <advance width="721"/>
  <unicode hex="007E"/>
  <outline>
    <contour>
      <point x="136" y="304" type="qcurve"/>
      <point x="100" y="349" type="line"/>
      <point x="133" y="377"/>
      <point x="206" y="407"/>
      <point x="241" y="407" type="qcurve" smooth="yes"/>
      <point x="276" y="407"/>
      <point x="333" y="391"/>
      <point x="352" y="376" type="qcurve"/>
      <point x="382" y="350"/>
      <point x="438" y="322"/>
      <point x="459" y="322" type="qcurve" smooth="yes"/>
      <point x="495" y="322"/>
      <point x="561" y="354"/>
      <point x="585" y="382" type="qcurve"/>
      <point x="622" y="340" type="line"/>
      <point x="593" y="305"/>
      <point x="507" y="266"/>
      <point x="459" y="266" type="qcurve" smooth="yes"/>
      <point x="429" y="266"/>
      <point x="373" y="285"/>
      <point x="352" y="304" type="qcurve" smooth="yes"/>
      <point x="329" y="324"/>
      <point x="272" y="344"/>
      <point x="242" y="344" type="qcurve" smooth="yes"/>
      <point x="214" y="344"/>
      <point x="158" y="324"/>
    </contour>
  </outline>
</glyph>
<glyph name="cent" format="1">
  <advance width="749"/>
  <unicode hex="00A2"/>
  <outline>
    <contour>
      <point x="446" y="595" type="line"/>
      <point x="425" y="599"/>
      <point x="390" y="605"/>
      <point x="378" y="605" type="qcurve" smooth="yes"/>
      <point x="285" y="605"/>
      <point x="172" y="457"/>
      <point x="172" y="333" type="qcurve" smooth="yes"/>
      <point x="172" y="265"/>
      <point x="213" y="145"/>
      <point x="252" y="101" type="qcurve"/>
    </contour>
    <contour>
      <point x="100" y="333" type="qcurve"/>
      <point x="100" y="483"/>
      <point x="252" y="666"/>
      <point x="378" y="666" type="qcurve" smooth="yes"/>
      <point x="403" y="666"/>
      <point x="447" y="660"/>
      <point x="466" y="656" type="qcurve"/>
      <point x="526" y="804" type="line"/>
      <point x="593" y="804" type="line"/>
      <point x="525" y="630" type="line"/>
      <point x="577" y="595"/>
      <point x="640" y="498"/>
      <point x="644" y="446" type="qcurve"/>
      <point x="570" y="446" type="line"/>
      <point x="567" y="477"/>
      <point x="533" y="541"/>
      <point x="502" y="570" type="qcurve"/>
      <point x="309" y="71" type="line"/>
      <point x="329" y="65"/>
      <point x="364" y="59"/>
      <point x="378" y="59" type="qcurve" smooth="yes"/>
      <point x="462" y="59"/>
      <point x="571" y="150"/>
      <point x="578" y="228" type="qcurve"/>
      <point x="650" y="228" type="line"/>
      <point x="640" y="123"/>
      <point x="493" y="-3"/>
      <point x="378" y="-3" type="qcurve" smooth="yes"/>
      <point x="356" y="-3"/>
      <point x="308" y="4"/>
      <point x="285" y="11" type="qcurve"/>
      <point x="232" y="-125" type="line"/>
      <point x="165" y="-125" type="line"/>
      <point x="229" y="37" type="line"/>
      <point x="168" y="81"/>
      <point x="100" y="238"/>
    </contour>
  </outline>
</glyph>
<glyph name="multiply" format="1">
  <advance width="665"/>
  <unicode hex="00D7"/>
  <outline>
    <contour>
      <point x="153" y="93" type="line"/>
      <point x="100" y="146" type="line"/>
      <point x="280" y="326" type="line"/>
      <point x="100" y="506" type="line"/>
      <point x="153" y="559" type="line"/>
      <point x="333" y="380" type="line"/>
      <point x="513" y="559" type="line"/>
      <point x="566" y="506" type="line"/>
      <point x="386" y="326" type="line"/>
      <point x="566" y="146" type="line"/>
      <point x="513" y="93" type="line"/>
      <point x="333" y="273" type="line"/>
    </contour>
  </outline>
</glyph>
<glyph name="divide" format="1">
  <advance width="832"/>
  <unicode hex="00F7"/>
  <outline>
    <contour>
      <point x="499" y="107" type="qcurve"/>
      <point x="499" y="73"/>
      <point x="453" y="27"/>
      <point x="419" y="27" type="qcurve" smooth="yes"/>
      <point x="389" y="27"/>
      <point x="346" y="73"/>
      <point x="346" y="107" type="qcurve" smooth="yes"/>
      <point x="346" y="137"/>
      <point x="389" y="180"/>
      <point x="419" y="180" type="qcurve" smooth="yes"/>
      <point x="453" y="180"/>
      <point x="499" y="137"/>
    </contour>
    <contour>
      <point x="732" y="286" type="line"/>
      <point x="100" y="286" type="line"/>
      <point x="100" y="366" type="line"/>
      <point x="732" y="366" type="line"/>
    </contour>
    <contour>
      <point x="499" y="553" type="qcurve"/>
      <point x="499" y="519"/>
      <point x="453" y="473"/>
      <point x="419" y="473" type="qcurve" smooth="yes"/>
      <point x="389" y="473"/>
      <point x="346" y="519"/>
      <point x="346" y="553" type="qcurve" smooth="yes"/>
      <point x="346" y="586"/>
      <point x="393" y="633"/>
      <point x="426" y="633" type="qcurve" smooth="yes"/>
      <point x="457" y="633"/>
      <point x="499" y="586"/>
    </contour>
  </outline>
</glyph>
<glyph name="apostrophe" format="1">
  <advance width="314"/>
  <unicode hex="02BC"/>
  <outline>
    <contour>
      <point x="218" y="771" type="line"/>
      <point x="218" y="739"/>
      <point x="212" y="687"/>
      <point x="206" y="665" type="qcurve" smooth="yes"/>
      <point x="200" y="642"/>
      <point x="183" y="603"/>
      <point x="171" y="583" type="qcurve"/>
      <point x="97" y="583" type="line"/>
      <point x="124" y="622"/>
      <point x="154" y="702"/>
      <point x="154" y="739" type="qcurve"/>
      <point x="101" y="739" type="line"/>
      <point x="101" y="858" type="line"/>
      <point x="218" y="858" type="line"/>
    </contour>
  </outline>
</glyph>
<glyph name="candrabinduinverteddeva" format="1">
  <advance width="0"/>
  <unicode hex="0900"/>
  <outline>
    <contour>
      <point x="-120" y="666" type="move" name="_DVAnchor3"/>
    </contour>
    <contour>
      <point x="-178" y="846" type="line"/>
      <point x="-92" y="846" type="line"/>
      <point x="-92" y="759" type="line"/>
      <point x="-178" y="759" type="line"/>
    </contour>
    <contour>
      <point x="-132" y="992" type="qcurve"/>
      <point x="-53" y="992"/>
      <point x="67" y="887"/>
      <point x="81" y="806" type="qcurve"/>
      <point x="8" y="806" type="line"/>
      <point x="-1" y="860"/>
      <point x="-81" y="932"/>
      <point x="-132" y="932" type="qcurve" smooth="yes"/>
      <point x="-182" y="932"/>
      <point x="-262" y="860"/>
      <point x="-272" y="806" type="qcurve"/>
      <point x="-345" y="806" type="line"/>
      <point x="-330" y="887"/>
      <point x="-210" y="992"/>
    </contour>
  </outline>
</glyph>
<glyph name="candrabindudeva" format="1">
  <advance width="0"/>
  <unicode hex="0901"/>
  <outline>
    <contour>
      <point x="-120" y="666" type="move" name="_DVAnchor3"/>
    </contour>
    <contour>
      <point x="-178" y="905" type="line"/>
      <point x="-178" y="992" type="line"/>
      <point x="-92" y="992" type="line"/>
      <point x="-92" y="905" type="line"/>
    </contour>
    <contour>
      <point x="-132" y="759" type="qcurve"/>
      <point x="-210" y="759"/>
      <point x="-330" y="864"/>
      <point x="-345" y="945" type="qcurve"/>
      <point x="-272" y="945" type="line"/>
      <point x="-262" y="891"/>
      <point x="-182" y="819"/>
      <point x="-132" y="819" type="qcurve" smooth="yes"/>
      <point x="-81" y="819"/>
      <point x="-1" y="891"/>
      <point x="8" y="945" type="qcurve"/>
      <point x="81" y="945" type="line"/>
      <point x="67" y="864"/>
      <point x="-53" y="759"/>
    </contour>
  </outline>
</glyph>
<glyph name="anusvaradeva" format="1">
  <advance width="0"/>
  <unicode hex="0902"/>
  <outline>
    <contour>
      <point x="-133" y="666" type="move" name="_DVAnchor3"/>
    </contour>
    <contour>
      <point x="-177" y="832" type="line"/>
      <point x="-177" y="925" type="line"/>
      <point x="-77" y="925" type="line"/>
      <point x="-77" y="832" type="line"/>
    </contour>
  </outline>
</glyph>
<glyph name="visargadeva" format="1">
  <advance width="339"/>
  <unicode hex="0903"/>
  <outline>
    <contour>
      <point x="166" y="399" type="qcurve"/>
      <point x="138" y="399"/>
      <point x="100" y="442"/>
      <point x="100" y="473" type="qcurve" smooth="yes"/>
      <point x="100" y="503"/>
      <point x="138" y="546"/>
      <point x="166" y="546" type="qcurve" smooth="yes"/>
      <point x="197" y="546"/>
      <point x="240" y="503"/>
      <point x="240" y="473" type="qcurve" smooth="yes"/>
      <point x="240" y="442"/>
      <point x="197" y="399"/>
    </contour>
    <contour>
      <point x="166" y="107" type="qcurve"/>
      <point x="138" y="107"/>
      <point x="100" y="149"/>
      <point x="100" y="180" type="qcurve" smooth="yes"/>
      <point x="100" y="210"/>
      <point x="138" y="253"/>
      <point x="166" y="253" type="qcurve" smooth="yes"/>
      <point x="197" y="253"/>
      <point x="240" y="210"/>
      <point x="240" y="180" type="qcurve" smooth="yes"/>
      <point x="240" y="149"/>
      <point x="197" y="107"/>
    </contour>
  </outline>
</glyph>
<glyph name="ashortdeva" format="1">
  <advance width="768"/>
  <unicode hex="0904"/>
  <outline>
    <contour>
      <point x="309" y="47" type="qcurve"/>
      <point x="229" y="47"/>
      <point x="79" y="180"/>
      <point x="23" y="300" type="qcurve"/>
      <point x="72" y="328" type="line"/>
      <point x="120" y="226"/>
      <point x="244" y="113"/>
      <point x="309" y="113" type="qcurve" smooth="yes"/>
      <point x="350" y="113"/>
      <point x="409" y="174"/>
      <point x="409" y="218" type="qcurve" smooth="yes"/>
      <point x="409" y="272"/>
      <point x="342" y="346"/>
      <point x="296" y="346" type="qcurve" smooth="yes"/>
      <point x="281" y="346"/>
      <point x="248" y="340"/>
      <point x="229" y="333" type="qcurve"/>
      <point x="202" y="393" type="line"/>
      <point x="262" y="398"/>
      <point x="354" y="471"/>
      <point x="354" y="513" type="qcurve" smooth="yes"/>
      <point x="354" y="551"/>
      <point x="308" y="606"/>
      <point x="276" y="606" type="qcurve" smooth="yes"/>
      <point x="237" y="606"/>
      <point x="153" y="557"/>
      <point x="116" y="513" type="qcurve"/>
      <point x="69" y="559" type="line"/>
      <point x="104" y="610"/>
      <point x="213" y="666"/>
      <point x="276" y="666" type="qcurve" smooth="yes"/>
      <point x="337" y="666"/>
      <point x="422" y="577"/>
      <point x="422" y="513" type="qcurve" smooth="yes"/>
      <point x="422" y="479"/>
      <point x="390" y="417"/>
      <point x="362" y="393" type="qcurve"/>
      <point x="413" y="364"/>
      <point x="491" y="333"/>
      <point x="515" y="333" type="qcurve" smooth="yes"/>
      <point x="530" y="333"/>
      <point x="574" y="350"/>
      <point x="602" y="366" type="qcurve"/>
      <point x="602" y="606" type="line"/>
      <point x="482" y="606" type="line"/>
      <point x="482" y="666" type="line"/>
      <point x="606" y="666" type="line"/>
      <point x="606" y="723"/>
      <point x="528" y="806"/>
      <point x="473" y="806" type="qcurve" smooth="yes"/>
      <point x="400" y="806"/>
      <point x="287" y="907"/>
      <point x="273" y="986" type="qcurve"/>
      <point x="340" y="986" type="line"/>
      <point x="349" y="931"/>
      <point x="425" y="859"/>
      <point x="473" y="859" type="qcurve" smooth="yes"/>
      <point x="556" y="859"/>
      <point x="673" y="746"/>
      <point x="673" y="666" type="qcurve"/>
      <point x="782" y="666" type="line"/>
      <point x="782" y="606" type="line"/>
      <point x="668" y="606" type="line"/>
      <point x="668" y="0" type="line"/>
      <point x="602" y="0" type="line"/>
      <point x="602" y="300" type="line"/>
      <point x="586" y="286"/>
      <point x="553" y="273"/>
      <point x="535" y="273" type="qcurve" smooth="yes"/>
      <point x="507" y="273"/>
      <point x="462" y="284"/>
      <point x="449" y="293" type="qcurve"/>
      <point x="462" y="282"/>
      <point x="475" y="244"/>
      <point x="475" y="220" type="qcurve" smooth="yes"/>
      <point x="475" y="148"/>
      <point x="378" y="47"/>
    </contour>
  </outline>
</glyph>
<glyph name="aadeva" format="1">
  <advance width="1042"/>
  <unicode hex="0906"/>
  <outline>
    <contour>
      <point x="792" y="664" type="move" name="DVAnchor3"/>
    </contour>
    <contour>
      <point x="310" y="47" type="qcurve"/>
      <point x="230" y="47"/>
      <point x="80" y="180"/>
      <point x="24" y="300" type="qcurve"/>
      <point x="71" y="340" type="line"/>
      <point x="121" y="232"/>
      <point x="246" y="113"/>
      <point x="310" y="113" type="qcurve" smooth="yes"/>
      <point x="352" y="113"/>
      <point x="410" y="184"/>
      <point x="410" y="233" type="qcurve" smooth="yes"/>
      <point x="410" y="280"/>
      <point x="344" y="346"/>
      <point x="297" y="346" type="qcurve" smooth="yes"/>
      <point x="282" y="346"/>
      <point x="249" y="340"/>
      <point x="230" y="333" type="qcurve"/>
      <point x="204" y="393" type="line"/>
      <point x="264" y="398"/>
      <point x="357" y="475"/>
      <point x="357" y="519" type="qcurve" smooth="yes"/>
      <point x="357" y="555"/>
      <point x="302" y="606"/>
      <point x="264" y="606" type="qcurve" smooth="yes"/>
      <point x="232" y="606"/>
      <point x="154" y="557"/>
      <point x="117" y="513" type="qcurve"/>
      <point x="71" y="559" type="line"/>
      <point x="105" y="610"/>
      <point x="208" y="666"/>
      <point x="264" y="666" type="qcurve" smooth="yes"/>
      <point x="330" y="666"/>
      <point x="423" y="581"/>
      <point x="423" y="519" type="qcurve" smooth="yes"/>
      <point x="423" y="483"/>
      <point x="391" y="417"/>
      <point x="364" y="393" type="qcurve"/>
      <point x="409" y="366"/>
      <point x="497" y="340"/>
      <point x="537" y="340" type="qcurve" smooth="yes"/>
      <point x="547" y="340"/>
      <point x="581" y="353"/>
      <point x="603" y="366" type="qcurve"/>
      <point x="603" y="606" type="line"/>
      <point x="483" y="606" type="line"/>
      <point x="483" y="666" type="line"/>
      <point x="1056" y="666" type="line"/>
      <point x="1056" y="606" type="line"/>
      <point x="943" y="606" type="line"/>
      <point x="943" y="0" type="line"/>
      <point x="876" y="0" type="line"/>
      <point x="876" y="606" type="line"/>
      <point x="670" y="606" type="line"/>
      <point x="670" y="0" type="line"/>
      <point x="603" y="0" type="line"/>
      <point x="603" y="300" type="line"/>
      <point x="587" y="286"/>
      <point x="554" y="273"/>
      <point x="537" y="273" type="qcurve" smooth="yes"/>
      <point x="509" y="273"/>
      <point x="463" y="284"/>
      <point x="450" y="293" type="qcurve"/>
      <point x="463" y="282"/>
      <point x="477" y="244"/>
      <point x="477" y="220" type="qcurve" smooth="yes"/>
      <point x="477" y="148"/>
      <point x="380" y="47"/>
    </contour>
  </outline>
</glyph>
<glyph name="ideva" format="1">
  <advance width="503"/>
  <unicode hex="0907"/>
  <outline>
    <contour>
      <point x="377" y="664" type="move" name="DVAnchor3"/>
    </contour>
    <contour>
      <point x="-13" y="606" type="line"/>
      <point x="-13" y="666" type="line"/>
      <point x="517" y="666" type="line"/>
      <point x="517" y="606" type="line"/>
      <point x="401" y="606" type="line"/>
      <point x="401" y="433" type="line"/>
      <point x="161" y="433" type="line" smooth="yes"/>
      <point x="145" y="433"/>
      <point x="121" y="417"/>
      <point x="121" y="406" type="qcurve" smooth="yes"/>
      <point x="121" y="385"/>
      <point x="206" y="300"/>
      <point x="228" y="300" type="qcurve" smooth="yes"/>
      <point x="250" y="300"/>
      <point x="338" y="333"/>
      <point x="361" y="333" type="qcurve" smooth="yes"/>
      <point x="399" y="333"/>
      <point x="454" y="266"/>
      <point x="454" y="220" type="qcurve" smooth="yes"/>
      <point x="454" y="137"/>
      <point x="353" y="20"/>
      <point x="281" y="20" type="qcurve"/>
      <point x="306" y="-16"/>
      <point x="390" y="-80"/>
      <point x="447" y="-107" type="qcurve"/>
      <point x="414" y="-160" type="line"/>
      <point x="342" y="-119"/>
      <point x="234" y="-27"/>
      <point x="201" y="20" type="qcurve"/>
      <point x="134" y="20"/>
      <point x="41" y="71"/>
      <point x="41" y="107" type="qcurve" smooth="yes"/>
      <point x="41" y="134"/>
      <point x="80" y="173"/>
      <point x="108" y="173" type="qcurve" smooth="yes"/>
      <point x="146" y="173"/>
      <point x="221" y="120"/>
      <point x="248" y="73" type="qcurve"/>
      <point x="305" y="73"/>
      <point x="387" y="160"/>
      <point x="387" y="220" type="qcurve" smooth="yes"/>
      <point x="387" y="238"/>
      <point x="372" y="266"/>
      <point x="361" y="266" type="qcurve" smooth="yes"/>
      <point x="338" y="266"/>
      <point x="250" y="233"/>
      <point x="228" y="233" type="qcurve" smooth="yes"/>
      <point x="185" y="233"/>
      <point x="53" y="364"/>
      <point x="53" y="406" type="qcurve" smooth="yes"/>
      <point x="53" y="445"/>
      <point x="117" y="499"/>
      <point x="162" y="499" type="qcurve"/>
      <point x="328" y="499" type="line"/>
      <point x="328" y="606" type="line"/>
    </contour>
  </outline>
</glyph>
<glyph name="iideva" format="1">
  <advance width="510"/>
  <unicode hex="0908"/>
  <outline>
    <contour>
      <point x="439" y="579" type="move" name="DVAnchor3"/>
    </contour>
    <contour>
      <point x="415" y="-160" type="line"/>
      <point x="344" y="-119"/>
      <point x="236" y="-27"/>
      <point x="202" y="20" type="qcurve"/>
      <point x="136" y="20"/>
      <point x="43" y="71"/>
      <point x="43" y="107" type="qcurve" smooth="yes"/>
      <point x="43" y="134"/>
      <point x="81" y="173"/>
      <point x="109" y="173" type="qcurve" smooth="yes"/>
      <point x="148" y="173"/>
      <point x="222" y="120"/>
      <point x="249" y="73" type="qcurve"/>
      <point x="309" y="73"/>
      <point x="395" y="160"/>
      <point x="395" y="220" type="qcurve" smooth="yes"/>
      <point x="395" y="238"/>
      <point x="376" y="266"/>
      <point x="362" y="266" type="qcurve" smooth="yes"/>
      <point x="346" y="266"/>
      <point x="317" y="260"/>
      <point x="302" y="253" type="qcurve" smooth="yes"/>
      <point x="281" y="244"/>
      <point x="244" y="233"/>
      <point x="229" y="233" type="qcurve" smooth="yes"/>
      <point x="185" y="233"/>
      <point x="49" y="364"/>
      <point x="49" y="406" type="qcurve" smooth="yes"/>
      <point x="49" y="445"/>
      <point x="116" y="499"/>
      <point x="162" y="499" type="qcurve"/>
      <point x="336" y="499" type="line"/>
      <point x="336" y="606" type="line"/>
      <point x="-13" y="606" type="line"/>
      <point x="-13" y="666" type="line"/>
      <point x="321" y="666" type="line"/>
      <point x="286" y="696"/>
      <point x="249" y="766"/>
      <point x="249" y="799" type="qcurve" smooth="yes"/>
      <point x="249" y="860"/>
      <point x="342" y="945"/>
      <point x="409" y="945" type="qcurve" smooth="yes"/>
      <point x="427" y="945"/>
      <point x="463" y="939"/>
      <point x="482" y="932" type="qcurve"/>
      <point x="482" y="872" type="line"/>
      <point x="454" y="883"/>
      <point x="418" y="892"/>
      <point x="409" y="892" type="qcurve" smooth="yes"/>
      <point x="370" y="892"/>
      <point x="316" y="838"/>
      <point x="316" y="799" type="qcurve" smooth="yes"/>
      <point x="316" y="762"/>
      <point x="360" y="691"/>
      <point x="398" y="666" type="qcurve"/>
      <point x="523" y="666" type="line"/>
      <point x="523" y="606" type="line"/>
      <point x="402" y="606" type="line"/>
      <point x="402" y="433" type="line"/>
      <point x="162" y="433" type="line" smooth="yes"/>
      <point x="146" y="433"/>
      <point x="123" y="417"/>
      <point x="123" y="406" type="qcurve" smooth="yes"/>
      <point x="123" y="385"/>
      <point x="208" y="300"/>
      <point x="229" y="300" type="qcurve" smooth="yes"/>
      <point x="240" y="300"/>
      <point x="273" y="309"/>
      <point x="296" y="317" type="qcurve" smooth="yes"/>
      <point x="316" y="325"/>
      <point x="350" y="333"/>
      <point x="362" y="333" type="qcurve" smooth="yes"/>
      <point x="403" y="333"/>
      <point x="462" y="266"/>
      <point x="462" y="220" type="qcurve" smooth="yes"/>
      <point x="462" y="137"/>
      <point x="365" y="20"/>
      <point x="296" y="20" type="qcurve"/>
      <point x="312" y="-16"/>
      <point x="395" y="-79"/>
      <point x="455" y="-100" type="qcurve"/>
    </contour>
  </outline>
</glyph>
<glyph name="udeva" format="1">
  <advance width="631"/>
  <unicode hex="0909"/>
  <outline>
    <contour>
      <point x="461" y="664" type="move" name="DVAnchor3"/>
    </contour>
    <contour>
      <point x="-13" y="606" type="line"/>
      <point x="-13" y="666" type="line"/>
      <point x="644" y="666" type="line"/>
      <point x="644" y="606" type="line"/>
      <point x="502" y="606" type="line"/>
      <point x="522" y="583"/>
      <point x="542" y="527"/>
      <point x="542" y="499" type="qcurve" smooth="yes"/>
      <point x="542" y="455"/>
      <point x="506" y="384"/>
      <point x="475" y="366" type="qcurve"/>
      <point x="518" y="352"/>
      <point x="569" y="264"/>
      <point x="569" y="206" type="qcurve" smooth="yes"/>
      <point x="569" y="129"/>
      <point x="463" y="20"/>
      <point x="389" y="20" type="qcurve" smooth="yes"/>
      <point x="286" y="20"/>
      <point x="95" y="237"/>
      <point x="23" y="433" type="qcurve"/>
      <point x="77" y="457" type="line"/>
      <point x="141" y="281"/>
      <point x="305" y="87"/>
      <point x="389" y="87" type="qcurve" smooth="yes"/>
      <point x="435" y="87"/>
      <point x="502" y="157"/>
      <point x="502" y="206" type="qcurve" smooth="yes"/>
      <point x="502" y="261"/>
      <point x="439" y="340"/>
      <point x="395" y="340" type="qcurve"/>
      <point x="262" y="340" type="line"/>
      <point x="236" y="399" type="line"/>
      <point x="382" y="399" type="line" smooth="yes"/>
      <point x="421" y="399"/>
      <point x="475" y="458"/>
      <point x="475" y="499" type="qcurve" smooth="yes"/>
      <point x="475" y="527"/>
      <point x="443" y="583"/>
      <point x="415" y="606" type="qcurve"/>
    </contour>
  </outline>
</glyph>
<glyph name="uudeva" format="1">
  <advance width="921"/>
  <unicode hex="090A"/>
  <outline>
    <contour>
      <point x="453" y="664" type="move" name="DVAnchor3"/>
    </contour>
    <contour>
      <point x="-13" y="606" type="line"/>
      <point x="-13" y="666" type="line"/>
      <point x="935" y="666" type="line"/>
      <point x="935" y="606" type="line"/>
      <point x="495" y="606" type="line"/>
      <point x="517" y="581"/>
      <point x="539" y="526"/>
      <point x="539" y="499" type="qcurve" smooth="yes"/>
      <point x="539" y="454"/>
      <point x="499" y="385"/>
      <point x="466" y="373" type="qcurve"/>
      <point x="498" y="358"/>
      <point x="538" y="318"/>
      <point x="542" y="298" type="qcurve"/>
      <point x="565" y="353"/>
      <point x="654" y="419"/>
      <point x="706" y="419" type="qcurve" smooth="yes"/>
      <point x="778" y="419"/>
      <point x="879" y="326"/>
      <point x="879" y="260" type="qcurve" smooth="yes"/>
      <point x="879" y="193"/>
      <point x="819" y="77"/>
      <point x="766" y="40" type="qcurve"/>
      <point x="722" y="89" type="line"/>
      <point x="764" y="113"/>
      <point x="812" y="205"/>
      <point x="812" y="260" type="qcurve" smooth="yes"/>
      <point x="812" y="301"/>
      <point x="750" y="360"/>
      <point x="706" y="360" type="qcurve" smooth="yes"/>
      <point x="656" y="360"/>
      <point x="574" y="250"/>
      <point x="559" y="166" type="qcurve"/>
      <point x="549" y="103"/>
      <point x="446" y="20"/>
      <point x="380" y="20" type="qcurve" smooth="yes"/>
      <point x="274" y="20"/>
      <point x="77" y="257"/>
      <point x="27" y="446" type="qcurve"/>
      <point x="87" y="473" type="line"/>
      <point x="132" y="302"/>
      <point x="296" y="87"/>
      <point x="380" y="87" type="qcurve" smooth="yes"/>
      <point x="429" y="87"/>
      <point x="499" y="165"/>
      <point x="499" y="220" type="qcurve" smooth="yes"/>
      <point x="499" y="269"/>
      <point x="429" y="340"/>
      <point x="380" y="340" type="qcurve"/>
      <point x="260" y="340" type="line"/>
      <point x="233" y="399" type="line"/>
      <point x="366" y="399" type="line" smooth="yes"/>
      <point x="410" y="399"/>
      <point x="471" y="458"/>
      <point x="471" y="499" type="qcurve" smooth="yes"/>
      <point x="471" y="523"/>
      <point x="437" y="579"/>
      <point x="406" y="606" type="qcurve"/>
    </contour>
  </outline>
</glyph>
<glyph name="rvocalicdeva" format="1">
  <advance width="864"/>
  <unicode hex="090B"/>
  <outline>
    <contour>
      <point x="460" y="664" type="move" name="DVAnchor3"/>
    </contour>
    <contour>
      <point x="471" y="26" type="move" name="DVAnchor0"/>
    </contour>
    <contour>
      <point x="205" y="493" type="qcurve"/>
      <point x="234" y="493"/>
      <point x="296" y="462"/>
      <point x="325" y="433" type="qcurve"/>
      <point x="431" y="326" type="line"/>
      <point x="431" y="606" type="line"/>
      <point x="-13" y="606" type="line"/>
      <point x="-13" y="666" type="line"/>
      <point x="878" y="666" type="line"/>
      <point x="878" y="606" type="line"/>
      <point x="498" y="606" type="line"/>
      <point x="498" y="366" type="line"/>
      <point x="513" y="360"/>
      <point x="549" y="353"/>
      <point x="571" y="353" type="qcurve" smooth="yes"/>
      <point x="589" y="353"/>
      <point x="613" y="357"/>
      <point x="618" y="360" type="qcurve"/>
      <point x="609" y="373"/>
      <point x="598" y="403"/>
      <point x="598" y="419" type="qcurve" smooth="yes"/>
      <point x="598" y="442"/>
      <point x="640" y="473"/>
      <point x="671" y="473" type="qcurve" smooth="yes"/>
      <point x="702" y="473"/>
      <point x="744" y="434"/>
      <point x="744" y="406" type="qcurve" smooth="yes"/>
      <point x="744" y="381"/>
      <point x="723" y="341"/>
      <point x="704" y="333" type="qcurve"/>
      <point x="762" y="276"/>
      <point x="824" y="161"/>
      <point x="824" y="113" type="qcurve" smooth="yes"/>
      <point x="824" y="61"/>
      <point x="750" y="-13"/>
      <point x="698" y="-13" type="qcurve" smooth="yes"/>
      <point x="656" y="-13"/>
      <point x="590" y="43"/>
      <point x="578" y="87" type="qcurve"/>
      <point x="638" y="113" type="line"/>
      <point x="642" y="87"/>
      <point x="676" y="53"/>
      <point x="698" y="53" type="qcurve" smooth="yes"/>
      <point x="723" y="53"/>
      <point x="758" y="88"/>
      <point x="758" y="113" type="qcurve" smooth="yes"/>
      <point x="758" y="157"/>
      <point x="695" y="258"/>
      <point x="638" y="306" type="qcurve"/>
      <point x="623" y="300"/>
      <point x="590" y="293"/>
      <point x="571" y="293" type="qcurve" smooth="yes"/>
      <point x="546" y="293"/>
      <point x="510" y="300"/>
      <point x="498" y="306" type="qcurve"/>
      <point x="498" y="0" type="line"/>
      <point x="431" y="0" type="line"/>
      <point x="431" y="253" type="line"/>
      <point x="158" y="127" type="line"/>
      <point x="119" y="180" type="line"/>
      <point x="378" y="300" type="line"/>
      <point x="305" y="373" type="line"/>
      <point x="274" y="402"/>
      <point x="222" y="433"/>
      <point x="205" y="433" type="qcurve" smooth="yes"/>
      <point x="177" y="433"/>
      <point x="99" y="398"/>
      <point x="52" y="366" type="qcurve"/>
      <point x="12" y="413" type="line"/>
      <point x="68" y="451"/>
      <point x="166" y="493"/>
    </contour>
  </outline>
</glyph>
<glyph name="lvocalicdeva" format="1">
  <advance width="703"/>
  <unicode hex="090C"/>
  <outline>
    <contour>
      <point x="250" y="0" type="line"/>
      <point x="157" y="40"/>
      <point x="44" y="185"/>
      <point x="44" y="266" type="qcurve" smooth="yes"/>
      <point x="44" y="346"/>
      <point x="141" y="459"/>
      <point x="210" y="459" type="qcurve" smooth="yes"/>
      <point x="246" y="459"/>
      <point x="317" y="417"/>
      <point x="344" y="380" type="qcurve"/>
      <point x="364" y="410"/>
      <point x="422" y="451"/>
      <point x="457" y="459" type="qcurve"/>
      <point x="457" y="606" type="line"/>
      <point x="-13" y="606" type="line"/>
      <point x="-13" y="666" type="line"/>
      <point x="716" y="666" type="line"/>
      <point x="716" y="606" type="line"/>
      <point x="523" y="606" type="line"/>
      <point x="523" y="459" type="line"/>
      <point x="583" y="441"/>
      <point x="656" y="320"/>
      <point x="656" y="240" type="qcurve" smooth="yes"/>
      <point x="656" y="168"/>
      <point x="574" y="56"/>
      <point x="510" y="40" type="qcurve" smooth="yes"/>
      <point x="466" y="29"/>
      <point x="410" y="-31"/>
      <point x="410" y="-67" type="qcurve" smooth="yes"/>
      <point x="410" y="-103"/>
      <point x="469" y="-153"/>
      <point x="510" y="-153" type="qcurve" smooth="yes"/>
      <point x="549" y="-153"/>
      <point x="614" y="-136"/>
      <point x="637" y="-120" type="qcurve"/>
      <point x="656" y="-180" type="line"/>
      <point x="629" y="-200"/>
      <point x="554" y="-220"/>
      <point x="510" y="-220" type="qcurve" smooth="yes"/>
      <point x="441" y="-220"/>
      <point x="344" y="-130"/>
      <point x="344" y="-67" type="qcurve" smooth="yes"/>
      <point x="344" y="-8"/>
      <point x="423" y="83"/>
      <point x="485" y="93" type="qcurve" smooth="yes"/>
      <point x="530" y="101"/>
      <point x="590" y="184"/>
      <point x="590" y="240" type="qcurve" smooth="yes"/>
      <point x="590" y="304"/>
      <point x="523" y="393"/>
      <point x="477" y="393" type="qcurve" smooth="yes"/>
      <point x="439" y="393"/>
      <point x="369" y="292"/>
      <point x="350" y="213" type="qcurve"/>
      <point x="284" y="233" type="line"/>
      <point x="289" y="257"/>
      <point x="306" y="304"/>
      <point x="317" y="326" type="qcurve"/>
      <point x="298" y="357"/>
      <point x="241" y="393"/>
      <point x="210" y="393" type="qcurve" smooth="yes"/>
      <point x="169" y="393"/>
      <point x="111" y="318"/>
      <point x="111" y="266" type="qcurve" smooth="yes"/>
      <point x="111" y="201"/>
      <point x="201" y="85"/>
      <point x="277" y="53" type="qcurve"/>
    </contour>
  </outline>
</glyph>
<glyph name="ecandradeva" format="1">
  <advance width="490"/>
  <unicode hex="090D"/>
  <outline>
    <contour>
      <point x="248" y="752" type="qcurve"/>
      <point x="174" y="752"/>
      <point x="61" y="854"/>
      <point x="48" y="932" type="qcurve"/>
      <point x="115" y="932" type="line"/>
      <point x="124" y="878"/>
      <point x="200" y="806"/>
      <point x="248" y="806" type="qcurve" smooth="yes"/>
      <point x="296" y="806"/>
      <point x="372" y="878"/>
      <point x="381" y="932" type="qcurve"/>
      <point x="447" y="932" type="line"/>
      <point x="434" y="854"/>
      <point x="321" y="752"/>
    </contour>
    <contour>
      <point x="368" y="-127" type="qcurve"/>
      <point x="314" y="-80" type="line"/>
      <point x="341" y="-76"/>
      <point x="374" y="-49"/>
      <point x="374" y="-33" type="qcurve" smooth="yes"/>
      <point x="374" y="-24"/>
      <point x="361" y="0"/>
      <point x="348" y="13" type="qcurve"/>
      <point x="101" y="240" type="line"/>
      <point x="83" y="258"/>
      <point x="61" y="297"/>
      <point x="61" y="313" type="qcurve"/>
      <point x="61" y="606" type="line"/>
      <point x="-13" y="606" type="line"/>
      <point x="-13" y="666" type="line"/>
      <point x="503" y="666" type="line"/>
      <point x="503" y="606" type="line"/>
      <point x="427" y="606" type="line"/>
      <point x="427" y="406" type="line" smooth="yes"/>
      <point x="427" y="354"/>
      <point x="380" y="277"/>
      <point x="341" y="266" type="qcurve"/>
      <point x="301" y="313" type="line"/>
      <point x="325" y="320"/>
      <point x="354" y="376"/>
      <point x="354" y="413" type="qcurve"/>
      <point x="354" y="606" type="line"/>
      <point x="134" y="606" type="line"/>
      <point x="134" y="353" type="line" smooth="yes"/>
      <point x="134" y="324"/>
      <point x="148" y="280"/>
      <point x="161" y="266" type="qcurve"/>
      <point x="394" y="47" type="line"/>
      <point x="419" y="25"/>
      <point x="447" y="-16"/>
      <point x="447" y="-33" type="qcurve" smooth="yes"/>
      <point x="447" y="-63"/>
      <point x="403" y="-113"/>
    </contour>
  </outline>
</glyph>
<glyph name="eshortdeva" format="1">
  <advance width="490"/>
  <unicode hex="090E"/>
  <outline>
    <contour>
      <point x="221" y="804" type="qcurve"/>
      <point x="148" y="804"/>
      <point x="35" y="905"/>
      <point x="21" y="984" type="qcurve"/>
      <point x="88" y="984" type="line"/>
      <point x="97" y="929"/>
      <point x="173" y="857"/>
      <point x="221" y="857" type="qcurve" smooth="yes"/>
      <point x="263" y="857"/>
      <point x="333" y="829"/>
      <point x="362" y="800" type="qcurve"/>
      <point x="391" y="773"/>
      <point x="421" y="706"/>
      <point x="421" y="666" type="qcurve"/>
      <point x="503" y="666" type="line"/>
      <point x="503" y="606" type="line"/>
      <point x="427" y="606" type="line"/>
      <point x="427" y="399" type="line" smooth="yes"/>
      <point x="427" y="350"/>
      <point x="380" y="277"/>
      <point x="341" y="266" type="qcurve"/>
      <point x="301" y="313" type="line"/>
      <point x="325" y="320"/>
      <point x="354" y="376"/>
      <point x="354" y="413" type="qcurve"/>
      <point x="354" y="606" type="line"/>
      <point x="134" y="606" type="line"/>
      <point x="134" y="353" type="line" smooth="yes"/>
      <point x="134" y="324"/>
      <point x="148" y="280"/>
      <point x="161" y="266" type="qcurve"/>
      <point x="394" y="47" type="line"/>
      <point x="419" y="25"/>
      <point x="447" y="-16"/>
      <point x="447" y="-33" type="qcurve" smooth="yes"/>
      <point x="447" y="-63"/>
      <point x="403" y="-113"/>
      <point x="368" y="-127" type="qcurve"/>
      <point x="314" y="-80" type="line"/>
      <point x="341" y="-76"/>
      <point x="374" y="-49"/>
      <point x="374" y="-33" type="qcurve" smooth="yes"/>
      <point x="374" y="-24"/>
      <point x="361" y="0"/>
      <point x="348" y="13" type="qcurve"/>
      <point x="101" y="240" type="line"/>
      <point x="83" y="258"/>
      <point x="61" y="297"/>
      <point x="61" y="313" type="qcurve"/>
      <point x="61" y="606" type="line"/>
      <point x="-13" y="606" type="line"/>
      <point x="-13" y="666" type="line"/>
      <point x="354" y="666" type="line"/>
      <point x="354" y="694"/>
      <point x="334" y="742"/>
      <point x="315" y="762" type="qcurve" smooth="yes"/>
      <point x="296" y="783"/>
      <point x="249" y="804"/>
    </contour>
  </outline>
</glyph>
<glyph name="edeva" format="1">
  <advance width="486"/>
  <unicode hex="090F"/>
  <outline>
    <contour>
      <point x="265" y="664" type="move" name="DVAnchor3"/>
    </contour>
    <contour>
      <point x="-13" y="606" type="line"/>
      <point x="-13" y="666" type="line"/>
      <point x="499" y="666" type="line"/>
      <point x="499" y="606" type="line"/>
      <point x="419" y="606" type="line"/>
      <point x="419" y="411" type="line" smooth="yes"/>
      <point x="419" y="357"/>
      <point x="376" y="276"/>
      <point x="340" y="266" type="qcurve"/>
      <point x="300" y="313" type="line"/>
      <point x="324" y="320"/>
      <point x="353" y="376"/>
      <point x="353" y="413" type="qcurve"/>
      <point x="353" y="606" type="line"/>
      <point x="127" y="606" type="line"/>
      <point x="127" y="353" type="line" smooth="yes"/>
      <point x="127" y="328"/>
      <point x="144" y="282"/>
      <point x="160" y="266" type="qcurve"/>
      <point x="393" y="47" type="line"/>
      <point x="418" y="25"/>
      <point x="446" y="-16"/>
      <point x="446" y="-33" type="qcurve" smooth="yes"/>
      <point x="446" y="-63"/>
      <point x="402" y="-113"/>
      <point x="366" y="-127" type="qcurve"/>
      <point x="313" y="-80" type="line"/>
      <point x="340" y="-76"/>
      <point x="373" y="-49"/>
      <point x="373" y="-33" type="qcurve" smooth="yes"/>
      <point x="373" y="-24"/>
      <point x="360" y="0"/>
      <point x="346" y="13" type="qcurve"/>
      <point x="100" y="240" type="line" smooth="yes"/>
      <point x="81" y="258"/>
      <point x="60" y="317"/>
      <point x="60" y="350" type="qcurve"/>
      <point x="60" y="606" type="line"/>
    </contour>
  </outline>
</glyph>
<glyph name="aideva" format="1">
  <advance width="491"/>
  <unicode hex="0910"/>
  <outline>
    <contour>
      <point x="-13" y="606" type="line"/>
      <point x="-13" y="666" type="line"/>
      <point x="352" y="666" type="line"/>
      <point x="152" y="892" type="line"/>
      <point x="212" y="945" type="line"/>
      <point x="426" y="666" type="line"/>
      <point x="505" y="666" type="line"/>
      <point x="505" y="606" type="line"/>
      <point x="431" y="606" type="line"/>
      <point x="431" y="413" type="line" smooth="yes"/>
      <point x="431" y="369"/>
      <point x="386" y="288"/>
      <point x="345" y="260" type="qcurve"/>
      <point x="305" y="313" type="line"/>
      <point x="333" y="337"/>
      <point x="365" y="390"/>
      <point x="365" y="415" type="qcurve"/>
      <point x="365" y="606" type="line"/>
      <point x="125" y="606" type="line"/>
      <point x="125" y="340" type="line" smooth="yes"/>
      <point x="125" y="324"/>
      <point x="153" y="278"/>
      <point x="178" y="253" type="qcurve"/>
      <point x="398" y="47" type="line"/>
      <point x="421" y="24"/>
      <point x="445" y="-17"/>
      <point x="445" y="-33" type="qcurve" smooth="yes"/>
      <point x="445" y="-63"/>
      <point x="401" y="-113"/>
      <point x="365" y="-127" type="qcurve"/>
      <point x="312" y="-80" type="line"/>
      <point x="340" y="-75"/>
      <point x="376" y="-49"/>
      <point x="376" y="-33" type="qcurve" smooth="yes"/>
      <point x="376" y="-23"/>
      <point x="356" y="9"/>
      <point x="338" y="27" type="qcurve"/>
      <point x="119" y="233" type="line"/>
      <point x="91" y="257"/>
      <point x="59" y="313"/>
      <point x="59" y="341" type="qcurve"/>
      <point x="59" y="606" type="line"/>
    </contour>
  </outline>
</glyph>
<glyph name="ocandradeva" format="1">
  <advance width="1042"/>
  <unicode hex="0911"/>
  <outline>
    <contour>
      <point x="723" y="746" type="qcurve"/>
      <point x="651" y="746"/>
      <point x="538" y="851"/>
      <point x="523" y="932" type="qcurve"/>
      <point x="590" y="932" type="line"/>
      <point x="599" y="878"/>
      <point x="675" y="806"/>
      <point x="723" y="806" type="qcurve" smooth="yes"/>
      <point x="771" y="806"/>
      <point x="847" y="878"/>
      <point x="856" y="932" type="qcurve"/>
      <point x="923" y="932" type="line"/>
      <point x="908" y="851"/>
      <point x="795" y="746"/>
    </contour>
    <contour>
      <point x="310" y="47" type="qcurve"/>
      <point x="230" y="47"/>
      <point x="80" y="180"/>
      <point x="24" y="300" type="qcurve"/>
      <point x="71" y="340" type="line"/>
      <point x="121" y="232"/>
      <point x="246" y="113"/>
      <point x="310" y="113" type="qcurve" smooth="yes"/>
      <point x="352" y="113"/>
      <point x="410" y="184"/>
      <point x="410" y="233" type="qcurve" smooth="yes"/>
      <point x="410" y="280"/>
      <point x="344" y="346"/>
      <point x="297" y="346" type="qcurve" smooth="yes"/>
      <point x="282" y="346"/>
      <point x="249" y="340"/>
      <point x="230" y="333" type="qcurve"/>
      <point x="204" y="393" type="line"/>
      <point x="264" y="398"/>
      <point x="357" y="471"/>
      <point x="357" y="513" type="qcurve" smooth="yes"/>
      <point x="357" y="549"/>
      <point x="302" y="599"/>
      <point x="264" y="599" type="qcurve" smooth="yes"/>
      <point x="229" y="599"/>
      <point x="152" y="554"/>
      <point x="117" y="513" type="qcurve"/>
      <point x="71" y="559" type="line"/>
      <point x="105" y="610"/>
      <point x="208" y="666"/>
      <point x="264" y="666" type="qcurve" smooth="yes"/>
      <point x="330" y="666"/>
      <point x="423" y="577"/>
      <point x="423" y="513" type="qcurve" smooth="yes"/>
      <point x="423" y="479"/>
      <point x="391" y="417"/>
      <point x="364" y="393" type="qcurve"/>
      <point x="409" y="366"/>
      <point x="494" y="340"/>
      <point x="530" y="340" type="qcurve" smooth="yes"/>
      <point x="543" y="340"/>
      <point x="581" y="353"/>
      <point x="603" y="366" type="qcurve"/>
      <point x="603" y="606" type="line"/>
      <point x="483" y="606" type="line"/>
      <point x="483" y="666" type="line"/>
      <point x="1056" y="666" type="line"/>
      <point x="1056" y="606" type="line"/>
      <point x="943" y="606" type="line"/>
      <point x="943" y="0" type="line"/>
      <point x="876" y="0" type="line"/>
      <point x="876" y="606" type="line"/>
      <point x="670" y="606" type="line"/>
      <point x="670" y="0" type="line"/>
      <point x="603" y="0" type="line"/>
      <point x="603" y="300" type="line"/>
      <point x="587" y="286"/>
      <point x="550" y="273"/>
      <point x="530" y="273" type="qcurve" smooth="yes"/>
      <point x="505" y="273"/>
      <point x="463" y="284"/>
      <point x="450" y="293" type="qcurve"/>
      <point x="463" y="280"/>
      <point x="477" y="245"/>
      <point x="477" y="226" type="qcurve" smooth="yes"/>
      <point x="477" y="152"/>
      <point x="380" y="47"/>
    </contour>
  </outline>
</glyph>
<glyph name="audeva" format="1">
  <advance width="1042"/>
  <unicode hex="0914"/>
  <outline>
    <contour>
      <point x="310" y="47" type="qcurve"/>
      <point x="230" y="47"/>
      <point x="80" y="180"/>
      <point x="24" y="300" type="qcurve"/>
      <point x="71" y="340" type="line"/>
      <point x="121" y="232"/>
      <point x="246" y="113"/>
      <point x="310" y="113" type="qcurve" smooth="yes"/>
      <point x="352" y="113"/>
      <point x="410" y="176"/>
      <point x="410" y="220" type="qcurve" smooth="yes"/>
      <point x="410" y="272"/>
      <point x="344" y="346"/>
      <point x="297" y="346" type="qcurve" smooth="yes"/>
      <point x="282" y="346"/>
      <point x="249" y="340"/>
      <point x="230" y="333" type="qcurve"/>
      <point x="204" y="393" type="line"/>
      <point x="264" y="398"/>
      <point x="357" y="471"/>
      <point x="357" y="513" type="qcurve" smooth="yes"/>
      <point x="357" y="551"/>
      <point x="294" y="606"/>
      <point x="250" y="606" type="qcurve" smooth="yes"/>
      <point x="220" y="606"/>
      <point x="152" y="561"/>
      <point x="124" y="519" type="qcurve"/>
      <point x="71" y="559" type="line"/>
      <point x="108" y="613"/>
      <point x="204" y="672"/>
      <point x="250" y="672" type="qcurve" smooth="yes"/>
      <point x="322" y="672"/>
      <point x="423" y="579"/>
      <point x="423" y="513" type="qcurve" smooth="yes"/>
      <point x="423" y="479"/>
      <point x="391" y="417"/>
      <point x="364" y="393" type="qcurve"/>
      <point x="414" y="364"/>
      <point x="499" y="333"/>
      <point x="530" y="333" type="qcurve" smooth="yes"/>
      <point x="539" y="333"/>
      <point x="573" y="349"/>
      <point x="603" y="366" type="qcurve"/>
      <point x="603" y="606" type="line"/>
      <point x="483" y="606" type="line"/>
      <point x="483" y="666" type="line"/>
      <point x="846" y="666" type="line"/>
      <point x="570" y="846" type="line"/>
      <point x="610" y="905" type="line"/>
      <point x="903" y="672" type="line"/>
      <point x="763" y="959" type="line"/>
      <point x="830" y="999" type="line"/>
      <point x="940" y="666" type="line"/>
      <point x="1056" y="666" type="line"/>
      <point x="1056" y="606" type="line"/>
      <point x="943" y="606" type="line"/>
      <point x="943" y="0" type="line"/>
      <point x="876" y="0" type="line"/>
      <point x="876" y="606" type="line"/>
      <point x="670" y="606" type="line"/>
      <point x="670" y="0" type="line"/>
      <point x="603" y="0" type="line"/>
      <point x="603" y="300" type="line"/>
      <point x="587" y="286"/>
      <point x="554" y="273"/>
      <point x="537" y="273" type="qcurve" smooth="yes"/>
      <point x="509" y="273"/>
      <point x="463" y="284"/>
      <point x="450" y="293" type="qcurve"/>
      <point x="463" y="282"/>
      <point x="477" y="244"/>
      <point x="477" y="220" type="qcurve" smooth="yes"/>
      <point x="477" y="148"/>
      <point x="380" y="47"/>
    </contour>
  </outline>
</glyph>
<glyph name="kadeva" format="1">
  <advance width="749"/>
  <unicode hex="0915"/>
  <outline>
    <contour>
      <point x="381" y="664" type="move" name="DVAnchor3"/>
    </contour>
    <contour>
      <point x="380" y="23" type="move" name="DVAnchor0"/>
    </contour>
    <contour>
      <point x="-13" y="606" type="line"/>
      <point x="-13" y="666" type="line"/>
      <point x="763" y="666" type="line"/>
      <point x="763" y="606" type="line"/>
      <point x="411" y="606" type="line"/>
      <point x="411" y="426" type="line"/>
      <point x="433" y="463"/>
      <point x="507" y="506"/>
      <point x="551" y="506" type="qcurve" smooth="yes"/>
      <point x="615" y="506"/>
      <point x="704" y="401"/>
      <point x="704" y="326" type="qcurve" smooth="yes"/>
      <point x="704" y="262"/>
      <point x="638" y="137"/>
      <point x="578" y="87" type="qcurve"/>
      <point x="518" y="127" type="line"/>
      <point x="574" y="166"/>
      <point x="638" y="272"/>
      <point x="638" y="326" type="qcurve" smooth="yes"/>
      <point x="638" y="373"/>
      <point x="587" y="439"/>
      <point x="551" y="439" type="qcurve" smooth="yes"/>
      <point x="505" y="439"/>
      <point x="426" y="369"/>
      <point x="411" y="313" type="qcurve"/>
      <point x="411" y="0" type="line"/>
      <point x="345" y="0" type="line"/>
      <point x="345" y="200" type="line"/>
      <point x="321" y="172"/>
      <point x="252" y="140"/>
      <point x="212" y="140" type="qcurve" smooth="yes"/>
      <point x="140" y="140"/>
      <point x="39" y="241"/>
      <point x="39" y="313" type="qcurve" smooth="yes"/>
      <point x="39" y="393"/>
      <point x="156" y="506"/>
      <point x="238" y="506" type="qcurve" smooth="yes"/>
      <point x="262" y="506"/>
      <point x="297" y="499"/>
      <point x="305" y="493" type="qcurve"/>
      <point x="292" y="426" type="line"/>
      <point x="280" y="433"/>
      <point x="253" y="439"/>
      <point x="238" y="439" type="qcurve" smooth="yes"/>
      <point x="184" y="439"/>
      <point x="105" y="365"/>
      <point x="105" y="313" type="qcurve" smooth="yes"/>
      <point x="105" y="269"/>
      <point x="168" y="206"/>
      <point x="212" y="206" type="qcurve" smooth="yes"/>
      <point x="250" y="206"/>
      <point x="322" y="253"/>
      <point x="345" y="293" type="qcurve"/>
      <point x="345" y="606" type="line"/>
    </contour>
  </outline>
</glyph>
<glyph name="khadeva" format="1">
  <advance width="825"/>
  <unicode hex="0916"/>
  <outline>
    <contour>
      <point x="693" y="664" type="move" name="DVAnchor3"/>
    </contour>
    <contour>
      <point x="695" y="29" type="move" name="DVAnchor0"/>
    </contour>
    <contour>
      <point x="406" y="60" type="qcurve"/>
      <point x="481" y="60"/>
      <point x="617" y="145"/>
      <point x="659" y="220" type="qcurve"/>
      <point x="659" y="273" type="line"/>
      <point x="633" y="250"/>
      <point x="578" y="226"/>
      <point x="553" y="226" type="qcurve" smooth="yes"/>
      <point x="486" y="226"/>
      <point x="393" y="310"/>
      <point x="393" y="369" type="qcurve" smooth="yes"/>
      <point x="393" y="429"/>
      <point x="486" y="513"/>
      <point x="553" y="513" type="qcurve" smooth="yes"/>
      <point x="578" y="513"/>
      <point x="622" y="502"/>
      <point x="639" y="493" type="qcurve"/>
      <point x="639" y="426" type="line"/>
      <point x="613" y="435"/>
      <point x="569" y="446"/>
      <point x="553" y="446" type="qcurve" smooth="yes"/>
      <point x="514" y="446"/>
      <point x="459" y="401"/>
      <point x="459" y="369" type="qcurve" smooth="yes"/>
      <point x="459" y="337"/>
      <point x="514" y="293"/>
      <point x="553" y="293" type="qcurve" smooth="yes"/>
      <point x="574" y="293"/>
      <point x="629" y="321"/>
      <point x="659" y="346" type="qcurve"/>
      <point x="659" y="606" type="line"/>
      <point x="293" y="606" type="line"/>
      <point x="293" y="459" type="line" smooth="yes"/>
      <point x="293" y="395"/>
      <point x="222" y="306"/>
      <point x="173" y="306" type="qcurve" smooth="yes"/>
      <point x="164" y="306"/>
      <point x="146" y="310"/>
      <point x="140" y="313" type="qcurve"/>
      <point x="181" y="198"/>
      <point x="328" y="60"/>
    </contour>
    <contour>
      <point x="-13" y="606" type="line"/>
      <point x="-13" y="666" type="line"/>
      <point x="839" y="666" type="line"/>
      <point x="839" y="606" type="line"/>
      <point x="726" y="606" type="line"/>
      <point x="726" y="0" type="line"/>
      <point x="659" y="0" type="line"/>
      <point x="659" y="133" type="line"/>
      <point x="615" y="71"/>
      <point x="481" y="0"/>
      <point x="406" y="0" type="qcurve" smooth="yes"/>
      <point x="290" y="0"/>
      <point x="79" y="245"/>
      <point x="27" y="439" type="qcurve"/>
      <point x="80" y="466" type="line"/>
      <point x="95" y="423"/>
      <point x="146" y="373"/>
      <point x="173" y="373" type="qcurve" smooth="yes"/>
      <point x="196" y="373"/>
      <point x="226" y="423"/>
      <point x="226" y="459" type="qcurve"/>
      <point x="226" y="606" type="line"/>
    </contour>
  </outline>
</glyph>
<glyph name="gadeva" format="1">
  <advance width="517"/>
  <unicode hex="0917"/>
  <outline>
    <contour>
      <point x="386" y="664" type="move" name="DVAnchor3"/>
    </contour>
    <contour>
      <point x="-13" y="606" type="line"/>
      <point x="-13" y="666" type="line"/>
      <point x="531" y="666" type="line"/>
      <point x="531" y="606" type="line"/>
      <point x="418" y="606" type="line"/>
      <point x="418" y="0" type="line"/>
      <point x="352" y="0" type="line"/>
      <point x="352" y="606" type="line"/>
      <point x="185" y="606" type="line"/>
      <point x="185" y="280" type="line" smooth="yes"/>
      <point x="185" y="264"/>
      <point x="165" y="240"/>
      <point x="152" y="240" type="qcurve" smooth="yes"/>
      <point x="127" y="240"/>
      <point x="19" y="365"/>
      <point x="19" y="393" type="qcurve" smooth="yes"/>
      <point x="19" y="403"/>
      <point x="35" y="419"/>
      <point x="45" y="419" type="qcurve"/>
      <point x="92" y="419" type="line" smooth="yes"/>
      <point x="103" y="419"/>
      <point x="119" y="439"/>
      <point x="119" y="453" type="qcurve"/>
      <point x="119" y="606" type="line"/>
    </contour>
  </outline>
</glyph>
<glyph name="ghadeva" format="1">
  <advance width="636"/>
  <unicode hex="0918"/>
  <outline>
    <contour>
      <point x="506" y="664" type="move" name="DVAnchor3"/>
    </contour>
    <contour>
      <point x="264" y="180" type="qcurve"/>
      <point x="314" y="180"/>
      <point x="422" y="242"/>
      <point x="470" y="300" type="qcurve"/>
      <point x="470" y="606" type="line"/>
      <point x="164" y="606" type="line"/>
      <point x="142" y="594"/>
      <point x="117" y="550"/>
      <point x="117" y="526" type="qcurve" smooth="yes"/>
      <point x="117" y="490"/>
      <point x="184" y="439"/>
      <point x="230" y="439" type="qcurve"/>
      <point x="317" y="439" type="line"/>
      <point x="337" y="380" type="line"/>
      <point x="277" y="380" type="line" smooth="yes"/>
      <point x="220" y="380"/>
      <point x="137" y="321"/>
      <point x="137" y="280" type="qcurve" smooth="yes"/>
      <point x="137" y="238"/>
      <point x="212" y="180"/>
    </contour>
    <contour>
      <point x="-13" y="606" type="line"/>
      <point x="-13" y="666" type="line"/>
      <point x="650" y="666" type="line"/>
      <point x="650" y="606" type="line"/>
      <point x="537" y="606" type="line"/>
      <point x="537" y="0" type="line"/>
      <point x="470" y="0" type="line"/>
      <point x="470" y="213" type="line"/>
      <point x="422" y="165"/>
      <point x="314" y="113"/>
      <point x="264" y="113" type="qcurve" smooth="yes"/>
      <point x="184" y="113"/>
      <point x="71" y="210"/>
      <point x="71" y="280" type="qcurve" smooth="yes"/>
      <point x="71" y="316"/>
      <point x="109" y="380"/>
      <point x="144" y="399" type="qcurve"/>
      <point x="101" y="414"/>
      <point x="51" y="485"/>
      <point x="51" y="526" type="qcurve" smooth="yes"/>
      <point x="51" y="546"/>
      <point x="68" y="587"/>
      <point x="84" y="606" type="qcurve"/>
    </contour>
  </outline>
</glyph>
<glyph name="ngadeva" format="1">
  <advance width="717"/>
  <unicode hex="0919"/>
  <outline>
    <contour>
      <point x="499" y="664" type="move" name="DVAnchor3"/>
    </contour>
    <contour>
      <point x="394" y="50" type="move" name="DVAnchor0"/>
    </contour>
    <contour>
      <point x="652" y="333" type="qcurve"/>
      <point x="633" y="333"/>
      <point x="603" y="361"/>
      <point x="603" y="380" type="qcurve" smooth="yes"/>
      <point x="603" y="398"/>
      <point x="633" y="426"/>
      <point x="652" y="426" type="qcurve" smooth="yes"/>
      <point x="674" y="426"/>
      <point x="703" y="398"/>
      <point x="703" y="380" type="qcurve" smooth="yes"/>
      <point x="703" y="361"/>
      <point x="674" y="333"/>
    </contour>
    <contour>
      <point x="-13" y="606" type="line"/>
      <point x="-13" y="666" type="line"/>
      <point x="731" y="666" type="line"/>
      <point x="731" y="606" type="line"/>
      <point x="530" y="606" type="line"/>
      <point x="530" y="439" type="line"/>
      <point x="304" y="439" type="line" smooth="yes"/>
      <point x="290" y="439"/>
      <point x="270" y="423"/>
      <point x="270" y="413" type="qcurve" smooth="yes"/>
      <point x="270" y="385"/>
      <point x="345" y="300"/>
      <point x="370" y="300" type="qcurve" smooth="yes"/>
      <point x="393" y="300"/>
      <point x="474" y="333"/>
      <point x="497" y="333" type="qcurve" smooth="yes"/>
      <point x="538" y="333"/>
      <point x="597" y="270"/>
      <point x="597" y="226" type="qcurve" smooth="yes"/>
      <point x="597" y="138"/>
      <point x="479" y="13"/>
      <point x="397" y="13" type="qcurve" smooth="yes"/>
      <point x="301" y="13"/>
      <point x="97" y="174"/>
      <point x="17" y="313" type="qcurve"/>
      <point x="71" y="353" type="line"/>
      <point x="144" y="226"/>
      <point x="318" y="80"/>
      <point x="397" y="80" type="qcurve" smooth="yes"/>
      <point x="451" y="80"/>
      <point x="530" y="165"/>
      <point x="530" y="226" type="qcurve" smooth="yes"/>
      <point x="530" y="242"/>
      <point x="510" y="266"/>
      <point x="497" y="266" type="qcurve" smooth="yes"/>
      <point x="474" y="266"/>
      <point x="393" y="233"/>
      <point x="370" y="233" type="qcurve" smooth="yes"/>
      <point x="329" y="233"/>
      <point x="204" y="369"/>
      <point x="204" y="413" type="qcurve" smooth="yes"/>
      <point x="204" y="449"/>
      <point x="262" y="499"/>
      <point x="304" y="499" type="qcurve"/>
      <point x="463" y="499" type="line"/>
      <point x="463" y="606" type="line"/>
    </contour>
  </outline>
</glyph>
<glyph name="cadeva" format="1">
  <advance width="637"/>
  <unicode hex="091A"/>
  <outline>
    <contour>
      <point x="503" y="664" type="move" name="DVAnchor3"/>
    </contour>
    <contour>
      <point x="-13" y="606" type="line"/>
      <point x="-13" y="666" type="line"/>
      <point x="651" y="666" type="line"/>
      <point x="651" y="606" type="line"/>
      <point x="538" y="606" type="line"/>
      <point x="538" y="0" type="line"/>
      <point x="471" y="0" type="line"/>
      <point x="471" y="240" type="line"/>
      <point x="431" y="184"/>
      <point x="337" y="120"/>
      <point x="292" y="120" type="qcurve" smooth="yes"/>
      <point x="225" y="120"/>
      <point x="132" y="213"/>
      <point x="132" y="280" type="qcurve" smooth="yes"/>
      <point x="132" y="328"/>
      <point x="170" y="406"/>
      <point x="205" y="426" type="qcurve"/>
      <point x="12" y="426" type="line"/>
      <point x="12" y="493" type="line"/>
      <point x="405" y="493" type="line"/>
      <point x="405" y="426" type="line"/>
      <point x="312" y="426" type="line"/>
      <point x="261" y="407"/>
      <point x="198" y="328"/>
      <point x="198" y="280" type="qcurve" smooth="yes"/>
      <point x="198" y="241"/>
      <point x="253" y="186"/>
      <point x="292" y="186" type="qcurve" smooth="yes"/>
      <point x="334" y="186"/>
      <point x="430" y="269"/>
      <point x="471" y="340" type="qcurve"/>
      <point x="471" y="606" type="line"/>
    </contour>
  </outline>
</glyph>
<glyph name="chadeva" format="1">
  <advance width="709"/>
  <unicode hex="091B"/>
  <outline>
    <contour>
      <point x="526" y="664" type="move" name="DVAnchor3"/>
    </contour>
    <contour>
      <point x="322" y="61" type="move" name="DVAnchor0"/>
    </contour>
    <contour>
      <point x="523" y="220" type="qcurve"/>
      <point x="561" y="246"/>
      <point x="603" y="324"/>
      <point x="603" y="366" type="qcurve" smooth="yes"/>
      <point x="603" y="397"/>
      <point x="557" y="439"/>
      <point x="523" y="439" type="qcurve" smooth="yes"/>
      <point x="493" y="439"/>
      <point x="450" y="393"/>
      <point x="450" y="360" type="qcurve" smooth="yes"/>
      <point x="450" y="318"/>
      <point x="489" y="244"/>
    </contour>
    <contour>
      <point x="310" y="100" type="qcurve"/>
      <point x="353" y="100"/>
      <point x="438" y="134"/>
      <point x="477" y="166" type="qcurve"/>
      <point x="431" y="212"/>
      <point x="384" y="312"/>
      <point x="384" y="360" type="qcurve" smooth="yes"/>
      <point x="384" y="415"/>
      <point x="443" y="498"/>
      <point x="490" y="506" type="qcurve"/>
      <point x="490" y="606" type="line"/>
      <point x="170" y="606" type="line"/>
      <point x="145" y="585"/>
      <point x="117" y="533"/>
      <point x="117" y="506" type="qcurve" smooth="yes"/>
      <point x="117" y="467"/>
      <point x="188" y="413"/>
      <point x="237" y="413" type="qcurve"/>
      <point x="310" y="413" type="line"/>
      <point x="310" y="346" type="line"/>
      <point x="257" y="346" type="line" smooth="yes"/>
      <point x="213" y="346"/>
      <point x="150" y="272"/>
      <point x="150" y="220" type="qcurve" smooth="yes"/>
      <point x="150" y="170"/>
      <point x="244" y="100"/>
    </contour>
    <contour>
      <point x="310" y="33" type="qcurve"/>
      <point x="217" y="33"/>
      <point x="84" y="142"/>
      <point x="84" y="220" type="qcurve" smooth="yes"/>
      <point x="84" y="268"/>
      <point x="123" y="349"/>
      <point x="157" y="373" type="qcurve"/>
      <point x="108" y="395"/>
      <point x="51" y="467"/>
      <point x="51" y="506" type="qcurve" smooth="yes"/>
      <point x="51" y="539"/>
      <point x="72" y="593"/>
      <point x="91" y="606" type="qcurve"/>
      <point x="-13" y="606" type="line"/>
      <point x="-13" y="666" type="line"/>
      <point x="723" y="666" type="line"/>
      <point x="723" y="606" type="line"/>
      <point x="557" y="606" type="line"/>
      <point x="557" y="506" type="line"/>
      <point x="606" y="497"/>
      <point x="670" y="418"/>
      <point x="670" y="366" type="qcurve" smooth="yes"/>
      <point x="670" y="249"/>
      <point x="437" y="33"/>
    </contour>
  </outline>
</glyph>
<glyph name="jadeva" format="1">
  <advance width="728"/>
  <unicode hex="091C"/>
  <outline>
    <contour>
      <point x="596" y="664" type="move" name="DVAnchor3"/>
    </contour>
    <contour>
      <point x="309" y="80" type="qcurve"/>
      <point x="237" y="80"/>
      <point x="81" y="273"/>
      <point x="23" y="433" type="qcurve"/>
      <point x="83" y="459" type="line"/>
      <point x="134" y="317"/>
      <point x="258" y="146"/>
      <point x="309" y="146" type="qcurve" smooth="yes"/>
      <point x="342" y="146"/>
      <point x="389" y="197"/>
      <point x="389" y="233" type="qcurve" smooth="yes"/>
      <point x="389" y="290"/>
      <point x="330" y="411"/>
      <point x="276" y="466" type="qcurve"/>
      <point x="562" y="466" type="line"/>
      <point x="562" y="606" type="line"/>
      <point x="-13" y="606" type="line"/>
      <point x="-13" y="666" type="line"/>
      <point x="742" y="666" type="line"/>
      <point x="742" y="606" type="line"/>
      <point x="629" y="606" type="line"/>
      <point x="629" y="0" type="line"/>
      <point x="562" y="0" type="line"/>
      <point x="562" y="399" type="line"/>
      <point x="402" y="399" type="line"/>
      <point x="429" y="362"/>
      <point x="455" y="277"/>
      <point x="455" y="233" type="qcurve" smooth="yes"/>
      <point x="455" y="169"/>
      <point x="370" y="80"/>
    </contour>
  </outline>
</glyph>
<glyph name="jhadeva" format="1">
  <advance width="731"/>
  <unicode hex="091D"/>
  <outline>
    <contour>
      <point x="600" y="664" type="move" name="DVAnchor3"/>
    </contour>
    <contour>
      <point x="478" y="306" type="qcurve"/>
      <point x="493" y="306"/>
      <point x="537" y="320"/>
      <point x="565" y="333" type="qcurve"/>
      <point x="565" y="606" type="line"/>
      <point x="378" y="606" type="line"/>
      <point x="378" y="446" type="line"/>
      <point x="145" y="446" type="line" smooth="yes"/>
      <point x="132" y="446"/>
      <point x="112" y="434"/>
      <point x="112" y="426" type="qcurve" smooth="yes"/>
      <point x="112" y="401"/>
      <point x="172" y="326"/>
      <point x="192" y="326" type="qcurve" smooth="yes"/>
      <point x="212" y="326"/>
      <point x="285" y="353"/>
      <point x="305" y="353" type="qcurve" smooth="yes"/>
      <point x="324" y="353"/>
      <point x="358" y="342"/>
      <point x="372" y="333" type="qcurve" smooth="yes"/>
      <point x="390" y="320"/>
      <point x="445" y="306"/>
    </contour>
    <contour>
      <point x="318" y="-47" type="line"/>
      <point x="274" y="-27"/>
      <point x="201" y="24"/>
      <point x="172" y="53" type="qcurve"/>
      <point x="120" y="53"/>
      <point x="45" y="100"/>
      <point x="45" y="133" type="qcurve" smooth="yes"/>
      <point x="45" y="156"/>
      <point x="76" y="186"/>
      <point x="99" y="186" type="qcurve" smooth="yes"/>
      <point x="127" y="186"/>
      <point x="184" y="152"/>
      <point x="205" y="120" type="qcurve"/>
      <point x="262" y="130"/>
      <point x="338" y="201"/>
      <point x="338" y="246" type="qcurve" smooth="yes"/>
      <point x="338" y="262"/>
      <point x="318" y="286"/>
      <point x="305" y="286" type="qcurve" smooth="yes"/>
      <point x="285" y="286"/>
      <point x="212" y="260"/>
      <point x="192" y="260" type="qcurve" smooth="yes"/>
      <point x="156" y="260"/>
      <point x="45" y="385"/>
      <point x="45" y="426" type="qcurve" smooth="yes"/>
      <point x="45" y="462"/>
      <point x="104" y="513"/>
      <point x="145" y="513" type="qcurve"/>
      <point x="312" y="513" type="line"/>
      <point x="312" y="606" type="line"/>
      <point x="-13" y="606" type="line"/>
      <point x="-13" y="666" type="line"/>
      <point x="744" y="666" type="line"/>
      <point x="744" y="606" type="line"/>
      <point x="631" y="606" type="line"/>
      <point x="631" y="0" type="line"/>
      <point x="565" y="0" type="line"/>
      <point x="565" y="266" type="line"/>
      <point x="543" y="257"/>
      <point x="499" y="246"/>
      <point x="478" y="246" type="qcurve" smooth="yes"/>
      <point x="459" y="246"/>
      <point x="423" y="253"/>
      <point x="405" y="260" type="qcurve"/>
      <point x="405" y="185"/>
      <point x="317" y="87"/>
      <point x="238" y="73" type="qcurve"/>
      <point x="272" y="45"/>
      <point x="329" y="8"/>
      <point x="352" y="0" type="qcurve"/>
    </contour>
  </outline>
</glyph>
<glyph name="nyadeva" format="1">
  <advance width="737"/>
  <unicode hex="091E"/>
  <outline>
    <contour>
      <point x="603" y="664" type="move" name="DVAnchor3"/>
    </contour>
    <contour>
      <point x="218" y="120" type="qcurve"/>
      <point x="166" y="120"/>
      <point x="60" y="186"/>
      <point x="19" y="246" type="qcurve"/>
      <point x="65" y="293" type="line"/>
      <point x="93" y="244"/>
      <point x="176" y="186"/>
      <point x="218" y="186" type="qcurve" smooth="yes"/>
      <point x="270" y="186"/>
      <point x="345" y="265"/>
      <point x="345" y="320" type="qcurve" smooth="yes"/>
      <point x="345" y="366"/>
      <point x="282" y="433"/>
      <point x="238" y="433" type="qcurve" smooth="yes"/>
      <point x="206" y="433"/>
      <point x="146" y="405"/>
      <point x="125" y="380" type="qcurve"/>
      <point x="79" y="433" type="line"/>
      <point x="111" y="465"/>
      <point x="193" y="499"/>
      <point x="238" y="499" type="qcurve" smooth="yes"/>
      <point x="298" y="499"/>
      <point x="395" y="421"/>
      <point x="411" y="360" type="qcurve"/>
      <point x="419" y="350"/>
      <point x="454" y="340"/>
      <point x="478" y="340" type="qcurve" smooth="yes"/>
      <point x="507" y="340"/>
      <point x="555" y="353"/>
      <point x="571" y="366" type="qcurve"/>
      <point x="571" y="606" type="line"/>
      <point x="-13" y="606" type="line"/>
      <point x="-13" y="666" type="line"/>
      <point x="751" y="666" type="line"/>
      <point x="751" y="606" type="line"/>
      <point x="638" y="606" type="line"/>
      <point x="638" y="0" type="line"/>
      <point x="571" y="0" type="line"/>
      <point x="571" y="293" type="line"/>
      <point x="545" y="284"/>
      <point x="497" y="273"/>
      <point x="478" y="273" type="qcurve" smooth="yes"/>
      <point x="462" y="273"/>
      <point x="429" y="284"/>
      <point x="411" y="293" type="qcurve"/>
      <point x="398" y="218"/>
      <point x="289" y="120"/>
    </contour>
  </outline>
</glyph>
<glyph name="ttadeva" format="1">
  <advance width="565"/>
  <unicode hex="091F"/>
  <outline>
    <contour>
      <point x="421" y="664" type="move" name="DVAnchor3"/>
    </contour>
    <contour>
      <point x="324" y="45" type="move" name="DVAnchor0"/>
    </contour>
    <contour>
      <point x="325" y="13" type="qcurve"/>
      <point x="209" y="13"/>
      <point x="45" y="177"/>
      <point x="45" y="293" type="qcurve" smooth="yes"/>
      <point x="45" y="368"/>
      <point x="138" y="473"/>
      <point x="205" y="473" type="qcurve"/>
      <point x="385" y="473" type="line"/>
      <point x="385" y="606" type="line"/>
      <point x="-13" y="606" type="line"/>
      <point x="-13" y="666" type="line"/>
      <point x="579" y="666" type="line"/>
      <point x="579" y="606" type="line"/>
      <point x="451" y="606" type="line"/>
      <point x="451" y="406" type="line"/>
      <point x="205" y="406" type="line" smooth="yes"/>
      <point x="166" y="406"/>
      <point x="112" y="340"/>
      <point x="112" y="293" type="qcurve" smooth="yes"/>
      <point x="112" y="205"/>
      <point x="237" y="80"/>
      <point x="325" y="80" type="qcurve" smooth="yes"/>
      <point x="381" y="80"/>
      <point x="473" y="130"/>
      <point x="498" y="173" type="qcurve"/>
      <point x="551" y="127" type="line"/>
      <point x="521" y="75"/>
      <point x="399" y="13"/>
    </contour>
  </outline>
</glyph>
<glyph name="tthadeva" format="1">
  <advance width="580"/>
  <unicode hex="0920"/>
  <outline>
    <contour>
      <point x="422" y="664" type="move" name="DVAnchor3"/>
    </contour>
    <contour>
      <point x="316" y="39" type="move" name="DVAnchor0"/>
    </contour>
    <contour>
      <point x="324" y="7" type="qcurve"/>
      <point x="220" y="7"/>
      <point x="44" y="186"/>
      <point x="44" y="293" type="qcurve" smooth="yes"/>
      <point x="44" y="370"/>
      <point x="145" y="479"/>
      <point x="217" y="479" type="qcurve"/>
      <point x="384" y="479" type="line"/>
      <point x="384" y="606" type="line"/>
      <point x="-13" y="606" type="line"/>
      <point x="-13" y="666" type="line"/>
      <point x="594" y="666" type="line"/>
      <point x="594" y="606" type="line"/>
      <point x="450" y="606" type="line"/>
      <point x="450" y="413" type="line"/>
      <point x="217" y="413" type="line" smooth="yes"/>
      <point x="173" y="413"/>
      <point x="111" y="342"/>
      <point x="111" y="293" type="qcurve" smooth="yes"/>
      <point x="111" y="212"/>
      <point x="245" y="73"/>
      <point x="324" y="73" type="qcurve" smooth="yes"/>
      <point x="381" y="73"/>
      <point x="463" y="158"/>
      <point x="463" y="220" type="qcurve" smooth="yes"/>
      <point x="463" y="257"/>
      <point x="422" y="334"/>
      <point x="384" y="366" type="qcurve"/>
      <point x="437" y="406" type="line"/>
      <point x="481" y="369"/>
      <point x="530" y="272"/>
      <point x="530" y="220" type="qcurve" smooth="yes"/>
      <point x="530" y="132"/>
      <point x="409" y="7"/>
    </contour>
  </outline>
</glyph>
<glyph name="ddadeva" format="1">
  <advance width="631"/>
  <unicode hex="0921"/>
  <outline>
    <contour>
      <point x="495" y="664" type="move" name="DVAnchor3"/>
    </contour>
    <contour>
      <point x="378" y="45" type="move" name="DVAnchor0"/>
    </contour>
    <contour>
      <point x="385" y="13" type="qcurve"/>
      <point x="280" y="13"/>
      <point x="81" y="172"/>
      <point x="19" y="306" type="qcurve"/>
      <point x="72" y="340" type="line"/>
      <point x="128" y="221"/>
      <point x="297" y="80"/>
      <point x="385" y="80" type="qcurve" smooth="yes"/>
      <point x="439" y="80"/>
      <point x="518" y="162"/>
      <point x="518" y="220" type="qcurve" smooth="yes"/>
      <point x="518" y="236"/>
      <point x="498" y="260"/>
      <point x="485" y="260" type="qcurve" smooth="yes"/>
      <point x="463" y="260"/>
      <point x="386" y="233"/>
      <point x="365" y="233" type="qcurve" smooth="yes"/>
      <point x="314" y="233"/>
      <point x="192" y="361"/>
      <point x="192" y="413" type="qcurve" smooth="yes"/>
      <point x="192" y="449"/>
      <point x="242" y="499"/>
      <point x="278" y="499" type="qcurve"/>
      <point x="458" y="499" type="line"/>
      <point x="458" y="606" type="line"/>
      <point x="-13" y="606" type="line"/>
      <point x="-13" y="666" type="line"/>
      <point x="644" y="666" type="line"/>
      <point x="644" y="606" type="line"/>
      <point x="525" y="606" type="line"/>
      <point x="525" y="433" type="line"/>
      <point x="278" y="433" type="line" smooth="yes"/>
      <point x="270" y="433"/>
      <point x="258" y="421"/>
      <point x="258" y="413" type="qcurve" smooth="yes"/>
      <point x="258" y="385"/>
      <point x="338" y="300"/>
      <point x="365" y="300" type="qcurve" smooth="yes"/>
      <point x="386" y="300"/>
      <point x="463" y="326"/>
      <point x="485" y="326" type="qcurve" smooth="yes"/>
      <point x="526" y="326"/>
      <point x="585" y="264"/>
      <point x="585" y="220" type="qcurve" smooth="yes"/>
      <point x="585" y="134"/>
      <point x="467" y="13"/>
    </contour>
  </outline>
</glyph>
<glyph name="nnadeva" format="1">
  <advance width="669"/>
  <unicode hex="0923"/>
  <outline>
    <contour>
      <point x="540" y="664" type="move" name="DVAnchor3"/>
    </contour>
    <contour>
      <point x="529" y="29" type="move" name="DVAnchor0"/>
    </contour>
    <contour>
      <point x="224" y="226" type="qcurve"/>
      <point x="260" y="226"/>
      <point x="310" y="285"/>
      <point x="310" y="326" type="qcurve"/>
      <point x="310" y="606" type="line"/>
      <point x="130" y="606" type="line"/>
      <point x="130" y="326" type="line" smooth="yes"/>
      <point x="130" y="285"/>
      <point x="185" y="226"/>
    </contour>
    <contour>
      <point x="224" y="160" type="qcurve"/>
      <point x="157" y="160"/>
      <point x="64" y="257"/>
      <point x="64" y="326" type="qcurve"/>
      <point x="64" y="606" type="line"/>
      <point x="-13" y="606" type="line"/>
      <point x="-13" y="666" type="line"/>
      <point x="683" y="666" type="line"/>
      <point x="683" y="606" type="line"/>
      <point x="570" y="606" type="line"/>
      <point x="570" y="0" type="line"/>
      <point x="503" y="0" type="line"/>
      <point x="503" y="606" type="line"/>
      <point x="377" y="606" type="line"/>
      <point x="377" y="326" type="line" smooth="yes"/>
      <point x="377" y="257"/>
      <point x="286" y="160"/>
    </contour>
  </outline>
</glyph>
<glyph name="tadeva" format="1">
  <advance width="608"/>
  <unicode hex="0924"/>
  <outline>
    <contour>
      <point x="478" y="664" type="move" name="DVAnchor3"/>
    </contour>
    <contour>
      <point x="43" y="326" type="qcurve"/>
      <point x="43" y="390"/>
      <point x="125" y="479"/>
      <point x="182" y="479" type="qcurve"/>
      <point x="442" y="479" type="line"/>
      <point x="442" y="606" type="line"/>
      <point x="-13" y="606" type="line"/>
      <point x="-13" y="666" type="line"/>
      <point x="622" y="666" type="line"/>
      <point x="622" y="606" type="line"/>
      <point x="509" y="606" type="line"/>
      <point x="509" y="0" type="line"/>
      <point x="442" y="0" type="line"/>
      <point x="442" y="413" type="line"/>
      <point x="182" y="413" type="line" smooth="yes"/>
      <point x="152" y="413"/>
      <point x="109" y="362"/>
      <point x="109" y="326" type="qcurve" smooth="yes"/>
      <point x="109" y="262"/>
      <point x="200" y="116"/>
      <point x="282" y="47" type="qcurve"/>
      <point x="242" y="0" type="line"/>
      <point x="148" y="80"/>
      <point x="43" y="250"/>
    </contour>
  </outline>
</glyph>
<glyph name="thadeva" format="1">
  <advance width="685"/>
  <unicode hex="0925"/>
  <outline>
    <contour>
      <point x="555" y="664" type="move" name="DVAnchor3"/>
    </contour>
    <contour>
      <point x="300" y="133" type="qcurve"/>
      <point x="205" y="133"/>
      <point x="57" y="265"/>
      <point x="40" y="366" type="qcurve"/>
      <point x="51" y="362"/>
      <point x="96" y="360"/>
      <point x="140" y="360" type="qcurve" smooth="yes"/>
      <point x="212" y="360"/>
      <point x="313" y="442"/>
      <point x="313" y="499" type="qcurve" smooth="yes"/>
      <point x="313" y="549"/>
      <point x="250" y="619"/>
      <point x="206" y="619" type="qcurve" smooth="yes"/>
      <point x="168" y="619"/>
      <point x="113" y="577"/>
      <point x="113" y="546" type="qcurve" smooth="yes"/>
      <point x="113" y="521"/>
      <point x="160" y="486"/>
      <point x="193" y="486" type="qcurve"/>
      <point x="193" y="419" type="line"/>
      <point x="127" y="419"/>
      <point x="47" y="489"/>
      <point x="47" y="546" type="qcurve" smooth="yes"/>
      <point x="47" y="603"/>
      <point x="140" y="686"/>
      <point x="206" y="686" type="qcurve" smooth="yes"/>
      <point x="278" y="686"/>
      <point x="380" y="577"/>
      <point x="380" y="499" type="qcurve" smooth="yes"/>
      <point x="380" y="414"/>
      <point x="236" y="293"/>
      <point x="133" y="293" type="qcurve"/>
      <point x="153" y="250"/>
      <point x="244" y="200"/>
      <point x="300" y="200" type="qcurve" smooth="yes"/>
      <point x="354" y="200"/>
      <point x="469" y="266"/>
      <point x="519" y="326" type="qcurve"/>
      <point x="519" y="606" type="line"/>
      <point x="453" y="606" type="line"/>
      <point x="453" y="666" type="line"/>
      <point x="699" y="666" type="line"/>
      <point x="699" y="606" type="line"/>
      <point x="586" y="606" type="line"/>
      <point x="586" y="0" type="line"/>
      <point x="519" y="0" type="line"/>
      <point x="519" y="240" type="line"/>
      <point x="469" y="189"/>
      <point x="354" y="133"/>
    </contour>
  </outline>
</glyph>
<glyph name="dadeva" format="1">
  <advance width="541"/>
  <unicode hex="0926"/>
  <outline>
    <contour>
      <point x="417" y="666" type="move" name="DVAnchor3"/>
    </contour>
    <contour>
      <point x="458" y="7" type="move" name="DVAnchor0"/>
    </contour>
    <contour>
      <point x="-21" y="606" type="line"/>
      <point x="-21" y="666" type="line"/>
      <point x="555" y="666" type="line"/>
      <point x="555" y="606" type="line"/>
      <point x="449" y="606" type="line"/>
      <point x="449" y="433" type="line"/>
      <point x="189" y="433" type="line" smooth="yes"/>
      <point x="150" y="433"/>
      <point x="96" y="378"/>
      <point x="96" y="340" type="qcurve" smooth="yes"/>
      <point x="96" y="268"/>
      <point x="248" y="166"/>
      <point x="356" y="166" type="qcurve"/>
      <point x="356" y="213"/>
      <point x="398" y="280"/>
      <point x="429" y="280" type="qcurve" smooth="yes"/>
      <point x="451" y="280"/>
      <point x="482" y="249"/>
      <point x="482" y="226" type="qcurve" smooth="yes"/>
      <point x="482" y="200"/>
      <point x="450" y="146"/>
      <point x="422" y="127" type="qcurve"/>
      <point x="495" y="0" type="line"/>
      <point x="435" y="-27" type="line"/>
      <point x="362" y="107" type="line"/>
      <point x="224" y="107"/>
      <point x="29" y="244"/>
      <point x="29" y="340" type="qcurve" smooth="yes"/>
      <point x="29" y="406"/>
      <point x="122" y="499"/>
      <point x="189" y="499" type="qcurve"/>
      <point x="382" y="499" type="line"/>
      <point x="382" y="606" type="line"/>
    </contour>
  </outline>
</glyph>
<glyph name="dhadeva" format="1">
  <advance width="648"/>
  <unicode hex="0927"/>
  <outline>
    <contour>
      <point x="520" y="664" type="move" name="DVAnchor3"/>
    </contour>
    <contour>
      <point x="276" y="113" type="qcurve"/>
      <point x="201" y="113"/>
      <point x="96" y="196"/>
      <point x="96" y="253" type="qcurve" smooth="yes"/>
      <point x="96" y="289"/>
      <point x="124" y="349"/>
      <point x="149" y="366" type="qcurve"/>
      <point x="96" y="403"/>
      <point x="36" y="499"/>
      <point x="36" y="546" type="qcurve" smooth="yes"/>
      <point x="36" y="603"/>
      <point x="115" y="686"/>
      <point x="169" y="686" type="qcurve" smooth="yes"/>
      <point x="226" y="686"/>
      <point x="296" y="625"/>
      <point x="296" y="573" type="qcurve" smooth="yes"/>
      <point x="296" y="529"/>
      <point x="225" y="466"/>
      <point x="176" y="466" type="qcurve"/>
      <point x="176" y="533" type="line"/>
      <point x="198" y="533"/>
      <point x="229" y="557"/>
      <point x="229" y="573" type="qcurve" smooth="yes"/>
      <point x="229" y="591"/>
      <point x="194" y="619"/>
      <point x="169" y="619" type="qcurve" smooth="yes"/>
      <point x="141" y="619"/>
      <point x="103" y="577"/>
      <point x="103" y="546" type="qcurve" smooth="yes"/>
      <point x="103" y="507"/>
      <point x="156" y="433"/>
      <point x="202" y="406" type="qcurve"/>
      <point x="224" y="415"/>
      <point x="274" y="426"/>
      <point x="302" y="426" type="qcurve"/>
      <point x="342" y="426" type="line"/>
      <point x="382" y="360" type="line"/>
      <point x="309" y="360" type="line" smooth="yes"/>
      <point x="248" y="360"/>
      <point x="162" y="297"/>
      <point x="162" y="253" type="qcurve" smooth="yes"/>
      <point x="162" y="222"/>
      <point x="229" y="180"/>
      <point x="276" y="180" type="qcurve" smooth="yes"/>
      <point x="329" y="180"/>
      <point x="438" y="250"/>
      <point x="482" y="313" type="qcurve"/>
      <point x="482" y="606" type="line"/>
      <point x="336" y="606" type="line"/>
      <point x="336" y="666" type="line"/>
      <point x="662" y="666" type="line"/>
      <point x="662" y="606" type="line"/>
      <point x="549" y="606" type="line"/>
      <point x="549" y="0" type="line"/>
      <point x="482" y="0" type="line"/>
      <point x="482" y="220" type="line"/>
      <point x="439" y="169"/>
      <point x="332" y="113"/>
    </contour>
  </outline>
</glyph>
<glyph name="nadeva" format="1">
  <advance width="585"/>
  <unicode hex="0928"/>
  <outline>
    <contour>
      <point x="455" y="664" type="move" name="DVAnchor3"/>
    </contour>
    <contour>
      <point x="20" y="399" type="qcurve"/>
      <point x="20" y="413"/>
      <point x="48" y="433"/>
      <point x="67" y="433" type="qcurve"/>
      <point x="419" y="433" type="line"/>
      <point x="419" y="606" type="line"/>
      <point x="-13" y="606" type="line"/>
      <point x="-13" y="666" type="line"/>
      <point x="599" y="666" type="line"/>
      <point x="599" y="606" type="line"/>
      <point x="486" y="606" type="line"/>
      <point x="486" y="0" type="line"/>
      <point x="419" y="0" type="line"/>
      <point x="419" y="366" type="line"/>
      <point x="226" y="366" type="line" smooth="yes"/>
      <point x="210" y="366"/>
      <point x="186" y="350"/>
      <point x="186" y="340" type="qcurve"/>
      <point x="186" y="273" type="line" smooth="yes"/>
      <point x="186" y="257"/>
      <point x="166" y="233"/>
      <point x="153" y="233" type="qcurve" smooth="yes"/>
      <point x="130" y="233"/>
      <point x="20" y="372"/>
    </contour>
  </outline>
</glyph>
<glyph name="nnnadeva" format="1">
  <advance width="585"/>
  <unicode hex="0929"/>
  <outline>
    <contour>
      <point x="452" y="666" type="move" name="DVAnchor3"/>
    </contour>
    <contour>
      <point x="226" y="-7" type="line"/>
      <point x="173" y="40" type="line"/>
      <point x="226" y="93" type="line"/>
      <point x="280" y="40" type="line"/>
    </contour>
    <component base="nadeva"/>
  </outline>
</glyph>
<glyph name="padeva" format="1">
  <advance width="536"/>
  <unicode hex="092A"/>
  <outline>
    <contour>
      <point x="404" y="664" type="move" name="DVAnchor3"/>
    </contour>
    <contour>
      <point x="237" y="260" type="qcurve"/>
      <point x="278" y="260"/>
      <point x="350" y="310"/>
      <point x="370" y="353" type="qcurve"/>
      <point x="370" y="606" type="line"/>
      <point x="124" y="606" type="line"/>
      <point x="124" y="366" type="line" smooth="yes"/>
      <point x="124" y="322"/>
      <point x="190" y="260"/>
    </contour>
    <contour>
      <point x="57" y="366" type="qcurve"/>
      <point x="57" y="606" type="line"/>
      <point x="-13" y="606" type="line"/>
      <point x="-13" y="666" type="line"/>
      <point x="550" y="666" type="line"/>
      <point x="550" y="606" type="line"/>
      <point x="437" y="606" type="line"/>
      <point x="437" y="0" type="line"/>
      <point x="370" y="0" type="line"/>
      <point x="370" y="253" type="line"/>
      <point x="341" y="224"/>
      <point x="272" y="193"/>
      <point x="237" y="193" type="qcurve" smooth="yes"/>
      <point x="162" y="193"/>
      <point x="57" y="294"/>
    </contour>
  </outline>
</glyph>
<glyph name="phadeva" format="1">
  <advance width="774"/>
  <unicode hex="092B"/>
  <outline>
    <contour>
      <point x="386" y="664" type="move" name="DVAnchor3"/>
    </contour>
    <contour>
      <point x="391" y="23" type="move" name="DVAnchor0"/>
    </contour>
    <contour>
      <point x="221" y="280" type="qcurve"/>
      <point x="260" y="280"/>
      <point x="330" y="318"/>
      <point x="354" y="353" type="qcurve"/>
      <point x="354" y="606" type="line"/>
      <point x="121" y="606" type="line"/>
      <point x="121" y="373" type="line" smooth="yes"/>
      <point x="121" y="334"/>
      <point x="180" y="280"/>
    </contour>
    <contour>
      <point x="55" y="373" type="qcurve"/>
      <point x="55" y="606" type="line"/>
      <point x="-13" y="606" type="line"/>
      <point x="-13" y="666" type="line"/>
      <point x="788" y="666" type="line"/>
      <point x="788" y="606" type="line"/>
      <point x="421" y="606" type="line"/>
      <point x="421" y="419" type="line"/>
      <point x="447" y="451"/>
      <point x="521" y="486"/>
      <point x="561" y="486" type="qcurve" smooth="yes"/>
      <point x="630" y="486"/>
      <point x="727" y="377"/>
      <point x="727" y="300" type="qcurve" smooth="yes"/>
      <point x="727" y="240"/>
      <point x="682" y="124"/>
      <point x="640" y="73" type="qcurve"/>
      <point x="581" y="107" type="line"/>
      <point x="619" y="145"/>
      <point x="660" y="245"/>
      <point x="660" y="300" type="qcurve" smooth="yes"/>
      <point x="660" y="349"/>
      <point x="602" y="419"/>
      <point x="561" y="419" type="qcurve" smooth="yes"/>
      <point x="526" y="419"/>
      <point x="453" y="378"/>
      <point x="421" y="340" type="qcurve"/>
      <point x="421" y="0" type="line"/>
      <point x="354" y="0" type="line"/>
      <point x="354" y="266" type="line"/>
      <point x="329" y="241"/>
      <point x="260" y="213"/>
      <point x="221" y="213" type="qcurve" smooth="yes"/>
      <point x="152" y="213"/>
      <point x="55" y="306"/>
    </contour>
  </outline>
</glyph>
<glyph name="bhadeva" format="1">
  <advance width="657"/>
  <unicode hex="092D"/>
  <outline>
    <contour>
      <point x="526" y="664" type="move" name="DVAnchor3"/>
    </contour>
    <contour>
      <point x="119" y="326" type="qcurve"/>
      <point x="119" y="337"/>
      <point x="138" y="353"/>
      <point x="152" y="353" type="qcurve"/>
      <point x="205" y="353" type="line"/>
      <point x="205" y="546" type="line" smooth="yes"/>
      <point x="205" y="574"/>
      <point x="170" y="613"/>
      <point x="145" y="613" type="qcurve" smooth="yes"/>
      <point x="120" y="613"/>
      <point x="85" y="585"/>
      <point x="85" y="566" type="qcurve" smooth="yes"/>
      <point x="85" y="543"/>
      <point x="120" y="513"/>
      <point x="145" y="513" type="qcurve"/>
      <point x="145" y="446" type="line"/>
      <point x="93" y="446"/>
      <point x="19" y="517"/>
      <point x="19" y="566" type="qcurve" smooth="yes"/>
      <point x="19" y="613"/>
      <point x="93" y="679"/>
      <point x="145" y="679" type="qcurve" smooth="yes"/>
      <point x="197" y="679"/>
      <point x="272" y="601"/>
      <point x="272" y="546" type="qcurve"/>
      <point x="272" y="353" type="line"/>
      <point x="491" y="353" type="line"/>
      <point x="491" y="606" type="line"/>
      <point x="318" y="606" type="line"/>
      <point x="318" y="666" type="line"/>
      <point x="671" y="666" type="line"/>
      <point x="671" y="606" type="line"/>
      <point x="558" y="606" type="line"/>
      <point x="558" y="0" type="line"/>
      <point x="491" y="0" type="line"/>
      <point x="491" y="286" type="line"/>
      <point x="272" y="286" type="line"/>
      <point x="272" y="233" type="line" smooth="yes"/>
      <point x="272" y="222"/>
      <point x="252" y="206"/>
      <point x="238" y="206" type="qcurve" smooth="yes"/>
      <point x="218" y="206"/>
      <point x="119" y="306"/>
    </contour>
  </outline>
</glyph>
<glyph name="madeva" format="1">
  <advance width="579"/>
  <unicode hex="092E"/>
  <outline>
    <contour>
      <point x="447" y="664" type="move" name="DVAnchor3"/>
    </contour>
    <contour>
      <point x="173" y="386" type="line"/>
      <point x="413" y="386" type="line"/>
      <point x="413" y="606" type="line"/>
      <point x="173" y="606" type="line"/>
    </contour>
    <contour>
      <point x="-13" y="606" type="line"/>
      <point x="-13" y="666" type="line"/>
      <point x="593" y="666" type="line"/>
      <point x="593" y="606" type="line"/>
      <point x="479" y="606" type="line"/>
      <point x="479" y="0" type="line"/>
      <point x="413" y="0" type="line"/>
      <point x="413" y="320" type="line"/>
      <point x="173" y="320" type="line"/>
      <point x="173" y="273" type="line" smooth="yes"/>
      <point x="173" y="257"/>
      <point x="161" y="233"/>
      <point x="153" y="233" type="qcurve" smooth="yes"/>
      <point x="130" y="233"/>
      <point x="20" y="333"/>
      <point x="20" y="353" type="qcurve" smooth="yes"/>
      <point x="20" y="366"/>
      <point x="40" y="386"/>
      <point x="53" y="386" type="qcurve"/>
      <point x="107" y="386" type="line"/>
      <point x="107" y="606" type="line"/>
    </contour>
  </outline>
</glyph>
<glyph name="yadeva" format="1">
  <advance width="596"/>
  <unicode hex="092F"/>
  <outline>
    <contour>
      <point x="464" y="664" type="move" name="DVAnchor3"/>
    </contour>
    <contour>
      <point x="466" y="26" type="move" name="DVAnchor0"/>
    </contour>
    <contour>
      <point x="257" y="193" type="qcurve"/>
      <point x="309" y="193"/>
      <point x="402" y="250"/>
      <point x="430" y="300" type="qcurve"/>
      <point x="430" y="606" type="line"/>
      <point x="204" y="606" type="line"/>
      <point x="229" y="575"/>
      <point x="257" y="506"/>
      <point x="257" y="473" type="qcurve" smooth="yes"/>
      <point x="257" y="415"/>
      <point x="166" y="325"/>
      <point x="97" y="313" type="qcurve"/>
      <point x="107" y="261"/>
      <point x="197" y="193"/>
    </contour>
    <contour>
      <point x="-13" y="606" type="line"/>
      <point x="-13" y="666" type="line"/>
      <point x="610" y="666" type="line"/>
      <point x="610" y="606" type="line"/>
      <point x="497" y="606" type="line"/>
      <point x="497" y="0" type="line"/>
      <point x="430" y="0" type="line"/>
      <point x="430" y="206" type="line"/>
      <point x="391" y="168"/>
      <point x="302" y="127"/>
      <point x="257" y="127" type="qcurve" smooth="yes"/>
      <point x="161" y="127"/>
      <point x="24" y="266"/>
      <point x="24" y="366" type="qcurve"/>
      <point x="100" y="366"/>
      <point x="190" y="425"/>
      <point x="190" y="473" type="qcurve" smooth="yes"/>
      <point x="190" y="505"/>
      <point x="156" y="574"/>
      <point x="124" y="606" type="qcurve"/>
    </contour>
  </outline>
</glyph>
<glyph name="radeva" format="1">
  <advance width="436"/>
  <unicode hex="0930"/>
  <outline>
    <contour>
      <point x="331" y="664" type="move" name="DVAnchor3"/>
    </contour>
    <contour>
      <point x="-13" y="606" type="line"/>
      <point x="-13" y="666" type="line"/>
      <point x="450" y="666" type="line"/>
      <point x="450" y="606" type="line"/>
      <point x="360" y="606" type="line"/>
      <point x="360" y="453" type="line" smooth="yes"/>
      <point x="360" y="391"/>
      <point x="277" y="306"/>
      <point x="220" y="306" type="qcurve" smooth="yes"/>
      <point x="212" y="306"/>
      <point x="185" y="313"/>
      <point x="166" y="320" type="qcurve"/>
      <point x="209" y="245"/>
      <point x="326" y="108"/>
      <point x="399" y="47" type="qcurve"/>
      <point x="360" y="0" type="line"/>
      <point x="253" y="89"/>
      <point x="81" y="316"/>
      <point x="20" y="446" type="qcurve"/>
      <point x="80" y="479" type="line"/>
      <point x="97" y="431"/>
      <point x="174" y="373"/>
      <point x="220" y="373" type="qcurve" smooth="yes"/>
      <point x="250" y="373"/>
      <point x="293" y="419"/>
      <point x="293" y="453" type="qcurve"/>
      <point x="293" y="606" type="line"/>
    </contour>
  </outline>
</glyph>
<glyph name="rradeva" format="1">
  <advance width="442"/>
  <unicode hex="0931"/>
  <outline>
    <contour>
      <point x="335" y="665" type="move" name="DVAnchor3"/>
    </contour>
    <contour>
      <point x="125" y="-7" type="line"/>
      <point x="72" y="40" type="line"/>
      <point x="125" y="93" type="line"/>
      <point x="178" y="40" type="line"/>
    </contour>
    <component base="radeva"/>
  </outline>
</glyph>
<glyph name="ladeva" format="1">
  <advance width="727"/>
  <unicode hex="0932"/>
  <outline>
    <contour>
      <point x="597" y="664" type="move" name="DVAnchor3"/>
    </contour>
    <contour>
      <point x="-13" y="606" type="line"/>
      <point x="-13" y="666" type="line"/>
      <point x="740" y="666" type="line"/>
      <point x="740" y="606" type="line"/>
      <point x="627" y="606" type="line"/>
      <point x="627" y="0" type="line"/>
      <point x="561" y="0" type="line"/>
      <point x="561" y="399" type="line"/>
      <point x="503" y="399"/>
      <point x="403" y="296"/>
      <point x="381" y="213" type="qcurve"/>
      <point x="321" y="233" type="line"/>
      <point x="326" y="265"/>
      <point x="348" y="317"/>
      <point x="361" y="333" type="qcurve"/>
      <point x="340" y="365"/>
      <point x="276" y="399"/>
      <point x="241" y="399" type="qcurve" smooth="yes"/>
      <point x="186" y="399"/>
      <point x="108" y="321"/>
      <point x="108" y="266" type="qcurve" smooth="yes"/>
      <point x="108" y="206"/>
      <point x="229" y="89"/>
      <point x="328" y="53" type="qcurve"/>
      <point x="301" y="-7" type="line"/>
      <point x="184" y="36"/>
      <point x="41" y="186"/>
      <point x="41" y="266" type="qcurve" smooth="yes"/>
      <point x="41" y="349"/>
      <point x="158" y="466"/>
      <point x="241" y="466" type="qcurve" smooth="yes"/>
      <point x="290" y="466"/>
      <point x="378" y="427"/>
      <point x="407" y="393" type="qcurve"/>
      <point x="437" y="427"/>
      <point x="517" y="466"/>
      <point x="561" y="466" type="qcurve"/>
      <point x="561" y="606" type="line"/>
    </contour>
  </outline>
</glyph>
<glyph name="lladeva" format="1">
  <advance width="735"/>
  <unicode hex="0933"/>
  <outline>
    <contour>
      <point x="519" y="664" type="move" name="DVAnchor3"/>
    </contour>
    <contour>
      <point x="527" y="101" type="move" name="DVAnchor0"/>
    </contour>
    <contour>
      <point x="523" y="133" type="qcurve"/>
      <point x="565" y="133"/>
      <point x="623" y="218"/>
      <point x="623" y="280" type="qcurve" smooth="yes"/>
      <point x="623" y="337"/>
      <point x="565" y="419"/>
      <point x="523" y="419" type="qcurve" smooth="yes"/>
      <point x="487" y="419"/>
      <point x="419" y="341"/>
      <point x="403" y="280" type="qcurve"/>
      <point x="427" y="213"/>
      <point x="494" y="133"/>
    </contour>
    <contour>
      <point x="224" y="140" type="qcurve"/>
      <point x="253" y="140"/>
      <point x="316" y="213"/>
      <point x="337" y="273" type="qcurve"/>
      <point x="320" y="338"/>
      <point x="257" y="419"/>
      <point x="224" y="419" type="qcurve" smooth="yes"/>
      <point x="177" y="419"/>
      <point x="111" y="334"/>
      <point x="111" y="274" type="qcurve" smooth="yes"/>
      <point x="111" y="218"/>
      <point x="177" y="140"/>
    </contour>
    <contour>
      <point x="-13" y="606" type="line"/>
      <point x="-13" y="666" type="line"/>
      <point x="748" y="666" type="line"/>
      <point x="748" y="606" type="line"/>
      <point x="550" y="606" type="line"/>
      <point x="550" y="479" type="line"/>
      <point x="611" y="469"/>
      <point x="690" y="356"/>
      <point x="690" y="280" type="qcurve" smooth="yes"/>
      <point x="690" y="194"/>
      <point x="593" y="73"/>
      <point x="523" y="73" type="qcurve" smooth="yes"/>
      <point x="482" y="73"/>
      <point x="398" y="145"/>
      <point x="370" y="206" type="qcurve"/>
      <point x="342" y="145"/>
      <point x="262" y="73"/>
      <point x="224" y="73" type="qcurve" smooth="yes"/>
      <point x="149" y="73"/>
      <point x="44" y="190"/>
      <point x="44" y="274" type="qcurve" smooth="yes"/>
      <point x="44" y="360"/>
      <point x="149" y="479"/>
      <point x="224" y="479" type="qcurve" smooth="yes"/>
      <point x="270" y="479"/>
      <point x="350" y="414"/>
      <point x="370" y="360" type="qcurve"/>
      <point x="389" y="409"/>
      <point x="449" y="473"/>
      <point x="483" y="479" type="qcurve"/>
      <point x="483" y="606" type="line"/>
    </contour>
  </outline>
</glyph>
<glyph name="llladeva" format="1">
  <advance width="733"/>
  <unicode hex="0934"/>
  <outline>
    <contour>
      <point x="515" y="664" type="move" name="DVAnchor3"/>
    </contour>
    <contour>
      <point x="553" y="98" type="move" name="DVAnchor0"/>
    </contour>
    <contour>
      <point x="370" y="-20" type="line"/>
      <point x="317" y="33" type="line"/>
      <point x="370" y="87" type="line"/>
      <point x="423" y="33" type="line"/>
    </contour>
    <component base="lladeva"/>
  </outline>
</glyph>
<glyph name="vadeva" format="1">
  <advance width="543"/>
  <unicode hex="0935"/>
  <outline>
    <contour>
      <point x="410" y="665" type="move" name="DVAnchor3"/>
    </contour>
    <contour>
      <point x="-13" y="606" type="line"/>
      <point x="-13" y="666" type="line"/>
      <point x="557" y="666" type="line"/>
      <point x="557" y="606" type="line"/>
      <point x="443" y="606" type="line"/>
      <point x="443" y="0" type="line"/>
      <point x="377" y="0" type="line"/>
      <point x="377" y="213" type="line"/>
      <point x="350" y="181"/>
      <point x="277" y="146"/>
      <point x="237" y="146" type="qcurve" smooth="yes"/>
      <point x="154" y="146"/>
      <point x="37" y="252"/>
      <point x="37" y="326" type="qcurve" smooth="yes"/>
      <point x="37" y="401"/>
      <point x="154" y="506"/>
      <point x="237" y="506" type="qcurve" smooth="yes"/>
      <point x="261" y="506"/>
      <point x="305" y="493"/>
      <point x="324" y="479" type="qcurve"/>
      <point x="290" y="426" type="line"/>
      <point x="278" y="435"/>
      <point x="252" y="446"/>
      <point x="237" y="446" type="qcurve" smooth="yes"/>
      <point x="182" y="446"/>
      <point x="104" y="376"/>
      <point x="104" y="326" type="qcurve" smooth="yes"/>
      <point x="104" y="280"/>
      <point x="182" y="213"/>
      <point x="237" y="213" type="qcurve" smooth="yes"/>
      <point x="276" y="213"/>
      <point x="350" y="266"/>
      <point x="377" y="313" type="qcurve"/>
      <point x="377" y="606" type="line"/>
    </contour>
  </outline>
</glyph>
<glyph name="shadeva" format="1">
  <advance width="676"/>
  <unicode hex="0936"/>
  <outline>
    <contour>
      <point x="546" y="664" type="move" name="DVAnchor3"/>
    </contour>
    <contour>
      <point x="377" y="606" type="line"/>
      <point x="377" y="666" type="line"/>
      <point x="690" y="666" type="line"/>
      <point x="690" y="606" type="line"/>
      <point x="577" y="606" type="line"/>
      <point x="577" y="0" type="line"/>
      <point x="510" y="0" type="line"/>
      <point x="510" y="606" type="line"/>
    </contour>
    <contour>
      <point x="197" y="453" type="qcurve"/>
      <point x="230" y="453"/>
      <point x="288" y="493"/>
      <point x="304" y="526" type="qcurve"/>
      <point x="289" y="565"/>
      <point x="238" y="613"/>
      <point x="210" y="613" type="qcurve" smooth="yes"/>
      <point x="177" y="613"/>
      <point x="130" y="562"/>
      <point x="130" y="526" type="qcurve" smooth="yes"/>
      <point x="130" y="495"/>
      <point x="169" y="453"/>
    </contour>
    <contour>
      <point x="330" y="0" type="line"/>
      <point x="31" y="253" type="line"/>
      <point x="64" y="300" type="line"/>
      <point x="93" y="276"/>
      <point x="127" y="253"/>
      <point x="137" y="253" type="qcurve" smooth="yes"/>
      <point x="212" y="253"/>
      <point x="317" y="370"/>
      <point x="317" y="453" type="qcurve"/>
      <point x="300" y="422"/>
      <point x="234" y="386"/>
      <point x="197" y="386" type="qcurve" smooth="yes"/>
      <point x="142" y="386"/>
      <point x="64" y="469"/>
      <point x="64" y="526" type="qcurve" smooth="yes"/>
      <point x="64" y="590"/>
      <point x="149" y="679"/>
      <point x="210" y="679" type="qcurve" smooth="yes"/>
      <point x="282" y="679"/>
      <point x="384" y="546"/>
      <point x="384" y="453" type="qcurve" smooth="yes"/>
      <point x="384" y="350"/>
      <point x="262" y="206"/>
      <point x="177" y="206" type="qcurve"/>
      <point x="370" y="47" type="line"/>
    </contour>
  </outline>
</glyph>
<glyph name="ssadeva" format="1">
  <advance width="535"/>
  <unicode hex="0937"/>
  <outline>
    <contour>
      <point x="404" y="666" type="move" name="DVAnchor3"/>
    </contour>
    <contour>
      <point x="369" y="386" type="line"/>
      <point x="369" y="606" type="line"/>
      <point x="136" y="606" type="line"/>
    </contour>
    <contour>
      <point x="229" y="266" type="qcurve"/>
      <point x="270" y="266"/>
      <point x="342" y="290"/>
      <point x="369" y="313" type="qcurve"/>
      <point x="123" y="539" type="line"/>
      <point x="123" y="373" type="line" smooth="yes"/>
      <point x="123" y="329"/>
      <point x="185" y="266"/>
    </contour>
    <contour>
      <point x="-13" y="606" type="line"/>
      <point x="-13" y="666" type="line"/>
      <point x="549" y="666" type="line"/>
      <point x="549" y="606" type="line"/>
      <point x="435" y="606" type="line"/>
      <point x="435" y="0" type="line"/>
      <point x="369" y="0" type="line"/>
      <point x="369" y="240" type="line"/>
      <point x="341" y="220"/>
      <point x="269" y="200"/>
      <point x="229" y="200" type="qcurve" smooth="yes"/>
      <point x="157" y="200"/>
      <point x="56" y="301"/>
      <point x="56" y="373" type="qcurve"/>
      <point x="56" y="606" type="line"/>
    </contour>
  </outline>
</glyph>
<glyph name="sadeva" format="1">
  <advance width="709"/>
  <unicode hex="0938"/>
  <outline>
    <contour>
      <point x="576" y="665" type="move" name="DVAnchor3"/>
    </contour>
    <contour>
      <point x="-13" y="606" type="line"/>
      <point x="-13" y="666" type="line"/>
      <point x="723" y="666" type="line"/>
      <point x="723" y="606" type="line"/>
      <point x="610" y="606" type="line"/>
      <point x="610" y="0" type="line"/>
      <point x="543" y="0" type="line"/>
      <point x="543" y="320" type="line"/>
      <point x="259" y="320" type="line"/>
      <point x="246" y="310"/>
      <point x="215" y="300"/>
      <point x="197" y="300" type="qcurve" smooth="yes"/>
      <point x="189" y="300"/>
      <point x="174" y="304"/>
      <point x="170" y="306" type="qcurve"/>
      <point x="370" y="27" type="line"/>
      <point x="317" y="-7" type="line"/>
      <point x="17" y="419" type="line"/>
      <point x="71" y="459" type="line"/>
      <point x="92" y="414"/>
      <point x="149" y="360"/>
      <point x="177" y="360" type="qcurve" smooth="yes"/>
      <point x="205" y="360"/>
      <point x="244" y="398"/>
      <point x="244" y="426" type="qcurve"/>
      <point x="244" y="606" type="line"/>
    </contour>
    <contour>
      <point x="304" y="386" type="qcurve"/>
      <point x="543" y="386" type="line"/>
      <point x="543" y="606" type="line"/>
      <point x="310" y="606" type="line"/>
      <point x="310" y="426" type="line" smooth="yes"/>
      <point x="310" y="416"/>
      <point x="307" y="396"/>
    </contour>
  </outline>
</glyph>
<glyph name="hadeva" format="1">
  <advance width="527"/>
  <unicode hex="0939"/>
  <outline>
    <contour>
      <point x="401" y="666" type="move" name="DVAnchor3"/>
    </contour>
    <contour>
      <point x="335" y="2" type="move" name="DVAnchor0"/>
    </contour>
    <contour>
      <point x="-13" y="606" type="line"/>
      <point x="-13" y="666" type="line"/>
      <point x="541" y="666" type="line"/>
      <point x="541" y="606" type="line"/>
      <point x="434" y="606" type="line"/>
      <point x="434" y="446" type="line"/>
      <point x="161" y="446" type="line" smooth="yes"/>
      <point x="148" y="446"/>
      <point x="128" y="434"/>
      <point x="128" y="426" type="qcurve" smooth="yes"/>
      <point x="128" y="399"/>
      <point x="168" y="349"/>
      <point x="201" y="333" type="qcurve"/>
      <point x="222" y="342"/>
      <point x="273" y="353"/>
      <point x="301" y="353" type="qcurve" smooth="yes"/>
      <point x="376" y="353"/>
      <point x="481" y="268"/>
      <point x="481" y="206" type="qcurve" smooth="yes"/>
      <point x="481" y="172"/>
      <point x="453" y="115"/>
      <point x="427" y="100" type="qcurve"/>
      <point x="374" y="146" type="line"/>
      <point x="393" y="157"/>
      <point x="414" y="189"/>
      <point x="414" y="206" type="qcurve" smooth="yes"/>
      <point x="414" y="240"/>
      <point x="348" y="286"/>
      <point x="301" y="286" type="qcurve" smooth="yes"/>
      <point x="229" y="286"/>
      <point x="128" y="220"/>
      <point x="128" y="173" type="qcurve" smooth="yes"/>
      <point x="128" y="112"/>
      <point x="300" y="27"/>
      <point x="421" y="27" type="qcurve"/>
      <point x="407" y="-33" type="line"/>
      <point x="264" y="-33"/>
      <point x="61" y="88"/>
      <point x="61" y="173" type="qcurve" smooth="yes"/>
      <point x="61" y="212"/>
      <point x="100" y="280"/>
      <point x="134" y="300" type="qcurve"/>
      <point x="100" y="329"/>
      <point x="61" y="395"/>
      <point x="61" y="426" type="qcurve" smooth="yes"/>
      <point x="61" y="462"/>
      <point x="120" y="513"/>
      <point x="161" y="513" type="qcurve"/>
      <point x="368" y="513" type="line"/>
      <point x="368" y="606" type="line"/>
    </contour>
  </outline>
</glyph>
<glyph name="oesigndeva" format="1">
  <advance width="0"/>
  <unicode hex="093A"/>
  <outline>
    <contour>
      <point x="-133" y="666" type="move" name="_DVAnchor3"/>
    </contour>
    <contour>
      <point x="-163" y="666" type="line"/>
      <point x="-163" y="821" type="line"/>
      <point x="-101" y="821" type="line"/>
      <point x="-100" y="666" type="line"/>
    </contour>
  </outline>
</glyph>
<glyph name="ooesigndeva" format="1">
  <advance width="266"/>
  <unicode hex="093B"/>
  <outline>
    <contour>
      <point x="-13" y="606" type="line"/>
      <point x="-13" y="666" type="line"/>
      <point x="100" y="666" type="line"/>
      <point x="100" y="821" type="line"/>
      <point x="162" y="821" type="line"/>
      <point x="163" y="666" type="line"/>
      <point x="280" y="666" type="line"/>
      <point x="280" y="606" type="line"/>
      <point x="166" y="606" type="line"/>
      <point x="166" y="0" type="line"/>
      <point x="100" y="0" type="line"/>
      <point x="100" y="606" type="line"/>
    </contour>
  </outline>
</glyph>
<glyph name="nuktadeva" format="1">
  <advance width="0"/>
  <unicode hex="093C"/>
  <outline>
    <contour>
      <point x="-526" y="-93" type="line"/>
      <point x="-579" y="-47" type="line"/>
      <point x="-526" y="7" type="line"/>
      <point x="-473" y="-47" type="line"/>
    </contour>
  </outline>
</glyph>
<glyph name="avagrahadeva" format="1">
  <advance width="442"/>
  <unicode hex="093D"/>
  <outline>
    <contour>
      <point x="245" y="5" type="qcurve"/>
      <point x="176" y="5"/>
      <point x="53" y="121"/>
      <point x="25" y="214" type="qcurve"/>
      <point x="85" y="246" type="line"/>
      <point x="108" y="170"/>
      <point x="197" y="77"/>
      <point x="245" y="77" type="qcurve" smooth="yes"/>
      <point x="281" y="77"/>
      <point x="332" y="144"/>
      <point x="332" y="192" type="qcurve" smooth="yes"/>
      <point x="332" y="236"/>
      <point x="257" y="333"/>
      <point x="192" y="376" type="qcurve"/>
      <point x="148" y="403"/>
      <point x="99" y="487"/>
      <point x="99" y="533" type="qcurve" smooth="yes"/>
      <point x="99" y="582"/>
      <point x="181" y="652"/>
      <point x="238" y="652" type="qcurve"/>
      <point x="398" y="652" type="line"/>
      <point x="398" y="585" type="line"/>
      <point x="238" y="585" type="line" smooth="yes"/>
      <point x="208" y="585"/>
      <point x="165" y="553"/>
      <point x="165" y="530" type="qcurve" smooth="yes"/>
      <point x="165" y="498"/>
      <point x="233" y="417"/>
      <point x="292" y="378" type="qcurve" smooth="yes"/>
      <point x="317" y="362"/>
      <point x="356" y="321"/>
      <point x="370" y="296" type="qcurve"/>
      <point x="384" y="271"/>
      <point x="398" y="219"/>
      <point x="398" y="192" type="qcurve" smooth="yes"/>
      <point x="398" y="115"/>
      <point x="309" y="5"/>
    </contour>
  </outline>
</glyph>
